<?xml version="1.0" standalone="no"?>
<!DOCTYPE svg PUBLIC "-//W3C//DTD SVG 1.1//EN" "http://www.w3.org/Graphics/SVG/1.1/DTD/svg11.dtd" >
<svg xmlns="http://www.w3.org/2000/svg" xmlns:xlink="http://www.w3.org/1999/xlink" version="1.1">
<metadata></metadata>
<defs>
<font id="reason_shadow_brknormal" horiz-adv-x="1069" >
<font-face units-per-em="2048" ascent="1638" descent="-410" />
<missing-glyph horiz-adv-x="500" />
<glyph horiz-adv-x="0" />
<glyph horiz-adv-x="682" />
<glyph unicode=" " />
<glyph unicode="!" horiz-adv-x="524" d="M41 90q0 41 18.5 77t49.5 58q-31 25 -49.5 61t-18.5 76v820q0 74 50 124t122 50q51 0 90 -24.5t62 -65.5l69 -68q49 -49 49 -119v-819q0 -41 -18.5 -75.5t-48.5 -57.5l22 -21q45 -45 45 -118q0 -68 -48 -117t-120 -49q-76 0 -118 47l-72 72q-39 23 -61.5 61.5t-22.5 87.5 zM123 90q0 -39 25.5 -64.5t64.5 -25.5t65.5 26.5t26.5 63.5q0 41 -26.5 65.5t-65.5 24.5q-37 0 -63.5 -26.5t-26.5 -63.5zM123 362q0 -37 26.5 -63.5t63.5 -26.5q39 0 65.5 27t26.5 63v820q0 39 -26.5 65.5t-65.5 26.5q-37 0 -63.5 -26.5t-26.5 -65.5v-820z" />
<glyph unicode="&#x22;" horiz-adv-x="796" d="M41 1047v135q0 74 50 124t124 50q41 0 76 -18.5t57 -49.5q25 31 60.5 49.5t78.5 18.5q47 0 87 -24.5t63 -65.5l70 -68q49 -49 49 -119v-135q0 -72 -49.5 -120t-116.5 -48q-70 0 -119 49l-20 19q-23 -31 -58 -49.5t-76 -18.5q-70 0 -118 49l-70 68q-41 23 -64.5 62.5 t-23.5 91.5zM123 1047q0 -39 26.5 -66t65.5 -27q37 0 63.5 27t26.5 66v135q0 39 -26.5 65.5t-63.5 26.5q-39 0 -65.5 -26.5t-26.5 -65.5v-135zM395 1047q0 -39 27 -66t65 -27q37 0 64 27t27 66v135q0 39 -27 65.5t-64 26.5q-39 0 -65.5 -26.5t-26.5 -65.5v-135z" />
<glyph unicode="#" d="M41 362q0 63 38 110.5t97 59.5v177l-49 47q-41 23 -63.5 62.5t-22.5 90.5q0 61 38 107.5t97 60.5v105q0 74 50 124t124 50q41 0 77 -18.5t58 -51.5q25 33 61 51.5t77 18.5q51 0 90 -24.5t61 -65.5l70 -68q49 -49 49 -119v-57q12 -16 16 -27l72 -69q23 -23 35 -53.5 t12 -65.5q0 -59 -39 -105.5t-96 -58.5v-170l8 -12l8 -12l70 -70q49 -49 49 -119q0 -59 -39 -105t-96 -59v-108q0 -68 -48 -117t-120 -49q-76 0 -119 47l-20 20q-23 -31 -57.5 -49t-75.5 -18q-76 0 -123 47l-72 72q-37 23 -59.5 59.5t-22.5 89.5v76l-45 45q-41 23 -65.5 62.5 t-24.5 88.5zM123 362q0 -37 26.5 -63.5t63.5 -26.5q45 0 45 -45v-137q0 -41 26.5 -65.5t65.5 -24.5q37 0 63.5 26.5t26.5 63.5v137q0 45 47 45q45 0 45 -45v-137q0 -39 26 -64.5t65 -25.5t65.5 26.5t26.5 63.5v137q0 45 45 45q37 0 63.5 27t26.5 63q0 39 -26.5 66t-63.5 27 q-45 0 -45 45v272q0 20 13 33.5t32 13.5q37 0 63.5 26.5t26.5 63.5q0 39 -25.5 64.5t-64.5 25.5q-45 0 -45 48v135q0 39 -26.5 65.5t-65.5 26.5q-37 0 -64 -26.5t-27 -65.5v-135q0 -20 -13 -34t-32 -14q-20 0 -33.5 13.5t-13.5 34.5v135q0 39 -26.5 65.5t-63.5 26.5 q-39 0 -65.5 -26.5t-26.5 -65.5v-135q0 -20 -13.5 -34t-31.5 -14q-37 0 -63.5 -26.5t-26.5 -63.5q0 -39 25.5 -64.5t64.5 -25.5q45 0 45 -47v-272q0 -45 -45 -45q-37 0 -63.5 -27t-26.5 -66zM440 500v272q0 20 13.5 33.5t33.5 13.5q45 0 45 -47v-272q0 -45 -45 -45 q-20 0 -33.5 13t-13.5 32z" />
<glyph unicode="$" d="M41 90v272q0 59 32.5 104.5t86.5 61.5q-55 41 -87 105.5t-32 138.5v275q0 59 20.5 111t57.5 94t87 69t107 33v102q0 72 50.5 122t123.5 50q47 0 88 -24.5t64 -65.5l57 -59l2 -2l9 -7q45 -45 49 -114h4q47 0 87 -24.5t62 -65.5l70 -68q49 -49 49 -119v-272 q0 -59 -37 -103.5t-90 -58.5l37 -35q41 -41 65.5 -96t24.5 -117v-272q0 -61 -20.5 -113.5t-57.5 -92.5t-87 -64.5t-107 -30.5v-109q0 -72 -49.5 -120t-116.5 -48q-70 0 -119 50l-70 69q-41 23 -64.5 62t-23.5 90v4q-74 0 -116 47l-72 72q-39 23 -61.5 61.5t-22.5 87.5z M123 90q0 -39 25.5 -64.5t64.5 -25.5h137q45 0 45 -47v-135q0 -39 27 -65.5t65 -26.5q37 0 64 26.5t27 65.5v135q0 20 13 33.5t32 13.5q98 0 162.5 64.5t64.5 162.5v273q0 47 -18.5 88t-49 71.5t-71.5 49t-88 18.5h-273q-45 0 -45 45q0 20 13.5 33.5t31.5 13.5h410 q37 0 63.5 26.5t26.5 63.5v273q0 39 -26.5 65.5t-63.5 26.5h-137q-45 0 -45 45v137q0 37 -27 63.5t-64 26.5q-39 0 -65.5 -26.5t-26.5 -63.5v-137q0 -45 -45 -45q-47 0 -88 -18.5t-71.5 -49t-49 -71.5t-18.5 -88v-275q0 -47 18.5 -88t49 -71.5t71.5 -49t88 -18.5h273 q45 0 45 -45t-45 -45h-410q-37 0 -63.5 -27t-26.5 -66v-272z" />
<glyph unicode="%" d="M41 90v547q0 59 21.5 111.5t58.5 93.5q-37 41 -58.5 93t-21.5 112q0 63 24.5 119.5t66.5 98.5t98.5 66.5t119.5 24.5q74 0 137.5 -33t106.5 -86q16 53 61 86t105 33q47 0 88 -24.5t63 -65.5l58 -60l2 -2l8 -6q49 -49 49 -119v-544q0 -123 -78 -207q35 -41 56.5 -92.5 t21.5 -110.5q0 -66 -23.5 -121t-63.5 -95t-96.5 -63.5t-119.5 -23.5t-117.5 24.5t-95.5 65.5l-35 35q-14 -53 -58 -89t-104 -36q-76 0 -118 47l-72 72q-39 23 -61.5 61.5t-22.5 87.5zM123 90q0 -39 25.5 -64.5t64.5 -25.5t65.5 26.5t26.5 63.5v272q0 20 13.5 34t31.5 14h137 q-43 -33 -67.5 -80.5t-24.5 -102.5q0 -47 18.5 -88t49.5 -71.5t71.5 -49t88.5 -18.5q98 0 162.5 64.5t64.5 162.5q0 66 -36 120t-91 83q57 29 92 82t35 125v545q0 39 -26.5 65.5t-63.5 26.5q-39 0 -65.5 -26.5t-26.5 -65.5v-273q0 -45 -45 -45h-134q41 31 65 78t24 105 q0 47 -18.5 88t-49.5 71.5t-72 49t-88 18.5t-88 -18.5t-71.5 -49t-49 -71.5t-18.5 -88q0 -68 36 -122.5t93 -82.5q-57 -29 -93 -83t-36 -122v-547zM305 1047q0 45 45 45t45 -45q0 -20 -13.5 -34t-31.5 -14q-45 0 -45 48zM578 227q0 45 45 45t45 -45q0 -20 -13.5 -33.5 t-31.5 -13.5q-45 0 -45 47z" />
<glyph unicode="&#x26;" d="M41 227v273q0 70 33 135q-16 33 -24.5 66.5t-8.5 70.5v275q0 59 20.5 111t57.5 94t87 69t107 33v102q0 72 50.5 122t123.5 50q47 0 87 -24.5t63 -65.5l70 -68q45 -45 49 -114h4q47 0 87 -24.5t62 -65.5l70 -68q49 -49 49 -119v-272q0 -41 -19.5 -77t-50.5 -58l21 -21 q49 -49 49 -116q0 -43 -19.5 -79t-50.5 -59l21 -18q49 -49 49 -119v-272q0 -68 -49 -117t-117 -49h-106v-107q0 -72 -49.5 -120t-116.5 -48q-70 0 -119 50l-70 69q-41 23 -64.5 62t-23.5 90v41q-41 20 -73 53l-54 53q-66 41 -105.5 109.5t-39.5 152.5zM123 227 q0 -47 18.5 -88t49 -71.5t71.5 -49t88 -18.5q45 0 45 -47v-135q0 -39 27 -65.5t65 -26.5q37 0 64 26.5t27 65.5v135q0 20 13 33.5t32 13.5h137q37 0 63.5 26.5t26.5 63.5v272q0 39 -26.5 66t-63.5 27h-410q-45 0 -45 45t45 45h410q37 0 63.5 26.5t26.5 65.5q0 37 -26.5 63.5 t-63.5 26.5h-410q-45 0 -45 45q0 20 13.5 33.5t31.5 13.5h410q37 0 63.5 26.5t26.5 63.5v273q0 39 -26.5 65.5t-63.5 26.5h-137q-45 0 -45 45v137q0 37 -27 63.5t-64 26.5q-39 0 -65.5 -26.5t-26.5 -63.5v-137q0 -45 -45 -45q-47 0 -88 -18.5t-71.5 -49t-49 -71.5t-18.5 -88 v-275q0 -78 45 -135q-45 -59 -45 -137v-273z" />
<glyph unicode="'" horiz-adv-x="524" d="M41 1047v135q0 74 50 124t122 50q51 0 90 -24.5t62 -65.5l69 -68q49 -49 49 -119v-135q0 -72 -48 -120t-120 -48q-68 0 -116 49l-70 68q-41 23 -64.5 62.5t-23.5 91.5zM123 1047q0 -39 26.5 -66t63.5 -27q39 0 65.5 27t26.5 66v135q0 39 -26.5 65.5t-65.5 26.5 q-37 0 -63.5 -26.5t-26.5 -65.5v-135z" />
<glyph unicode="(" horiz-adv-x="796" d="M41 362v547q0 184 131 315.5t315 131.5q47 0 87 -24.5t63 -65.5l70 -68q49 -49 49 -119v-272q0 -68 -49.5 -117t-116.5 -49q-45 0 -76 -30.5t-31 -73.5h4q47 0 87 -25t63 -66l70 -67q49 -49 49 -119v-272q0 -68 -49.5 -117t-116.5 -49q-184 0 -311 125l-56 53 q-29 20 -51 45q-131 125 -131 317zM123 362q0 -154 106.5 -258t257.5 -104q37 0 64 26.5t27 63.5v272q0 39 -27 66t-64 27q-76 0 -129 53t-53 129t53.5 129t128.5 53q37 0 64 26.5t27 63.5v273q0 39 -27 65.5t-64 26.5q-152 0 -258 -106.5t-106 -258.5v-547z" />
<glyph unicode=")" horiz-adv-x="796" d="M41 90v272q0 74 50 124.5t124 50.5q41 0 69.5 29.5t28.5 70.5v4q-76 0 -118 47l-72 72q-37 20 -59.5 58t-22.5 91v273q0 74 50 124t124 50q182 0 313 -131q12 -14 24.5 -27.5t22.5 -28.5l52 -51q129 -129 129 -311v-547q0 -182 -129 -311q-127 -127 -310 -127 q-76 0 -122 47l-72 72q-37 23 -59.5 59.5t-22.5 89.5zM123 90q0 -41 26.5 -65.5t65.5 -24.5q152 0 256 104q106 106 107 258v547q0 152 -106.5 258.5t-256.5 106.5q-39 0 -65.5 -26.5t-26.5 -65.5v-273q0 -41 26.5 -65.5t65.5 -24.5q78 0 129 -53t51 -129q0 -37 -14 -71 t-39 -58.5t-57.5 -38.5t-69.5 -14q-39 0 -65.5 -27t-26.5 -66v-272z" />
<glyph unicode="*" horiz-adv-x="1044" d="M41 995v17q0 10 4 22q43 131 168 131q16 0 31.5 -2t25.5 -6v-2l31 -10v37q0 74 50 124t122 50q51 0 91 -24.5t63 -65.5l57 -60l2 -2l8 -6q6 -8 12.5 -15t12.5 -18q4 2 14 2q102 0 148 -82l71 -69q27 -27 43 -72l2 -10q2 -12 4.5 -22.5t2.5 -18.5q0 -121 -117 -160 l-41 -14l26 -35q14 -20 22.5 -45t8.5 -53q0 -84 -67 -135q-20 -14 -46 -22.5t-55 -8.5q-72 0 -114 43l-52 51l-18 -27q-49 -68 -137 -67q-41 0 -90 26q-8 4 -13.5 9.5l-11.5 11.5l-72 72q-4 0 -4 2q-84 59 -84 149q0 57 35 101l-55 55q-78 47 -78 149zM123 995q0 -70 63 -90 l140 -45l-86 -119q-18 -25 -19 -51q0 -49 39 -76q29 -16 51 -16q47 0 76 37l86 121l88 -121q25 -37 72 -37q33 0 55 16q37 27 37 74q0 31 -16 53l-88 121l141 45q63 20 63 88q0 7 -4 27q-20 63 -88 63q-6 0 -26 -4l-142 -47v148q0 39 -26.5 65.5t-65.5 26.5 q-37 0 -63.5 -26.5t-26.5 -65.5v-148l-141 45q-12 4 -29 4q-66 0 -86 -63q-4 -20 -4 -25z" />
<glyph unicode="+" d="M41 637q0 72 50 122t122 50h100v100q0 72 50.5 122t123.5 50q49 0 88 -22.5t62 -61.5l72 -71q43 -47 47 -117h4q47 0 87 -24.5t62 -65.5l68 -66l2 -2q49 -49 49 -116q0 -72 -49 -120t-117 -48h-106v-107q0 -68 -49.5 -117t-116.5 -49q-70 0 -119 49l-70 68 q-41 23 -64.5 62.5t-23.5 88.5v5q-66 0 -114 49l-72 69q-39 23 -62.5 62t-23.5 90zM123 637q0 -39 26.5 -65.5t63.5 -26.5h137q45 0 45 -45v-138q0 -37 27 -63.5t65 -26.5q37 0 64 27t27 63v138q0 45 45 45h137q37 0 63.5 26.5t26.5 65.5q0 37 -26.5 63.5t-63.5 26.5h-137 q-45 0 -45 45v137q0 39 -26 64.5t-65 25.5t-65.5 -26.5t-26.5 -63.5v-137q0 -45 -45 -45h-137q-37 0 -63.5 -26.5t-26.5 -63.5z" />
<glyph unicode="," horiz-adv-x="524" d="M41 -47v137q0 72 50 122t122 50q49 0 89 -21.5t63 -62.5l63 -63l2 -2l8 -7q45 -45 45 -118v-138q0 -68 -48 -116.5t-120 -48.5q-68 0 -116 49l-70 69q-41 23 -64.5 63t-23.5 87zM123 -47q0 -37 26.5 -63.5t63.5 -26.5q39 0 65.5 26.5t26.5 63.5v137q0 41 -26.5 65.5 t-65.5 24.5q-37 0 -63.5 -26.5t-26.5 -63.5v-137z" />
<glyph unicode="-" d="M41 637q0 72 50 122t122 50h547q47 0 87 -24.5t62 -65.5l70 -68q49 -49 49 -116q0 -72 -49 -120t-117 -48h-547q-68 0 -116 49l-70 67q-41 23 -64.5 63t-23.5 91zM123 637q0 -39 26.5 -65.5t63.5 -26.5h547q37 0 63.5 26.5t26.5 65.5q0 37 -26.5 63.5t-63.5 26.5h-547 q-37 0 -63.5 -26.5t-26.5 -63.5z" />
<glyph unicode="." horiz-adv-x="524" d="M41 90q0 72 50 122t122 50q49 0 89 -21.5t63 -60.5l71 -71l2 -3q45 -45 45 -118q0 -68 -48 -117t-120 -49q-76 0 -118 47l-72 72q-39 23 -61.5 61.5t-22.5 87.5zM123 90q0 -39 25.5 -64.5t64.5 -25.5t65.5 26.5t26.5 63.5q0 41 -26.5 65.5t-65.5 24.5q-37 0 -63.5 -26.5 t-26.5 -63.5z" />
<glyph unicode="/" d="M41 90v547q0 63 24.5 119.5t66.5 98.5t98.5 66.5t119.5 24.5h236v236q0 74 50 124t124 50q47 0 87 -24.5t62 -65.5l70 -68q49 -49 49 -119v-544q0 -66 -23.5 -121.5t-63.5 -95t-96.5 -63.5t-119.5 -24h-242v-243q0 -68 -48 -117t-120 -49q-76 0 -118 47l-72 72 q-39 23 -61.5 61.5t-22.5 87.5zM123 90q0 -39 25.5 -64.5t64.5 -25.5t65.5 26.5t26.5 63.5v272q0 20 13.5 34t31.5 14h273q98 0 162.5 64.5t64.5 162.5v545q0 39 -26.5 65.5t-63.5 26.5q-39 0 -65.5 -26.5t-26.5 -65.5v-273q0 -45 -45 -45h-273q-47 0 -88 -18.5t-71.5 -49 t-49 -71.5t-18.5 -88v-547z" />
<glyph unicode="0" d="M41 227v820q0 63 24.5 119.5t66.5 98.5t98.5 66.5t119.5 24.5h273q84 0 152.5 -41t109.5 -107l53 -51q41 -41 65.5 -96t24.5 -117v-819q0 -66 -23.5 -121t-63.5 -95t-96.5 -63.5t-119.5 -23.5h-272q-63 0 -117.5 24.5t-95.5 65.5l-54 53q-66 41 -105.5 109.5t-39.5 152.5 zM123 227q0 -47 18.5 -88t49 -71.5t71.5 -49t88 -18.5h273q98 0 162.5 64.5t64.5 162.5v820q0 47 -18.5 88t-49 71.5t-71.5 49t-88 18.5h-273q-47 0 -88 -18.5t-71.5 -49t-49 -71.5t-18.5 -88v-820zM305 500v272q0 20 13.5 33.5t31.5 13.5h273q45 0 45 -47v-272 q0 -45 -45 -45h-273q-45 0 -45 45zM483 537h103v104h-103v-104z" />
<glyph unicode="1" horiz-adv-x="659" d="M41 909v273q0 74 50 124t122 50q86 0 153.5 -39t108.5 -105l47 -45l8 -8q41 -41 64.5 -95t23.5 -120v-956q0 -72 -47 -119t-118 -47q-76 0 -119 47l-72 72q-39 23 -61.5 61.5t-22.5 87.5v617l-51 51q-41 23 -63.5 61.5t-22.5 89.5zM123 909q0 -39 25.5 -64.5t64.5 -25.5 q20 0 33.5 -13t13.5 -34v-682q0 -39 25.5 -64.5t64.5 -25.5t64.5 25.5t25.5 64.5v957q0 98 -64.5 162.5t-162.5 64.5q-37 0 -63.5 -26.5t-26.5 -65.5v-273z" />
<glyph unicode="2" d="M41 90v410q0 70 28.5 131t80.5 102l-25 25q-39 23 -61.5 62.5t-22.5 88.5v273q0 74 50 124t122 50h410q84 0 152.5 -41t109.5 -107l53 -51q41 -41 65.5 -96t24.5 -117v-274q0 -70 -29.5 -130.5t-78.5 -101.5l49 -51l2 -2l8 -6q49 -49 49 -119v-272q0 -68 -49 -117 t-117 -49h-547q-76 0 -118 47l-72 72q-39 23 -61.5 61.5t-22.5 87.5zM123 90q0 -39 25.5 -64.5t64.5 -25.5h547q37 0 63.5 26.5t26.5 63.5v272q0 39 -26.5 66t-63.5 27h-410q-45 0 -45 45t45 45h273q47 0 88 18.5t71.5 49t49 71.5t18.5 88v275q0 47 -18.5 88t-49 71.5 t-71.5 49t-88 18.5h-410q-37 0 -63.5 -26.5t-26.5 -65.5v-273q0 -39 25.5 -64.5t64.5 -25.5h410q45 0 45 -47q0 -45 -45 -45h-273q-47 0 -88 -18.5t-71.5 -49t-49 -71.5t-18.5 -88v-410z" />
<glyph unicode="3" d="M41 90v272q0 41 18.5 77t46.5 61q-29 23 -47 58.5t-18 78.5q0 41 18.5 76t46.5 57q-66 49 -65 139v273q0 74 50 124t122 50h410q84 0 152.5 -41t109.5 -107l53 -51q41 -41 65.5 -96t24.5 -117v-274q0 -76 -33 -135q33 -63 33 -138v-272q0 -66 -23.5 -121t-63.5 -95 t-96.5 -63.5t-119.5 -23.5h-410q-76 0 -118 47l-72 72q-39 23 -61.5 61.5t-22.5 87.5zM123 90q0 -39 25.5 -64.5t64.5 -25.5h410q98 0 162.5 64.5t64.5 162.5v273q0 78 -45 137q45 57 45 135v275q0 47 -18.5 88t-49 71.5t-71.5 49t-88 18.5h-410q-37 0 -63.5 -26.5 t-26.5 -65.5v-273q0 -39 25.5 -64.5t64.5 -25.5h410q45 0 45 -47q0 -45 -45 -45h-410q-37 0 -63.5 -26.5t-26.5 -63.5q0 -39 26.5 -65.5t63.5 -26.5h410q45 0 45 -45t-45 -45h-410q-37 0 -63.5 -27t-26.5 -66v-272z" />
<glyph unicode="4" d="M41 637v545q0 74 50 124t122 50q51 0 90 -24.5t62 -65.5l69 -68q49 -49 49 -119v-133h103v236q0 74 50 124t124 50q47 0 87 -24.5t62 -65.5l70 -68q49 -49 49 -119v-1091q0 -68 -49 -117t-117 -49q-76 0 -123 47l-71 72q-37 23 -59.5 59.5t-22.5 89.5v141h-133 q-63 0 -117.5 25t-95.5 66l-54 51q-66 41 -105.5 110.5t-39.5 153.5zM123 637q0 -47 18.5 -88t49 -72t71.5 -49t88 -18h273q45 0 45 -48v-272q0 -41 26.5 -65.5t65.5 -24.5q37 0 63.5 26.5t26.5 63.5v1092q0 39 -26.5 65.5t-63.5 26.5q-39 0 -65.5 -26.5t-26.5 -65.5v-273 q0 -45 -45 -45h-273q-45 0 -45 45v273q0 39 -26.5 65.5t-65.5 26.5q-37 0 -63.5 -26.5t-26.5 -65.5v-545z" />
<glyph unicode="5" d="M41 90v272q0 59 32.5 104.5t86.5 61.5q-55 41 -87 105.5t-32 138.5v410q0 74 50 124t122 50h547q47 0 87 -24.5t62 -65.5l68 -66h-2l4 -2q49 -49 49 -119v-272q0 -59 -37 -103.5t-90 -58.5l37 -35q41 -41 65.5 -96t24.5 -117v-272q0 -66 -23.5 -121t-63.5 -95 t-96.5 -63.5t-119.5 -23.5h-410q-76 0 -118 47l-72 72q-39 23 -61.5 61.5t-22.5 87.5zM123 90q0 -39 25.5 -64.5t64.5 -25.5h410q98 0 162.5 64.5t64.5 162.5v273q0 47 -18.5 88t-49 71.5t-71.5 49t-88 18.5h-273q-45 0 -45 45q0 20 13.5 33.5t31.5 13.5h410q37 0 63.5 26.5 t26.5 63.5v273q0 39 -26.5 65.5t-63.5 26.5h-547q-37 0 -63.5 -26.5t-26.5 -65.5v-410q0 -47 18.5 -88t49 -71.5t71.5 -49t88 -18.5h273q45 0 45 -45t-45 -45h-410q-37 0 -63.5 -27t-26.5 -66v-272z" />
<glyph unicode="6" d="M41 227v820q0 63 24.5 119.5t66.5 98.5t98.5 66.5t119.5 24.5h410q47 0 87 -24.5t62 -65.5l68 -66h-2l4 -2q49 -49 49 -119v-272q0 -59 -37 -103.5t-90 -58.5l37 -35q41 -41 65.5 -96t24.5 -117v-272q0 -66 -23.5 -121t-63.5 -95t-96.5 -63.5t-119.5 -23.5h-272 q-63 0 -117.5 24.5t-95.5 65.5l-54 53q-66 41 -105.5 109.5t-39.5 152.5zM123 227q0 -47 18.5 -88t49 -71.5t71.5 -49t88 -18.5h273q98 0 162.5 64.5t64.5 162.5v273q0 47 -18.5 88t-49 71.5t-71.5 49t-88 18.5h-273q-45 0 -45 45q0 20 13.5 33.5t31.5 13.5h410 q37 0 63.5 26.5t26.5 63.5v273q0 39 -26.5 65.5t-63.5 26.5h-410q-47 0 -88 -18.5t-71.5 -49t-49 -71.5t-18.5 -88v-820zM305 500q0 45 45 45h273q45 0 45 -45t-45 -45h-273q-45 0 -45 45z" />
<glyph unicode="7" d="M41 909v273q0 74 50 124t122 50h410q84 0 152.5 -41t109.5 -107l53 -51q41 -41 65.5 -96t24.5 -117v-956q0 -68 -49 -117t-117 -49q-76 0 -123 47l-71 72q-37 23 -59.5 59.5t-22.5 89.5v551h-271q-76 0 -118 47l-72 72q-39 23 -61.5 61.5t-22.5 87.5zM123 909 q0 -39 25.5 -64.5t64.5 -25.5h410q45 0 45 -47v-682q0 -41 26.5 -65.5t65.5 -24.5q37 0 63.5 26.5t26.5 63.5v957q0 47 -18.5 88t-49 71.5t-71.5 49t-88 18.5h-410q-37 0 -63.5 -26.5t-26.5 -65.5v-273z" />
<glyph unicode="8" d="M41 227v273q0 70 33 135q-16 33 -24.5 66.5t-8.5 70.5v275q0 63 24.5 119.5t66.5 98.5t98.5 66.5t119.5 24.5h273q84 0 152.5 -41t109.5 -107l53 -51q41 -41 65.5 -96t24.5 -117v-274q0 -76 -33 -135q33 -63 33 -138v-272q0 -66 -23.5 -121t-63.5 -95t-96.5 -63.5 t-119.5 -23.5h-272q-63 0 -117.5 24.5t-95.5 65.5l-54 53q-66 41 -105.5 109.5t-39.5 152.5zM123 227q0 -47 18.5 -88t49 -71.5t71.5 -49t88 -18.5h273q98 0 162.5 64.5t64.5 162.5v273q0 78 -45 137q45 57 45 135v275q0 47 -18.5 88t-49 71.5t-71.5 49t-88 18.5h-273 q-47 0 -88 -18.5t-71.5 -49t-49 -71.5t-18.5 -88v-275q0 -78 45 -135q-45 -59 -45 -137v-273zM305 500q0 45 45 45h273q45 0 45 -45t-45 -45h-273q-45 0 -45 45zM305 772q0 20 13.5 33.5t31.5 13.5h273q45 0 45 -47q0 -45 -45 -45h-273q-45 0 -45 45z" />
<glyph unicode="9" d="M41 772v275q0 63 24.5 119.5t66.5 98.5t98.5 66.5t119.5 24.5h273q84 0 152.5 -41t109.5 -107l53 -51q41 -41 65.5 -96t24.5 -117v-956q0 -68 -49 -117t-117 -49q-76 0 -123 47l-71 72q-37 23 -59.5 59.5t-22.5 89.5v277h-133q-63 0 -117.5 24.5t-95.5 65.5l-54 51 q-66 41 -105.5 110.5t-39.5 153.5zM123 772q0 -47 18.5 -88t49 -71.5t71.5 -49t88 -18.5h273q45 0 45 -45v-410q0 -41 26.5 -65.5t65.5 -24.5q37 0 63.5 26.5t26.5 63.5v957q0 47 -18.5 88t-49 71.5t-71.5 49t-88 18.5h-273q-47 0 -88 -18.5t-71.5 -49t-49 -71.5t-18.5 -88 v-275zM305 772q0 20 13.5 33.5t31.5 13.5h273q45 0 45 -47q0 -45 -45 -45h-273q-45 0 -45 45z" />
<glyph unicode=":" horiz-adv-x="522" d="M41 90q0 74 49 123t123 49q49 0 88 -22.5t61 -61.5l72 -72q23 -23 35 -53t12 -65q0 -72 -47 -119t-119 -47q-76 0 -118 47l-72 72q-39 23 -61.5 61.5t-22.5 87.5zM41 1182q0 74 46 124t126 50q47 0 87 -24.5t62 -65.5l70 -68q49 -49 49 -119q0 -72 -47 -119t-119 -47 q-68 0 -116 50l-70 67q-41 23 -64.5 63t-23.5 89zM123 90q0 -39 25.5 -64.5t64.5 -25.5t64.5 25.5t25.5 64.5t-25.5 64.5t-64.5 25.5t-64.5 -25.5t-25.5 -64.5zM123 1182q0 -37 26.5 -63.5t63.5 -26.5q39 0 64.5 25.5t25.5 64.5t-26.5 65.5t-63.5 26.5q-41 0 -65.5 -26.5 t-24.5 -65.5z" />
<glyph unicode=";" horiz-adv-x="524" d="M41 -47v137q0 72 50 122t122 50q49 0 89 -21.5t63 -60.5v-2l63 -63l2 -2l8 -7q45 -45 45 -118v-138q0 -68 -48 -116.5t-120 -48.5q-68 0 -116 49l-70 69q-41 23 -64.5 63t-23.5 87zM41 1182q0 74 50 124t122 50q51 0 90 -24.5t62 -65.5l69 -68q49 -49 49 -119 q0 -68 -48 -117t-120 -49q-68 0 -116 50l-70 67q-41 23 -64.5 63t-23.5 89zM123 -47q0 -37 26.5 -63.5t63.5 -26.5q39 0 65.5 26.5t26.5 63.5v137q0 41 -26.5 65.5t-65.5 24.5q-37 0 -63.5 -26.5t-26.5 -63.5v-137zM123 1182q0 -37 26.5 -63.5t63.5 -26.5q39 0 65.5 26.5 t26.5 63.5q0 39 -26.5 65.5t-65.5 26.5q-37 0 -63.5 -26.5t-26.5 -65.5z" />
<glyph unicode="&#x3c;" horiz-adv-x="798" d="M41 637q0 63 49 119l275 274q29 29 57.5 40t64.5 11q49 0 89 -24.5t63 -63.5l59 -61l2 -2l9 -6q49 -49 49 -117q0 -74 -53 -121h-3l-147 -147l53 -54q10 -10 18.5 -21t14.5 -22l66 -63q51 -51 51 -119q0 -72 -51 -119q-41 -47 -117 -47q-70 0 -119 49l-70 68 q-18 12 -36 31l-275 272q-49 55 -49 123zM123 637q0 -37 27 -66l272 -272q27 -27 65 -27q39 0 64 27q29 25 29 63q0 37 -29 66l-209 209l209 209q29 25 29 63q0 35 -27 62.5t-66 27.5t-65 -26l-272 -273q-27 -29 -27 -63z" />
<glyph unicode="=" d="M41 500q0 41 18.5 76.5t49.5 58.5q-31 25 -49.5 60.5t-18.5 76.5q0 74 50 124t122 50h547q47 0 88 -24.5t63 -65.5l58 -59l2 -2l8 -7q49 -49 49 -118q0 -41 -18.5 -76t-48.5 -57l20 -21q23 -23 35 -53.5t12 -65.5q0 -68 -49 -117t-117 -49h-547q-76 0 -118 48l-72 71 q-39 23 -61.5 62t-22.5 88zM123 500q0 -39 25.5 -64.5t64.5 -25.5h547q37 0 63.5 26.5t26.5 63.5q0 39 -25.5 64.5t-64.5 25.5h-547q-37 0 -63.5 -26.5t-26.5 -63.5zM123 772q0 -37 26.5 -63.5t63.5 -26.5h547q37 0 63.5 26.5t26.5 63.5q0 39 -26.5 65.5t-63.5 26.5h-547 q-37 0 -63.5 -26.5t-26.5 -65.5z" />
<glyph unicode="&#x3e;" horiz-adv-x="798" d="M41 362q0 66 49 121l154 154l-152 151q-29 29 -40 57.5t-11 63.5q0 31 13.5 61.5t37 55.5t55 40t68.5 15q78 0 127 -55l266 -268q10 -10 18.5 -21.5t14.5 -21.5l66 -64q51 -51 51 -116q0 -68 -51 -119l-269 -271q-45 -51 -121 -51q-70 0 -118 49l-70 68 q-41 23 -64.5 62.5t-23.5 88.5zM123 362q0 -37 26.5 -63.5t65.5 -26.5t64 27l272 272q29 29 29 66q0 35 -29 63l-272 273q-25 27 -64 26q-39 0 -65.5 -28.5t-26.5 -61.5q0 -37 27 -63l208 -209l-208 -209q-27 -29 -27 -66z" />
<glyph unicode="?" d="M41 909v273q0 74 50 124t122 50h410q84 0 152.5 -41t109.5 -107l53 -51q41 -41 65.5 -96t24.5 -117v-274q0 -59 -21.5 -111.5t-58.5 -92.5t-86 -66.5t-106 -32.5v-107q0 -41 -18.5 -75.5t-49.5 -57.5l21 -21q23 -23 35 -53t12 -65q0 -68 -49.5 -117t-116.5 -49 q-76 0 -123 47l-72 72q-37 23 -59.5 59.5t-22.5 89.5q0 41 18.5 77t49.5 58q-31 25 -49.5 61t-18.5 76v138q0 78 33 141h-31q-76 0 -118 47l-72 72q-39 23 -61.5 61.5t-22.5 87.5zM123 909q0 -39 25.5 -64.5t64.5 -25.5h410q45 0 45 -47q0 -45 -45 -45q-47 0 -88 -18.5 t-72 -49t-49.5 -71.5t-18.5 -88v-138q0 -37 27 -63.5t65 -26.5q37 0 64 27t27 63v138q0 45 45 45q47 0 88 18.5t71.5 49t49 71.5t18.5 88v275q0 47 -18.5 88t-49 71.5t-71.5 49t-88 18.5h-410q-37 0 -63.5 -26.5t-26.5 -65.5v-273zM395 90q0 -41 27 -65.5t65 -24.5 q37 0 64 26.5t27 63.5q0 39 -26 64.5t-65 25.5t-65.5 -26.5t-26.5 -63.5z" />
<glyph unicode="@" horiz-adv-x="1343" d="M41 90v957q0 127 90 217q92 92 221 92h545q84 0 152.5 -41t109.5 -107l53 -51q41 -41 66 -96t25 -117v-819q0 -66 -24 -121t-63.5 -95t-96 -63.5t-120.5 -23.5h-272q-63 0 -117.5 24.5t-95.5 65.5l-37 37q-14 -53 -58 -90t-102 -37q-76 0 -122 47l-72 72 q-37 23 -59.5 59.5t-22.5 89.5zM123 90q0 -41 26.5 -65.5t65.5 -24.5q37 0 63.5 26.5t26.5 63.5v682q0 20 13.5 33.5t33.5 13.5h545q45 0 45 -47q0 -45 -45 -45h-272q-47 0 -88 -18.5t-72 -49t-49.5 -71.5t-18.5 -88v-273q0 -47 18.5 -88t49.5 -71.5t72 -49t88 -18.5h272 q98 0 162.5 64.5t64.5 162.5v820q0 47 -18.5 88t-49 71.5t-71.5 49t-88 18.5h-545q-96 0 -164 -68q-66 -66 -65 -159v-957zM580 500q0 45 45 45h272q45 0 45 -45t-45 -45h-272q-45 0 -45 45z" />
<glyph unicode="A" d="M41 90v957q0 63 24.5 119.5t66.5 98.5t98.5 66.5t119.5 24.5h273q84 0 152.5 -41t109.5 -107l53 -51q41 -41 65.5 -96t24.5 -117v-956q0 -68 -49 -117t-117 -49q-76 0 -123 47l-71 72q-37 23 -59.5 59.5t-22.5 89.5v277h-103v-379q0 -68 -48 -117t-120 -49q-76 0 -118 47 l-72 72q-39 23 -61.5 61.5t-22.5 87.5zM123 90q0 -39 25.5 -64.5t64.5 -25.5t65.5 26.5t26.5 63.5v410q0 45 45 45h273q45 0 45 -45v-410q0 -41 26.5 -65.5t65.5 -24.5q37 0 63.5 26.5t26.5 63.5v957q0 47 -18.5 88t-49 71.5t-71.5 49t-88 18.5h-273q-47 0 -88 -18.5 t-71.5 -49t-49 -71.5t-18.5 -88v-957zM305 772q0 20 13.5 33.5t31.5 13.5h273q45 0 45 -47q0 -45 -45 -45h-273q-45 0 -45 45z" />
<glyph unicode="B" d="M41 90v1092q0 74 50 124t122 50h410q84 0 152.5 -41t109.5 -107l53 -51q41 -41 65.5 -96t24.5 -117v-274q0 -76 -33 -135q33 -63 33 -138v-272q0 -66 -23.5 -121t-63.5 -95t-96.5 -63.5t-119.5 -23.5h-410q-76 0 -118 47l-72 72q-39 23 -61.5 61.5t-22.5 87.5zM123 90 q0 -39 25.5 -64.5t64.5 -25.5h410q98 0 162.5 64.5t64.5 162.5v273q0 78 -45 137q45 57 45 135v275q0 47 -18.5 88t-49 71.5t-71.5 49t-88 18.5h-410q-37 0 -63.5 -26.5t-26.5 -65.5v-1092zM305 500q0 45 45 45h273q45 0 45 -45t-45 -45h-273q-45 0 -45 45zM305 772 q0 20 13.5 33.5t31.5 13.5h273q45 0 45 -47q0 -45 -45 -45h-273q-45 0 -45 45z" />
<glyph unicode="C" d="M41 227v820q0 63 24.5 119.5t66.5 98.5t98.5 66.5t119.5 24.5h410q47 0 88 -24.5t63 -65.5l58 -60l2 -2l8 -6q49 -49 49 -119v-272q0 -68 -49 -117t-117 -49h-379v-104h277q47 0 88 -25t63 -66l58 -59l2 -2l8 -6q49 -49 49 -119v-272q0 -68 -49 -117t-117 -49h-409 q-63 0 -117.5 24.5t-95.5 65.5l-54 53q-66 41 -105.5 109.5t-39.5 152.5zM123 227q0 -47 18.5 -88t49 -71.5t71.5 -49t88 -18.5h410q37 0 63.5 26.5t26.5 63.5v272q0 39 -26.5 66t-63.5 27h-410q-45 0 -45 45v272q0 20 13.5 33.5t31.5 13.5h410q37 0 63.5 26.5t26.5 63.5 v273q0 39 -26.5 65.5t-63.5 26.5h-410q-47 0 -88 -18.5t-71.5 -49t-49 -71.5t-18.5 -88v-820z" />
<glyph unicode="D" d="M41 90v1092q0 74 50 124t122 50h410q84 0 152.5 -41t109.5 -107l53 -51q41 -41 65.5 -96t24.5 -117v-819q0 -66 -23.5 -121t-63.5 -95t-96.5 -63.5t-119.5 -23.5h-410q-76 0 -118 47l-72 72q-39 23 -61.5 61.5t-22.5 87.5zM123 90q0 -39 25.5 -64.5t64.5 -25.5h410 q98 0 162.5 64.5t64.5 162.5v820q0 47 -18.5 88t-49 71.5t-71.5 49t-88 18.5h-410q-37 0 -63.5 -26.5t-26.5 -65.5v-1092zM305 500v272q0 20 13.5 33.5t31.5 13.5h273q45 0 45 -47v-272q0 -45 -45 -45h-273q-45 0 -45 45zM483 537h103v104h-103v-104z" />
<glyph unicode="E" d="M41 90v1092q0 74 50 124t122 50h547q47 0 87 -24.5t62 -65.5l70 -68q49 -49 49 -119v-272q0 -41 -19.5 -77t-50.5 -58l21 -21q49 -49 49 -116q0 -43 -19.5 -79t-50.5 -59l13 -12l8 -6q49 -49 49 -119v-272q0 -68 -49 -117t-117 -49h-547q-76 0 -118 47l-72 72 q-39 23 -61.5 61.5t-22.5 87.5zM123 90q0 -39 25.5 -64.5t64.5 -25.5h547q37 0 63.5 26.5t26.5 63.5v272q0 39 -26.5 66t-63.5 27h-410q-45 0 -45 45t45 45h410q37 0 63.5 26.5t26.5 65.5q0 37 -26.5 63.5t-63.5 26.5h-410q-45 0 -45 45q0 20 13.5 33.5t31.5 13.5h410 q37 0 63.5 26.5t26.5 63.5v273q0 39 -26.5 65.5t-63.5 26.5h-547q-37 0 -63.5 -26.5t-26.5 -65.5v-1092z" />
<glyph unicode="F" d="M41 90v1092q0 74 50 124t122 50h547q47 0 88 -24.5t63 -65.5l58 -60l2 -2l8 -6q49 -49 49 -119v-272q0 -41 -19.5 -77t-50.5 -58l21 -21q49 -49 49 -116q0 -72 -49 -120t-117 -48h-379v-379q0 -68 -48 -117t-120 -49q-76 0 -118 47l-72 72q-39 23 -61.5 61.5t-22.5 87.5z M123 90q0 -39 25.5 -64.5t64.5 -25.5t65.5 26.5t26.5 63.5v410q0 45 45 45h410q37 0 63.5 26.5t26.5 65.5q0 37 -26.5 63.5t-63.5 26.5h-410q-45 0 -45 45q0 20 13.5 33.5t31.5 13.5h410q37 0 63.5 26.5t26.5 63.5v273q0 39 -26.5 65.5t-63.5 26.5h-547q-37 0 -63.5 -26.5 t-26.5 -65.5v-1092z" />
<glyph unicode="G" d="M41 227v820q0 63 24.5 119.5t66.5 98.5t98.5 66.5t119.5 24.5h410q47 0 88 -24.5t63 -65.5l58 -60l2 -2l8 -6q49 -49 49 -119v-272q0 -59 -37 -103.5t-90 -58.5l37 -35q41 -41 65.5 -96t24.5 -117v-272q0 -66 -23.5 -121t-63.5 -95t-96.5 -63.5t-119.5 -23.5h-272 q-63 0 -117.5 24.5t-95.5 65.5l-54 53q-66 41 -105.5 109.5t-39.5 152.5zM123 227q0 -47 18.5 -88t49 -71.5t71.5 -49t88 -18.5h273q98 0 162.5 64.5t64.5 162.5v273q0 47 -18.5 88t-49 71.5t-71.5 49t-88 18.5h-136q-39 0 -65.5 -26.5t-26.5 -63.5q0 -39 27 -65.5t65 -26.5 h136q45 0 45 -45t-45 -45h-273q-45 0 -45 45v272q0 20 13.5 33.5t31.5 13.5h410q37 0 63.5 26.5t26.5 63.5v273q0 39 -26.5 65.5t-63.5 26.5h-410q-47 0 -88 -18.5t-71.5 -49t-49 -71.5t-18.5 -88v-820z" />
<glyph unicode="H" d="M41 90v1092q0 74 50 124t122 50q51 0 90 -24.5t62 -65.5l67 -66h-2l4 -2q49 -49 49 -119v-133h103v236q0 74 50 124t124 50q47 0 88 -24.5t63 -65.5l58 -60l2 -2l8 -6q49 -49 49 -119v-1091q0 -68 -49 -117t-117 -49q-76 0 -123 47l-71 72q-37 23 -59.5 59.5t-22.5 89.5 v141h-103v-243q0 -68 -48 -117t-120 -49q-76 0 -118 47l-72 72q-39 23 -61.5 61.5t-22.5 87.5zM123 90q0 -39 25.5 -64.5t64.5 -25.5t65.5 26.5t26.5 63.5v272q0 20 13.5 34t31.5 14h273q45 0 45 -48v-272q0 -41 26.5 -65.5t65.5 -24.5q37 0 63.5 26.5t26.5 63.5v1092 q0 39 -26.5 65.5t-63.5 26.5q-39 0 -65.5 -26.5t-26.5 -65.5v-273q0 -45 -45 -45h-273q-45 0 -45 45v273q0 39 -26.5 65.5t-65.5 26.5q-37 0 -63.5 -26.5t-26.5 -65.5v-1092z" />
<glyph unicode="I" d="M41 90v272q0 74 50 124.5t122 50.5h100v104q-74 0 -116 47l-72 72q-39 23 -61.5 61.5t-22.5 87.5v273q0 74 50 124t122 50h547q47 0 87 -24.5t62 -65.5l70 -68q49 -49 49 -119v-272q0 -68 -49 -117t-117 -49h-106v-104h4q47 0 88 -25t63 -66l58 -59l2 -2l8 -6 q49 -49 49 -119v-272q0 -68 -49 -117t-117 -49h-547q-76 0 -118 47l-72 72q-39 23 -61.5 61.5t-22.5 87.5zM123 90q0 -39 25.5 -64.5t64.5 -25.5h547q37 0 63.5 26.5t26.5 63.5v272q0 39 -26.5 66t-63.5 27h-137q-45 0 -45 45v272q0 20 13 33.5t32 13.5h137q37 0 63.5 26.5 t26.5 63.5v273q0 39 -26.5 65.5t-63.5 26.5h-547q-37 0 -63.5 -26.5t-26.5 -65.5v-273q0 -39 25.5 -64.5t64.5 -25.5h137q45 0 45 -47v-272q0 -45 -45 -45h-137q-37 0 -63.5 -27t-26.5 -66v-272z" />
<glyph unicode="J" d="M41 90v272q0 74 50 124.5t122 50.5h373v645q0 74 50 124t124 50q47 0 88 -24.5t63 -65.5l58 -60l2 -2l8 -6q49 -49 49 -119v-954q0 -66 -23.5 -121t-63.5 -95t-96.5 -63.5t-119.5 -23.5h-410q-76 0 -118 47l-72 72q-39 23 -61.5 61.5t-22.5 87.5zM123 90 q0 -39 25.5 -64.5t64.5 -25.5h410q98 0 162.5 64.5t64.5 162.5v955q0 39 -26.5 65.5t-63.5 26.5q-39 0 -65.5 -26.5t-26.5 -65.5v-682q0 -45 -45 -45h-410q-37 0 -63.5 -27t-26.5 -66v-272z" />
<glyph unicode="K" d="M41 90v1092q0 74 50 124t122 50q51 0 91 -24.5t63 -65.5l57 -60l2 -2v2l18 19q131 131 316 131q47 0 88 -24.5t63 -65.5l58 -60l2 -2l8 -6q49 -49 49 -119v-272q0 -59 -37 -103.5t-90 -58.5l37 -35q41 -41 65.5 -96t24.5 -117v-409q0 -68 -49 -117t-117 -49 q-76 0 -123 47l-71 72q-37 23 -59.5 59.5t-22.5 89.5v277h-103v-379q0 -68 -48 -117t-120 -49q-76 0 -118 47l-72 72q-39 23 -61.5 61.5t-22.5 87.5zM123 90q0 -39 25.5 -64.5t64.5 -25.5t65.5 26.5t26.5 63.5v410q0 45 45 45h273q45 0 45 -45v-410q0 -41 26.5 -65.5 t65.5 -24.5q37 0 63.5 26.5t26.5 63.5v410q0 47 -18.5 88t-49 71.5t-71.5 49t-88 18.5l-19 4q51 88 156 88q37 0 63.5 26.5t26.5 63.5v273q0 39 -26.5 65.5t-63.5 26.5q-152 0 -258.5 -106.5t-106.5 -258.5v-137q0 -45 -45 -45t-45 45v410q0 39 -26.5 65.5t-65.5 26.5 q-37 0 -63.5 -26.5t-26.5 -65.5v-1092zM424 1204v2h2z" />
<glyph unicode="L" d="M41 90v1092q0 74 50 124t122 50q51 0 91 -24.5t63 -65.5l57 -60l2 -2l8 -6q49 -49 49 -119v-542h277q47 0 88 -25t63 -66l58 -59l2 -2l8 -6q49 -49 49 -119v-272q0 -68 -49 -117t-117 -49h-547q-76 0 -118 47l-72 72q-39 23 -61.5 61.5t-22.5 87.5zM123 90 q0 -39 25.5 -64.5t64.5 -25.5h547q37 0 63.5 26.5t26.5 63.5v272q0 39 -26.5 66t-63.5 27h-410q-45 0 -45 45v682q0 39 -26.5 65.5t-65.5 26.5q-37 0 -63.5 -26.5t-26.5 -65.5v-1092z" />
<glyph unicode="M" horiz-adv-x="1343" d="M41 90v957q0 127 90 217q92 92 221 92h135q66 0 136 -35q70 35 139 35h135q84 0 152.5 -41t109.5 -107l53 -51q41 -41 66 -96t25 -117v-956q0 -68 -49.5 -117t-116.5 -49q-76 0 -123 47l-72 72q-27 14 -49 43q0 -33 -14.5 -63t-37 -51.5t-52 -34.5t-62.5 -13 q-76 0 -123 47l-72 72q-27 14 -49 43q0 -33 -14 -63t-36.5 -51.5t-52.5 -34.5t-63 -13q-76 0 -122 47l-72 72q-37 23 -59.5 59.5t-22.5 89.5zM123 90q0 -41 26.5 -65.5t65.5 -24.5q37 0 63.5 26.5t26.5 63.5v682q0 20 13.5 33.5t33.5 13.5h135q45 0 45 -47v-682 q0 -41 27 -65.5t66 -24.5q37 0 63.5 26.5t26.5 63.5v682q0 20 13 33.5t34 13.5h135q45 0 45 -47v-682q0 -41 26.5 -65.5t65.5 -24.5q37 0 63.5 26.5t26.5 63.5v957q0 47 -18.5 88t-49 71.5t-71.5 49t-88 18.5h-135q-74 0 -137 -47q-66 47 -138 47h-135q-96 0 -164 -68 q-66 -66 -65 -159v-957z" />
<glyph unicode="N" d="M41 90v957q0 63 24.5 119.5t66.5 98.5t98.5 66.5t119.5 24.5h273q84 0 152.5 -41t109.5 -107l53 -51q41 -41 65.5 -96t24.5 -117v-956q0 -68 -49 -117t-117 -49q-76 0 -123 47l-71 72q-37 23 -59.5 59.5t-22.5 89.5v551h-103v-653q0 -68 -48 -117t-120 -49q-76 0 -118 47 l-72 72q-39 23 -61.5 61.5t-22.5 87.5zM123 90q0 -39 25.5 -64.5t64.5 -25.5t65.5 26.5t26.5 63.5v682q0 20 13.5 33.5t31.5 13.5h273q45 0 45 -47v-682q0 -41 26.5 -65.5t65.5 -24.5q37 0 63.5 26.5t26.5 63.5v957q0 47 -18.5 88t-49 71.5t-71.5 49t-88 18.5h-273 q-47 0 -88 -18.5t-71.5 -49t-49 -71.5t-18.5 -88v-957z" />
<glyph unicode="O" d="M41 227v820q0 63 24.5 119.5t66.5 98.5t98.5 66.5t119.5 24.5h273q84 0 152.5 -41t109.5 -107l53 -51q41 -41 65.5 -96t24.5 -117v-819q0 -66 -23.5 -121t-63.5 -95t-96.5 -63.5t-119.5 -23.5h-272q-63 0 -117.5 24.5t-95.5 65.5l-54 53q-66 41 -105.5 109.5t-39.5 152.5 zM123 227q0 -47 18.5 -88t49 -71.5t71.5 -49t88 -18.5h273q98 0 162.5 64.5t64.5 162.5v820q0 47 -18.5 88t-49 71.5t-71.5 49t-88 18.5h-273q-47 0 -88 -18.5t-71.5 -49t-49 -71.5t-18.5 -88v-820zM305 500v272q0 20 13.5 33.5t31.5 13.5h273q45 0 45 -47v-272 q0 -45 -45 -45h-273q-45 0 -45 45zM483 537h103v104h-103v-104z" />
<glyph unicode="P" d="M41 90v1092q0 74 50 124t122 50h410q84 0 152.5 -41t109.5 -107l53 -51q41 -41 65.5 -96t24.5 -117v-274q0 -61 -23.5 -116.5t-65.5 -97.5t-97.5 -65.5t-116.5 -23.5h-242v-379q0 -68 -48 -117t-120 -49q-76 0 -118 47l-72 72q-39 23 -61.5 61.5t-22.5 87.5zM123 90 q0 -39 25.5 -64.5t64.5 -25.5t65.5 26.5t26.5 63.5v410q0 45 45 45h273q47 0 88 18.5t71.5 49t49 71.5t18.5 88v275q0 47 -18.5 88t-49 71.5t-71.5 49t-88 18.5h-410q-37 0 -63.5 -26.5t-26.5 -65.5v-1092zM305 772q0 20 13.5 33.5t31.5 13.5h273q45 0 45 -47q0 -45 -45 -45 h-273q-45 0 -45 45z" />
<glyph unicode="Q" d="M41 227v820q0 63 24.5 119.5t66.5 98.5t98.5 66.5t119.5 24.5h273q84 0 152.5 -41t109.5 -107l53 -51q41 -41 65.5 -96t24.5 -117v-819q0 -61 -20.5 -113.5t-57.5 -92.5t-87 -64.5t-107 -30.5v-109q0 -72 -49.5 -120t-116.5 -48q-70 0 -119 50l-70 69q-41 23 -64.5 62 t-23.5 90v41q-41 20 -73 53l-54 53q-66 41 -105.5 109.5t-39.5 152.5zM123 227q0 -47 18.5 -88t49 -71.5t71.5 -49t88 -18.5q45 0 45 -47v-135q0 -39 27 -65.5t65 -26.5q37 0 64 26.5t27 65.5v135q0 20 13 33.5t32 13.5q98 0 162.5 64.5t64.5 162.5v820q0 47 -18.5 88 t-49 71.5t-71.5 49t-88 18.5h-273q-47 0 -88 -18.5t-71.5 -49t-49 -71.5t-18.5 -88v-820zM305 500v272q0 20 13.5 33.5t31.5 13.5h273q45 0 45 -47v-272q0 -45 -45 -45h-273q-45 0 -45 45zM483 537h103v104h-103v-104z" />
<glyph unicode="R" d="M41 90v1092q0 74 50 124t122 50h410q84 0 152.5 -41t109.5 -107l53 -51q41 -41 65.5 -96t24.5 -117v-274q0 -70 -29.5 -130.5t-78.5 -101.5l49 -51l2 -2l8 -6q49 -49 49 -119v-272q0 -68 -49 -117t-117 -49q-184 0 -311 125l-55 53q-8 8 -13 10v-22q0 -68 -48 -117 t-120 -49q-76 0 -118 47l-72 72q-39 23 -61.5 61.5t-22.5 87.5zM123 90q0 -39 25.5 -64.5t64.5 -25.5t65.5 26.5t26.5 63.5v410q0 45 45 45t45 -45v-138q0 -154 106.5 -258t258.5 -104q37 0 63.5 26.5t26.5 63.5v272q0 39 -26.5 66t-63.5 27q-100 0 -128 43t-9 47 q47 0 88 18.5t71.5 49t49 71.5t18.5 88v275q0 47 -18.5 88t-49 71.5t-71.5 49t-88 18.5h-410q-37 0 -63.5 -26.5t-26.5 -65.5v-1092zM305 772q0 20 13.5 33.5t31.5 13.5h273q45 0 45 -47q0 -45 -45 -45h-273q-45 0 -45 45z" />
<glyph unicode="S" d="M41 90v272q0 59 32.5 104.5t86.5 61.5q-55 41 -87 105.5t-32 138.5v275q0 63 24.5 119.5t66.5 98.5t98.5 66.5t119.5 24.5h410q47 0 87 -24.5t62 -65.5l68 -66h-2l4 -2q49 -49 49 -119v-272q0 -59 -37 -103.5t-90 -58.5l37 -35q41 -41 65.5 -96t24.5 -117v-272 q0 -66 -23.5 -121t-63.5 -95t-96.5 -63.5t-119.5 -23.5h-410q-76 0 -118 47l-72 72q-39 23 -61.5 61.5t-22.5 87.5zM123 90q0 -39 25.5 -64.5t64.5 -25.5h410q98 0 162.5 64.5t64.5 162.5v273q0 47 -18.5 88t-49 71.5t-71.5 49t-88 18.5h-273q-45 0 -45 45q0 20 13.5 33.5 t31.5 13.5h410q37 0 63.5 26.5t26.5 63.5v273q0 39 -26.5 65.5t-63.5 26.5h-410q-47 0 -88 -18.5t-71.5 -49t-49 -71.5t-18.5 -88v-275q0 -47 18.5 -88t49 -71.5t71.5 -49t88 -18.5h273q45 0 45 -45t-45 -45h-410q-37 0 -63.5 -27t-26.5 -66v-272z" />
<glyph unicode="T" d="M41 909v273q0 74 50 124t122 50h547q47 0 87 -24.5t62 -65.5l70 -68q49 -49 49 -119v-272q0 -68 -49 -117t-117 -49h-106v-653q0 -68 -49.5 -117t-116.5 -49q-76 0 -123 47l-72 72q-37 23 -59.5 59.5t-22.5 89.5v551q-74 0 -116 47l-72 72q-39 23 -61.5 61.5t-22.5 87.5z M123 909q0 -39 25.5 -64.5t64.5 -25.5h137q45 0 45 -47v-682q0 -41 27 -65.5t65 -24.5q37 0 64 26.5t27 63.5v682q0 20 13 33.5t32 13.5h137q37 0 63.5 26.5t26.5 63.5v273q0 39 -26.5 65.5t-63.5 26.5h-547q-37 0 -63.5 -26.5t-26.5 -65.5v-273z" />
<glyph unicode="U" d="M41 227v955q0 74 50 124t122 50q51 0 90 -24.5t62 -65.5l69 -68q49 -49 49 -119v-542h103v645q0 74 50 124t124 50q47 0 87 -24.5t62 -65.5l70 -68q49 -49 49 -119v-954q0 -66 -23.5 -121t-63.5 -95t-96.5 -63.5t-119.5 -23.5h-272q-63 0 -117.5 24.5t-95.5 65.5l-54 53 q-66 41 -105.5 109.5t-39.5 152.5zM123 227q0 -47 18.5 -88t49 -71.5t71.5 -49t88 -18.5h273q98 0 162.5 64.5t64.5 162.5v955q0 39 -26.5 65.5t-63.5 26.5q-39 0 -65.5 -26.5t-26.5 -65.5v-682q0 -45 -45 -45h-273q-45 0 -45 45v682q0 39 -26.5 65.5t-65.5 26.5 q-37 0 -63.5 -26.5t-26.5 -65.5v-955z" />
<glyph unicode="V" d="M41 90v1092q0 74 50 124t122 50q51 0 90 -24.5t62 -65.5l69 -68q49 -49 49 -119v-542h4q41 0 70 29.5t29 70.5v545q0 74 50 124t124 50q47 0 87 -24.5t62 -65.5l70 -68q49 -49 49 -119v-819q0 -182 -129 -311q-127 -127 -309 -127h-275q-76 0 -118 47l-72 72 q-39 23 -61.5 61.5t-22.5 87.5zM123 90q0 -39 25.5 -64.5t64.5 -25.5h274q152 0 256 104q106 106 107 258v820q0 39 -26.5 65.5t-63.5 26.5q-39 0 -65.5 -26.5t-26.5 -65.5v-545q0 -37 -14.5 -71t-39 -58.5t-57.5 -38.5t-70 -14h-182v727q0 39 -26.5 65.5t-65.5 26.5 q-37 0 -63.5 -26.5t-26.5 -65.5v-1092z" />
<glyph unicode="W" horiz-adv-x="1343" d="M41 227v955q0 74 50 124t124 50q47 0 88 -24.5t64 -65.5l57 -60l2 -2l8 -6q4 -6 17 -18v2q0 74 50 124t124 50q47 0 88 -24.5t63 -65.5l58 -60l2 -2l8 -6q4 -6 16 -18v2q0 74 50.5 124t123.5 50q47 0 87 -24.5t63 -65.5l69 -68q49 -49 50 -119v-954q0 -66 -24 -121 t-63.5 -95t-96 -63.5t-120.5 -23.5h-135q-78 0 -137 33q-63 -33 -137 -33h-135q-66 0 -118 22.5t-97 63.5l-64 63q-10 8 -21.5 16.5t-21.5 18.5q-47 45 -69.5 100.5t-22.5 120.5zM123 227q0 -98 67 -161q70 -66 162 -66h135q78 0 138 45q57 -45 137 -45h135q98 0 162.5 64.5 t64.5 162.5v955q0 39 -26.5 65.5t-63.5 26.5q-39 0 -65.5 -26.5t-26.5 -65.5v-682q0 -45 -45 -45h-135q-20 0 -33.5 13t-13.5 32v682q0 39 -26.5 65.5t-63.5 26.5q-39 0 -66 -26.5t-27 -65.5v-682q0 -45 -45 -45h-135q-20 0 -33.5 13t-13.5 32v682q0 39 -26.5 65.5 t-63.5 26.5q-39 0 -65.5 -26.5t-26.5 -65.5v-955z" />
<glyph unicode="X" d="M41 90v272q0 59 32.5 104.5t86.5 61.5q-55 41 -87 105.5t-32 138.5v410q0 74 50 124t122 50q51 0 90 -24.5t62 -65.5l61 -60l18 19q131 131 316 131q47 0 87 -24.5t62 -65.5l70 -68q49 -49 49 -119v-272q0 -59 -37 -103.5t-90 -58.5l37 -35q41 -41 65.5 -96t24.5 -117 v-409q0 -68 -49 -117t-117 -49q-76 0 -123 47l-71 72q-10 4 -16.5 10t-14.5 12l-6 -6t-4 -6q-129 -129 -312 -129q-76 0 -118 47l-72 72q-39 23 -61.5 61.5t-22.5 87.5zM123 90q0 -39 25.5 -64.5t64.5 -25.5q152 0 258.5 106.5t106.5 255.5v138q0 45 45 45t45 -45v-410 q0 -41 26.5 -65.5t65.5 -24.5q37 0 63.5 26.5t26.5 63.5v410q0 47 -18.5 88t-49 71.5t-71.5 49t-88 18.5l-19 4q51 88 156 88q37 0 63.5 26.5t26.5 63.5v273q0 39 -26.5 65.5t-63.5 26.5q-152 0 -258.5 -106.5t-106.5 -258.5v-137q0 -45 -45 -45t-45 45v410q0 39 -26.5 65.5 t-65.5 26.5q-37 0 -63.5 -26.5t-26.5 -65.5v-410q0 -47 18.5 -88t49 -71.5t71.5 -49t88 -18.5l19 -4q-53 -86 -156 -86q-37 0 -63.5 -27t-26.5 -66v-272z" />
<glyph unicode="Y" d="M41 637v545q0 74 50 124t122 50q51 0 91 -24.5t63 -65.5l57 -60l2 -2l8 -6q49 -49 49 -119v-133h103v236q0 74 50 124t124 50q47 0 87 -24.5t62 -65.5l70 -68q49 -49 49 -119v-544q0 -61 -20.5 -113.5t-57.5 -93.5t-87 -65.5t-107 -31.5v-243q0 -68 -49.5 -117 t-116.5 -49q-76 0 -123 47l-72 72q-37 23 -59.5 59.5t-22.5 89.5v174q-45 27 -73 58l-54 53q-66 41 -105.5 109.5t-39.5 152.5zM123 637q0 -47 18.5 -88t49 -72t71.5 -49t88 -18q45 0 45 -48v-272q0 -41 27 -65.5t65 -24.5q37 0 64 26.5t27 63.5v272q0 20 13 34t32 14 q98 0 162.5 64.5t64.5 162.5v545q0 39 -26.5 65.5t-63.5 26.5q-39 0 -65.5 -26.5t-26.5 -65.5v-273q0 -45 -45 -45h-273q-45 0 -45 45v273q0 39 -26.5 65.5t-65.5 26.5q-37 0 -63.5 -26.5t-26.5 -65.5v-545z" />
<glyph unicode="Z" d="M41 90v410q0 70 28.5 131t80.5 102l-25 25q-39 23 -61.5 62.5t-22.5 88.5v273q0 74 50 124t122 50h547q47 0 87 -24.5t62 -65.5l68 -66h-2l4 -2q49 -49 49 -119v-409q0 -70 -29.5 -130.5t-78.5 -101.5l59 -59q49 -49 49 -119v-272q0 -68 -49 -117t-117 -49h-547 q-76 0 -118 47l-72 72q-39 23 -61.5 61.5t-22.5 87.5zM123 90q0 -39 25.5 -64.5t64.5 -25.5h547q37 0 63.5 26.5t26.5 63.5v272q0 39 -26.5 66t-63.5 27h-410q-45 0 -45 45t45 45h273q47 0 88 18.5t71.5 49t49 71.5t18.5 88v410q0 39 -26.5 65.5t-63.5 26.5h-547 q-37 0 -63.5 -26.5t-26.5 -65.5v-273q0 -39 25.5 -64.5t64.5 -25.5h410q45 0 45 -47q0 -45 -45 -45h-273q-47 0 -88 -18.5t-71.5 -49t-49 -71.5t-18.5 -88v-410z" />
<glyph unicode="[" horiz-adv-x="796" d="M41 90v1092q0 74 50 124t124 50h272q47 0 88 -24.5t64 -65.5l57 -60l2 -2l9 -6q49 -49 49 -119v-272q0 -68 -49.5 -117t-116.5 -49h-107v-104h4q47 0 87 -25t63 -66l70 -67q49 -49 49 -119v-272q0 -68 -49.5 -117t-116.5 -49h-273q-76 0 -122 47l-72 72 q-37 23 -59.5 59.5t-22.5 89.5zM123 90q0 -41 26.5 -65.5t65.5 -24.5h272q37 0 64 26.5t27 63.5v272q0 39 -27 66t-64 27h-137q-45 0 -45 45v272q0 20 13.5 33.5t31.5 13.5h137q37 0 64 26.5t27 63.5v273q0 39 -27 65.5t-64 26.5h-272q-39 0 -65.5 -26.5t-26.5 -65.5v-1092z " />
<glyph unicode="\" d="M41 637v545q0 74 50 124t122 50q51 0 90 -24.5t62 -65.5l69 -68q49 -49 49 -119v-133h140q84 0 152.5 -41t109.5 -106l53 -51q41 -41 65.5 -96.5t24.5 -116.5v-547q0 -68 -49 -117t-117 -49q-76 0 -123 47l-71 72q-37 23 -59.5 59.5t-22.5 89.5v141h-133q-63 0 -117.5 25 t-95.5 66l-54 51q-66 41 -105.5 110.5t-39.5 153.5zM123 637q0 -47 18.5 -88t49 -72t71.5 -49t88 -18h273q45 0 45 -48v-272q0 -41 26.5 -65.5t65.5 -24.5q37 0 63.5 26.5t26.5 63.5v547q0 47 -18.5 88t-49 71.5t-71.5 49t-88 18.5h-273q-45 0 -45 45v273q0 39 -26.5 65.5 t-65.5 26.5q-37 0 -63.5 -26.5t-26.5 -65.5v-545z" />
<glyph unicode="]" horiz-adv-x="796" d="M41 90v272q0 74 50 124.5t124 50.5h98v104q-76 0 -118 47l-72 72q-37 20 -59.5 58t-22.5 91v273q0 74 50 124t124 50h272q47 0 88 -24.5t64 -65.5l57 -60l2 -2l9 -6q49 -49 49 -119v-1091q0 -68 -49.5 -117t-116.5 -49h-273q-76 0 -122 47l-72 72q-37 23 -59.5 59.5 t-22.5 89.5zM123 90q0 -41 26.5 -65.5t65.5 -24.5h272q37 0 64 26.5t27 63.5v1092q0 39 -27 65.5t-64 26.5h-272q-39 0 -65.5 -26.5t-26.5 -65.5v-273q0 -41 26.5 -65.5t65.5 -24.5h135q45 0 45 -47v-272q0 -45 -45 -45h-135q-39 0 -65.5 -27t-26.5 -66v-272z" />
<glyph unicode="^" horiz-adv-x="798" d="M41 1047q0 63 49 118l139 142q55 49 121 49t121 -49l137 -140q8 -10 15.5 -18t13.5 -19l70 -69q51 -51 51 -117q0 -68 -48 -118t-120 -50q-70 0 -119 49l-18 19l-15 -17q-45 -51 -121 -51q-68 0 -116 49l-70 68q-41 23 -65.5 64.5t-24.5 89.5zM123 1047q0 -35 26.5 -64 t65.5 -29t64 27l71 72l72 -72q27 -27 65 -27q39 0 66 28t27 65q0 35 -29 63l-135 137q-29 27 -66 27q-35 0 -63 -27l-137 -137q-27 -29 -27 -63z" />
<glyph unicode="_" d="M41 -182q0 72 50 122t122 50h547q47 0 87 -23.5t62 -64.5l70 -70q49 -49 49 -117q0 -72 -49 -120t-117 -48h-547q-68 0 -116 50l-70 69q-41 23 -64.5 62t-23.5 90zM123 -182q0 -39 26.5 -65.5t63.5 -26.5h547q37 0 63.5 26.5t26.5 65.5q0 37 -26.5 63.5t-63.5 26.5h-547 q-37 0 -63.5 -26.5t-26.5 -63.5z" />
<glyph unicode="`" horiz-adv-x="524" d="M41 1047v135q0 74 50 124t122 50q51 0 90 -24.5t62 -65.5l69 -68q49 -49 49 -119v-135q0 -72 -48 -120t-120 -48q-68 0 -116 49l-70 68q-41 23 -64.5 62.5t-23.5 91.5zM123 1047q0 -39 26.5 -66t63.5 -27q39 0 65.5 27t26.5 66v135q0 39 -26.5 65.5t-65.5 26.5 q-37 0 -63.5 -26.5t-26.5 -65.5v-135z" />
<glyph unicode="a" d="M41 227v273q0 70 28.5 131t80.5 102l-25 25q-39 23 -61.5 62.5t-22.5 88.5v273q0 74 50 124t122 50h410q84 0 152.5 -41t109.5 -107l53 -51q41 -41 65.5 -96t24.5 -117v-819q0 -66 -23.5 -121t-63.5 -95t-96.5 -63.5t-119.5 -23.5h-272q-63 0 -117.5 24.5t-95.5 65.5 l-54 53q-66 41 -105.5 109.5t-39.5 152.5zM123 227q0 -47 18.5 -88t49 -71.5t71.5 -49t88 -18.5h273q98 0 162.5 64.5t64.5 162.5v820q0 47 -18.5 88t-49 71.5t-71.5 49t-88 18.5h-410q-37 0 -63.5 -26.5t-26.5 -65.5v-273q0 -39 25.5 -64.5t64.5 -25.5h410q45 0 45 -47 q0 -45 -45 -45h-273q-47 0 -88 -18.5t-71.5 -49t-49 -71.5t-18.5 -88v-273zM305 500q0 45 45 45h273q45 0 45 -45t-45 -45h-273q-45 0 -45 45z" />
<glyph unicode="b" d="M41 90v1092q0 74 50 124t122 50h410q84 0 152.5 -41t109.5 -107l53 -51q41 -41 65.5 -96t24.5 -117v-274q0 -76 -33 -135q33 -63 33 -138v-272q0 -66 -23.5 -121t-63.5 -95t-96.5 -63.5t-119.5 -23.5h-410q-76 0 -118 47l-72 72q-39 23 -61.5 61.5t-22.5 87.5zM123 90 q0 -39 25.5 -64.5t64.5 -25.5h410q98 0 162.5 64.5t64.5 162.5v273q0 78 -45 137q45 57 45 135v275q0 47 -18.5 88t-49 71.5t-71.5 49t-88 18.5h-410q-37 0 -63.5 -26.5t-26.5 -65.5v-1092zM305 500q0 45 45 45h273q45 0 45 -45t-45 -45h-273q-45 0 -45 45zM305 772 q0 20 13.5 33.5t31.5 13.5h273q45 0 45 -47q0 -45 -45 -45h-273q-45 0 -45 45z" />
<glyph unicode="c" d="M41 227v820q0 63 24.5 119.5t66.5 98.5t98.5 66.5t119.5 24.5h273q84 0 152.5 -41t109.5 -107l53 -51q41 -41 65.5 -96t24.5 -117v-274q0 -41 -18.5 -76t-48.5 -57l20 -21q23 -23 35 -53.5t12 -65.5v-272q0 -66 -23.5 -121t-63.5 -95t-96.5 -63.5t-119.5 -23.5h-272 q-63 0 -117.5 24.5t-95.5 65.5l-54 53q-66 41 -105.5 109.5t-39.5 152.5zM123 227q0 -47 18.5 -88t49 -71.5t71.5 -49t88 -18.5h273q98 0 162.5 64.5t64.5 162.5v273q0 39 -25.5 64.5t-64.5 25.5t-65.5 -26.5t-26.5 -63.5q0 -45 -45 -45h-273q-45 0 -45 45v272 q0 20 13.5 33.5t31.5 13.5h273q45 0 45 -47q0 -37 26.5 -63.5t65.5 -26.5q37 0 63.5 26.5t26.5 63.5v275q0 47 -18.5 88t-49 71.5t-71.5 49t-88 18.5h-273q-47 0 -88 -18.5t-71.5 -49t-49 -71.5t-18.5 -88v-820zM483 537h107q12 59 63 98q-2 2 -4 3t-4 3h-162v-104z" />
<glyph unicode="d" d="M41 90v1092q0 74 50 124t122 50h410q84 0 152.5 -41t109.5 -107l53 -51q41 -41 65.5 -96t24.5 -117v-819q0 -66 -23.5 -121t-63.5 -95t-96.5 -63.5t-119.5 -23.5h-410q-76 0 -118 47l-72 72q-39 23 -61.5 61.5t-22.5 87.5zM123 90q0 -39 25.5 -64.5t64.5 -25.5h410 q98 0 162.5 64.5t64.5 162.5v820q0 47 -18.5 88t-49 71.5t-71.5 49t-88 18.5h-410q-37 0 -63.5 -26.5t-26.5 -65.5v-1092zM305 500v272q0 20 13.5 33.5t31.5 13.5h273q45 0 45 -47v-272q0 -45 -45 -45h-273q-45 0 -45 45zM483 537h103v104h-103v-104z" />
<glyph unicode="e" d="M41 227v820q0 63 24.5 119.5t66.5 98.5t98.5 66.5t119.5 24.5h273q84 0 152.5 -41t109.5 -107l53 -51q41 -41 65.5 -96t24.5 -117v-274q0 -70 -29.5 -130.5t-78.5 -101.5l59 -59q49 -49 49 -119v-272q0 -68 -49 -117t-117 -49h-409q-63 0 -117.5 24.5t-95.5 65.5l-54 53 q-66 41 -105.5 109.5t-39.5 152.5zM123 227q0 -47 18.5 -88t49 -71.5t71.5 -49t88 -18.5h410q37 0 63.5 26.5t26.5 63.5v272q0 39 -26.5 66t-63.5 27h-410q-45 0 -45 45t45 45h273q47 0 88 18.5t71.5 49t49 71.5t18.5 88v275q0 47 -18.5 88t-49 71.5t-71.5 49t-88 18.5h-273 q-47 0 -88 -18.5t-71.5 -49t-49 -71.5t-18.5 -88v-820zM305 772q0 20 13.5 33.5t31.5 13.5h273q45 0 45 -47q0 -45 -45 -45h-273q-45 0 -45 45z" />
<glyph unicode="f" d="M41 90v957q0 63 24.5 119.5t66.5 98.5t98.5 66.5t119.5 24.5h410q47 0 87 -24.5t62 -65.5l70 -68q49 -49 49 -119v-272q0 -41 -19.5 -77t-50.5 -58l21 -21q49 -49 49 -116q0 -72 -49 -120t-117 -48h-379v-379q0 -68 -48 -117t-120 -49q-76 0 -118 47l-72 72 q-39 23 -61.5 61.5t-22.5 87.5zM123 90q0 -39 25.5 -64.5t64.5 -25.5t65.5 26.5t26.5 63.5v410q0 45 45 45h410q37 0 63.5 26.5t26.5 65.5q0 37 -26.5 63.5t-63.5 26.5h-410q-45 0 -45 45q0 20 13.5 33.5t31.5 13.5h410q37 0 63.5 26.5t26.5 63.5v273q0 39 -26.5 65.5 t-63.5 26.5h-410q-47 0 -88 -18.5t-71.5 -49t-49 -71.5t-18.5 -88v-957z" />
<glyph unicode="g" d="M41 227v820q0 63 24.5 119.5t66.5 98.5t98.5 66.5t119.5 24.5h410q47 0 88 -24.5t63 -65.5l58 -60l2 -2l8 -6q49 -49 49 -119v-272q0 -59 -37 -103.5t-90 -58.5l37 -35q41 -41 65.5 -96t24.5 -117v-272q0 -66 -23.5 -121t-63.5 -95t-96.5 -63.5t-119.5 -23.5h-272 q-63 0 -117.5 24.5t-95.5 65.5l-54 53q-66 41 -105.5 109.5t-39.5 152.5zM123 227q0 -47 18.5 -88t49 -71.5t71.5 -49t88 -18.5h273q98 0 162.5 64.5t64.5 162.5v273q0 47 -18.5 88t-49 71.5t-71.5 49t-88 18.5h-136q-39 0 -65.5 -26.5t-26.5 -63.5q0 -39 27 -65.5t65 -26.5 h136q45 0 45 -45t-45 -45h-273q-45 0 -45 45v272q0 20 13.5 33.5t31.5 13.5h410q37 0 63.5 26.5t26.5 63.5v273q0 39 -26.5 65.5t-63.5 26.5h-410q-47 0 -88 -18.5t-71.5 -49t-49 -71.5t-18.5 -88v-820z" />
<glyph unicode="h" d="M41 90v1092q0 74 50 124t122 50q51 0 90 -24.5t62 -65.5l67 -66h-2l4 -2q49 -49 49 -119v-133h103v236q0 74 50 124t124 50q47 0 88 -24.5t63 -65.5l58 -60l2 -2l8 -6q49 -49 49 -119v-1091q0 -68 -49 -117t-117 -49q-76 0 -123 47l-71 72q-37 23 -59.5 59.5t-22.5 89.5 v141h-103v-243q0 -68 -48 -117t-120 -49q-76 0 -118 47l-72 72q-39 23 -61.5 61.5t-22.5 87.5zM123 90q0 -39 25.5 -64.5t64.5 -25.5t65.5 26.5t26.5 63.5v272q0 20 13.5 34t31.5 14h273q45 0 45 -48v-272q0 -41 26.5 -65.5t65.5 -24.5q37 0 63.5 26.5t26.5 63.5v1092 q0 39 -26.5 65.5t-63.5 26.5q-39 0 -65.5 -26.5t-26.5 -65.5v-273q0 -45 -45 -45h-273q-45 0 -45 45v273q0 39 -26.5 65.5t-65.5 26.5q-37 0 -63.5 -26.5t-26.5 -65.5v-1092z" />
<glyph unicode="i" horiz-adv-x="524" d="M41 90v1092q0 74 50 124t122 50q51 0 91 -24.5t63 -65.5l57 -60l2 -2l8 -6q49 -49 49 -119v-1091q0 -68 -48 -117t-120 -49q-76 0 -118 47l-72 72q-39 23 -61.5 61.5t-22.5 87.5zM123 90q0 -39 25.5 -64.5t64.5 -25.5t65.5 26.5t26.5 63.5v1092q0 39 -26.5 65.5 t-65.5 26.5q-37 0 -63.5 -26.5t-26.5 -65.5v-1092z" />
<glyph unicode="j" d="M41 227v273q0 72 50 122t122 50q49 0 89 -21.5t63 -62.5l53 -51h168v645q0 74 50 124t124 50q47 0 87 -24.5t62 -65.5l70 -68q49 -49 49 -119v-954q0 -66 -23.5 -121t-63.5 -95t-96.5 -63.5t-119.5 -23.5h-272q-63 0 -117.5 24.5t-95.5 65.5l-54 53q-66 41 -105.5 109.5 t-39.5 152.5zM123 227q0 -47 18.5 -88t49 -71.5t71.5 -49t88 -18.5h273q98 0 162.5 64.5t64.5 162.5v955q0 39 -26.5 65.5t-63.5 26.5q-39 0 -65.5 -26.5t-26.5 -65.5v-682q0 -45 -45 -45h-273q-45 0 -45 45q0 41 -26.5 65.5t-65.5 24.5q-37 0 -63.5 -26.5t-26.5 -63.5v-273 z" />
<glyph unicode="k" d="M41 90v1092q0 74 50 124t122 50q51 0 90 -24.5t62 -65.5l69 -68q49 -49 49 -119v-270h103v373q0 74 50 124t124 50q47 0 87 -24.5t62 -65.5l70 -68q49 -49 49 -119v-409q0 -70 -29.5 -130.5t-78.5 -101.5l49 -51l2 -2l8 -6q49 -49 49 -119v-272q0 -68 -49 -117t-117 -49 q-184 0 -311 125l-55 53q-8 8 -13 10v-22q0 -68 -48 -117t-120 -49q-76 0 -118 47l-72 72q-39 23 -61.5 61.5t-22.5 87.5zM123 90q0 -39 25.5 -64.5t64.5 -25.5t65.5 26.5t26.5 63.5v410q0 45 45 45t45 -45v-138q0 -154 106.5 -258t258.5 -104q37 0 63.5 26.5t26.5 63.5v272 q0 39 -26.5 66t-63.5 27q-100 0 -128 43t-9 47q47 0 88 18.5t71.5 49t49 71.5t18.5 88v410q0 39 -26.5 65.5t-63.5 26.5q-39 0 -65.5 -26.5t-26.5 -65.5v-410q0 -45 -45 -45h-273q-45 0 -45 45v410q0 39 -26.5 65.5t-65.5 26.5q-37 0 -63.5 -26.5t-26.5 -65.5v-1092z" />
<glyph unicode="l" d="M41 227v955q0 74 50 124t122 50q51 0 91 -24.5t63 -65.5l57 -60l2 -2l8 -6q49 -49 49 -119v-542h277q47 0 87 -25t62 -66l70 -67q49 -49 49 -119v-272q0 -68 -49 -117t-117 -49h-409q-63 0 -117.5 24.5t-95.5 65.5l-54 53q-66 41 -105.5 109.5t-39.5 152.5zM123 227 q0 -47 18.5 -88t49 -71.5t71.5 -49t88 -18.5h410q37 0 63.5 26.5t26.5 63.5v272q0 39 -26.5 66t-63.5 27h-410q-45 0 -45 45v682q0 39 -26.5 65.5t-65.5 26.5q-37 0 -63.5 -26.5t-26.5 -65.5v-955z" />
<glyph unicode="m" horiz-adv-x="1343" d="M41 90v957q0 127 90 217q92 92 221 92h135q66 0 136 -35q70 35 139 35h135q84 0 152.5 -41t109.5 -107l53 -51q41 -41 66 -96t25 -117v-956q0 -68 -49.5 -117t-116.5 -49q-76 0 -123 47l-72 72q-27 14 -49 43q0 -33 -14.5 -63t-37 -51.5t-52 -34.5t-62.5 -13 q-76 0 -123 47l-72 72q-27 14 -49 43q0 -33 -14 -63t-36.5 -51.5t-52.5 -34.5t-63 -13q-76 0 -122 47l-72 72q-37 23 -59.5 59.5t-22.5 89.5zM123 90q0 -41 26.5 -65.5t65.5 -24.5q37 0 63.5 26.5t26.5 63.5v682q0 20 13.5 33.5t33.5 13.5h135q45 0 45 -47v-682 q0 -41 27 -65.5t66 -24.5q37 0 63.5 26.5t26.5 63.5v682q0 20 13 33.5t34 13.5h135q45 0 45 -47v-682q0 -41 26.5 -65.5t65.5 -24.5q37 0 63.5 26.5t26.5 63.5v957q0 47 -18.5 88t-49 71.5t-71.5 49t-88 18.5h-135q-74 0 -137 -47q-66 47 -138 47h-135q-96 0 -164 -68 q-66 -66 -65 -159v-957z" />
<glyph unicode="n" d="M41 90v957q0 63 24.5 119.5t66.5 98.5t98.5 66.5t119.5 24.5h273q84 0 152.5 -41t109.5 -107l53 -51q41 -41 65.5 -96t24.5 -117v-956q0 -68 -49 -117t-117 -49q-76 0 -123 47l-71 72q-37 23 -59.5 59.5t-22.5 89.5v551h-103v-653q0 -68 -48 -117t-120 -49q-76 0 -118 47 l-72 72q-39 23 -61.5 61.5t-22.5 87.5zM123 90q0 -39 25.5 -64.5t64.5 -25.5t65.5 26.5t26.5 63.5v682q0 20 13.5 33.5t31.5 13.5h273q45 0 45 -47v-682q0 -41 26.5 -65.5t65.5 -24.5q37 0 63.5 26.5t26.5 63.5v957q0 47 -18.5 88t-49 71.5t-71.5 49t-88 18.5h-273 q-47 0 -88 -18.5t-71.5 -49t-49 -71.5t-18.5 -88v-957z" />
<glyph unicode="o" d="M41 227v820q0 63 24.5 119.5t66.5 98.5t98.5 66.5t119.5 24.5h273q84 0 152.5 -41t109.5 -107l53 -51q41 -41 65.5 -96t24.5 -117v-819q0 -66 -23.5 -121t-63.5 -95t-96.5 -63.5t-119.5 -23.5h-272q-63 0 -117.5 24.5t-95.5 65.5l-54 53q-66 41 -105.5 109.5t-39.5 152.5 zM123 227q0 -47 18.5 -88t49 -71.5t71.5 -49t88 -18.5h273q98 0 162.5 64.5t64.5 162.5v820q0 47 -18.5 88t-49 71.5t-71.5 49t-88 18.5h-273q-47 0 -88 -18.5t-71.5 -49t-49 -71.5t-18.5 -88v-820zM305 500v272q0 20 13.5 33.5t31.5 13.5h273q45 0 45 -47v-272 q0 -45 -45 -45h-273q-45 0 -45 45zM483 537h103v104h-103v-104z" />
<glyph unicode="p" d="M41 90v957q0 63 24.5 119.5t66.5 98.5t98.5 66.5t119.5 24.5h273q84 0 152.5 -41t109.5 -107l53 -51q41 -41 65.5 -96t24.5 -117v-274q0 -61 -23.5 -116.5t-65.5 -97.5t-97.5 -65.5t-116.5 -23.5h-242v-379q0 -68 -48 -117t-120 -49q-76 0 -118 47l-72 72 q-39 23 -61.5 61.5t-22.5 87.5zM123 90q0 -39 25.5 -64.5t64.5 -25.5t65.5 26.5t26.5 63.5v410q0 45 45 45h273q47 0 88 18.5t71.5 49t49 71.5t18.5 88v275q0 47 -18.5 88t-49 71.5t-71.5 49t-88 18.5h-273q-47 0 -88 -18.5t-71.5 -49t-49 -71.5t-18.5 -88v-957zM305 772 q0 20 13.5 33.5t31.5 13.5h273q45 0 45 -47q0 -45 -45 -45h-273q-45 0 -45 45z" />
<glyph unicode="q" d="M41 227v820q0 63 24.5 119.5t66.5 98.5t98.5 66.5t119.5 24.5h273q84 0 152.5 -41t109.5 -107l53 -51q41 -41 65.5 -96t24.5 -117v-819q0 -61 -20.5 -113.5t-57.5 -92.5t-87 -64.5t-107 -30.5v-109q0 -72 -49.5 -120t-116.5 -48q-70 0 -119 50l-70 69q-41 23 -64.5 62 t-23.5 90v41q-41 20 -73 53l-54 53q-66 41 -105.5 109.5t-39.5 152.5zM123 227q0 -47 18.5 -88t49 -71.5t71.5 -49t88 -18.5q45 0 45 -47v-135q0 -39 27 -65.5t65 -26.5q37 0 64 26.5t27 65.5v135q0 20 13 33.5t32 13.5q98 0 162.5 64.5t64.5 162.5v820q0 47 -18.5 88 t-49 71.5t-71.5 49t-88 18.5h-273q-47 0 -88 -18.5t-71.5 -49t-49 -71.5t-18.5 -88v-820zM305 500v272q0 20 13.5 33.5t31.5 13.5h273q45 0 45 -47v-272q0 -45 -45 -45h-273q-45 0 -45 45zM483 537h103v104h-103v-104z" />
<glyph unicode="r" d="M41 90v957q0 63 24.5 119.5t66.5 98.5t98.5 66.5t119.5 24.5h273q84 0 152.5 -41t109.5 -107l53 -51q41 -41 65.5 -96t24.5 -117v-274q0 -70 -29.5 -130.5t-78.5 -101.5l57 -57h-2l4 -2q49 -49 49 -119v-272q0 -68 -49 -117t-117 -49q-184 0 -311 125l-55 53q-8 8 -13 10 v-22q0 -68 -48 -117t-120 -49q-76 0 -118 47l-72 72q-39 23 -61.5 61.5t-22.5 87.5zM123 90q0 -39 25.5 -64.5t64.5 -25.5t65.5 26.5t26.5 63.5v410q0 45 45 45t45 -45v-138q0 -154 106.5 -258t258.5 -104q37 0 63.5 26.5t26.5 63.5v272q0 39 -26.5 66t-63.5 27 q-100 0 -127.5 43t-9.5 47q47 0 88 18.5t71.5 49t49 71.5t18.5 88v275q0 47 -18.5 88t-49 71.5t-71.5 49t-88 18.5h-273q-47 0 -88 -18.5t-71.5 -49t-49 -71.5t-18.5 -88v-957zM305 772q0 20 13.5 33.5t31.5 13.5h273q45 0 45 -47q0 -45 -45 -45h-273q-45 0 -45 45z" />
<glyph unicode="s" d="M41 90v272q0 59 32.5 104.5t86.5 61.5q-55 41 -87 105.5t-32 138.5v275q0 63 24.5 119.5t66.5 98.5t98.5 66.5t119.5 24.5h410q47 0 87 -24.5t62 -65.5l68 -66h-2l4 -2q49 -49 49 -119v-272q0 -59 -37 -103.5t-90 -58.5l37 -35q41 -41 65.5 -96t24.5 -117v-272 q0 -66 -23.5 -121t-63.5 -95t-96.5 -63.5t-119.5 -23.5h-410q-76 0 -118 47l-72 72q-39 23 -61.5 61.5t-22.5 87.5zM123 90q0 -39 25.5 -64.5t64.5 -25.5h410q98 0 162.5 64.5t64.5 162.5v273q0 47 -18.5 88t-49 71.5t-71.5 49t-88 18.5h-273q-45 0 -45 45q0 20 13.5 33.5 t31.5 13.5h410q37 0 63.5 26.5t26.5 63.5v273q0 39 -26.5 65.5t-63.5 26.5h-410q-47 0 -88 -18.5t-71.5 -49t-49 -71.5t-18.5 -88v-275q0 -47 18.5 -88t49 -71.5t71.5 -49t88 -18.5h273q45 0 45 -45t-45 -45h-410q-37 0 -63.5 -27t-26.5 -66v-272z" />
<glyph unicode="t" d="M41 909v273q0 74 50 124t122 50h547q47 0 87 -24.5t62 -65.5l70 -68q49 -49 49 -119v-272q0 -68 -49 -117t-117 -49h-106v-653q0 -68 -49.5 -117t-116.5 -49q-76 0 -123 47l-72 72q-37 23 -59.5 59.5t-22.5 89.5v551q-74 0 -116 47l-72 72q-39 23 -61.5 61.5t-22.5 87.5z M123 909q0 -39 25.5 -64.5t64.5 -25.5h137q45 0 45 -47v-682q0 -41 27 -65.5t65 -24.5q37 0 64 26.5t27 63.5v682q0 20 13 33.5t32 13.5h137q37 0 63.5 26.5t26.5 63.5v273q0 39 -26.5 65.5t-63.5 26.5h-547q-37 0 -63.5 -26.5t-26.5 -65.5v-273z" />
<glyph unicode="u" d="M41 227v955q0 74 50 124t122 50q51 0 90 -24.5t62 -65.5l69 -68q49 -49 49 -119v-542h103v645q0 74 50 124t124 50q47 0 87 -24.5t62 -65.5l70 -68q49 -49 49 -119v-954q0 -66 -23.5 -121t-63.5 -95t-96.5 -63.5t-119.5 -23.5h-272q-63 0 -117.5 24.5t-95.5 65.5l-54 53 q-66 41 -105.5 109.5t-39.5 152.5zM123 227q0 -47 18.5 -88t49 -71.5t71.5 -49t88 -18.5h273q98 0 162.5 64.5t64.5 162.5v955q0 39 -26.5 65.5t-63.5 26.5q-39 0 -65.5 -26.5t-26.5 -65.5v-682q0 -45 -45 -45h-273q-45 0 -45 45v682q0 39 -26.5 65.5t-65.5 26.5 q-37 0 -63.5 -26.5t-26.5 -65.5v-955z" />
<glyph unicode="v" d="M41 90v1092q0 74 50 124t122 50q51 0 90 -24.5t62 -65.5l69 -68q49 -49 49 -119v-542h4q41 0 70 29.5t29 70.5v545q0 74 50 124t124 50q47 0 87 -24.5t62 -65.5l70 -68q49 -49 49 -119v-819q0 -182 -129 -311q-127 -127 -309 -127h-275q-76 0 -118 47l-72 72 q-39 23 -61.5 61.5t-22.5 87.5zM123 90q0 -39 25.5 -64.5t64.5 -25.5h274q152 0 256 104q106 106 107 258v820q0 39 -26.5 65.5t-63.5 26.5q-39 0 -65.5 -26.5t-26.5 -65.5v-545q0 -37 -14.5 -71t-39 -58.5t-57.5 -38.5t-70 -14h-182v727q0 39 -26.5 65.5t-65.5 26.5 q-37 0 -63.5 -26.5t-26.5 -65.5v-1092z" />
<glyph unicode="w" horiz-adv-x="1343" d="M41 227v955q0 74 50 124t124 50q47 0 88 -24.5t64 -65.5l57 -60l2 -2l8 -6q4 -6 17 -18v2q0 74 50 124t124 50q47 0 88 -24.5t63 -65.5l58 -60l2 -2l8 -6q4 -6 16 -18v2q0 74 50.5 124t123.5 50q47 0 87 -24.5t63 -65.5l69 -68q49 -49 50 -119v-954q0 -66 -24 -121 t-63.5 -95t-96 -63.5t-120.5 -23.5h-135q-78 0 -137 33q-63 -33 -137 -33h-135q-66 0 -118 22.5t-97 63.5l-64 63q-10 8 -21.5 16.5t-21.5 18.5q-47 45 -69.5 100.5t-22.5 120.5zM123 227q0 -98 67 -161q70 -66 162 -66h135q78 0 138 45q57 -45 137 -45h135q98 0 162.5 64.5 t64.5 162.5v955q0 39 -26.5 65.5t-63.5 26.5q-39 0 -65.5 -26.5t-26.5 -65.5v-682q0 -45 -45 -45h-135q-20 0 -33.5 13t-13.5 32v682q0 39 -26.5 65.5t-63.5 26.5q-39 0 -66 -26.5t-27 -65.5v-682q0 -45 -45 -45h-135q-20 0 -33.5 13t-13.5 32v682q0 39 -26.5 65.5 t-63.5 26.5q-39 0 -65.5 -26.5t-26.5 -65.5v-955z" />
<glyph unicode="x" d="M41 90v410q0 70 28.5 131t80.5 102l-25 25q-39 23 -61.5 62.5t-22.5 88.5v273q0 74 50 124t122 50q184 0 315 -131q12 -14 24.5 -27.5t22.5 -30.5l11 -8v23q0 74 50 124t124 50q47 0 87 -24.5t62 -65.5l70 -68q49 -49 49 -119v-409q0 -70 -29.5 -130.5t-78.5 -101.5 l49 -51l2 -2l8 -6q49 -49 49 -119v-272q0 -68 -49 -117t-117 -49q-184 0 -311 125l-55 53q-8 8 -13 10v-22q0 -68 -48 -117t-120 -49q-76 0 -118 47l-72 72q-39 23 -61.5 61.5t-22.5 87.5zM123 90q0 -39 25.5 -64.5t64.5 -25.5t65.5 26.5t26.5 63.5v410q0 45 45 45t45 -45 v-138q0 -154 106.5 -258t258.5 -104q37 0 63.5 26.5t26.5 63.5v272q0 39 -26.5 66t-63.5 27q-100 0 -128 43t-9 47q47 0 88 18.5t71.5 49t49 71.5t18.5 88v410q0 39 -26.5 65.5t-63.5 26.5q-39 0 -65.5 -26.5t-26.5 -65.5v-410q0 -45 -45 -45t-45 45v137q0 152 -106.5 258.5 t-258.5 106.5q-37 0 -63.5 -26.5t-26.5 -65.5v-273q0 -39 25.5 -64.5t64.5 -25.5q104 0 156 -88l-19 -4q-47 0 -88 -18.5t-71.5 -49t-49 -71.5t-18.5 -88v-410z" />
<glyph unicode="y" d="M41 637v545q0 74 50 124t122 50q51 0 91 -24.5t63 -65.5l57 -60l2 -2l8 -6q49 -49 49 -119v-133h103v236q0 74 50 124t124 50q47 0 87 -24.5t62 -65.5l70 -68q49 -49 49 -119v-544q0 -61 -20.5 -113.5t-57.5 -93.5t-87 -65.5t-107 -31.5v-243q0 -68 -49.5 -117 t-116.5 -49q-76 0 -123 47l-72 72q-37 23 -59.5 59.5t-22.5 89.5v174q-45 27 -73 58l-54 53q-66 41 -105.5 109.5t-39.5 152.5zM123 637q0 -47 18.5 -88t49 -72t71.5 -49t88 -18q45 0 45 -48v-272q0 -41 27 -65.5t65 -24.5q37 0 64 26.5t27 63.5v272q0 20 13 34t32 14 q98 0 162.5 64.5t64.5 162.5v545q0 39 -26.5 65.5t-63.5 26.5q-39 0 -65.5 -26.5t-26.5 -65.5v-273q0 -45 -45 -45h-273q-45 0 -45 45v273q0 39 -26.5 65.5t-65.5 26.5q-37 0 -63.5 -26.5t-26.5 -65.5v-545z" />
<glyph unicode="z" d="M41 90v410q0 70 28.5 131t80.5 102l-25 25q-39 23 -61.5 62.5t-22.5 88.5v273q0 74 50 124t122 50h547q47 0 87 -24.5t62 -65.5l68 -66h-2l4 -2q49 -49 49 -119v-409q0 -70 -29.5 -130.5t-78.5 -101.5l59 -59q49 -49 49 -119v-272q0 -68 -49 -117t-117 -49h-547 q-76 0 -118 47l-72 72q-39 23 -61.5 61.5t-22.5 87.5zM123 90q0 -39 25.5 -64.5t64.5 -25.5h547q37 0 63.5 26.5t26.5 63.5v272q0 39 -26.5 66t-63.5 27h-410q-45 0 -45 45t45 45h273q47 0 88 18.5t71.5 49t49 71.5t18.5 88v410q0 39 -26.5 65.5t-63.5 26.5h-547 q-37 0 -63.5 -26.5t-26.5 -65.5v-273q0 -39 25.5 -64.5t64.5 -25.5h410q45 0 45 -47q0 -45 -45 -45h-273q-47 0 -88 -18.5t-71.5 -49t-49 -71.5t-18.5 -88v-410z" />
<glyph unicode="{" horiz-adv-x="933" d="M41 637q0 61 39 108.5t98 59.5v242q0 63 24.5 119.5t66.5 98.5t98.5 66.5t119.5 24.5h138q47 0 87 -24.5t62 -65.5l70 -68q49 -49 49 -119v-272q0 -68 -49 -117t-117 -49h-109q-4 -59 -30 -104h37q47 0 88 -25t63 -66l58 -59l2 -2l8 -6q49 -49 49 -119v-272 q0 -68 -49 -117t-117 -49h-137q-63 0 -117.5 24.5t-95.5 65.5l-53 53q-66 41 -106 109.5t-40 152.5v209l-45 43q-41 23 -66.5 64t-25.5 94zM123 637q0 -39 26.5 -65.5t65.5 -26.5q45 0 45 -45v-273q0 -47 18.5 -88t49 -71.5t71.5 -49t88 -18.5h138q37 0 63.5 26.5t26.5 63.5 v272q0 39 -26.5 66t-63.5 27h-138q-45 0 -45 45q0 78 -45 137q45 57 45 135q0 20 13.5 33.5t31.5 13.5h138q37 0 63.5 26.5t26.5 63.5v273q0 39 -26.5 65.5t-63.5 26.5h-138q-47 0 -88 -18.5t-71.5 -49t-49 -71.5t-18.5 -88v-275q0 -45 -45 -45q-39 0 -65.5 -26.5 t-26.5 -63.5z" />
<glyph unicode="|" horiz-adv-x="524" d="M41 -182v1638q0 72 50 122t122 50q51 0 90 -24.5t62 -65.5l69 -68q49 -49 49 -116v-1639q0 -72 -48 -120t-120 -48q-68 0 -116 50l-70 69q-41 23 -64.5 62t-23.5 90zM123 -182q0 -39 26.5 -65.5t63.5 -26.5q39 0 65.5 26.5t26.5 65.5v1638q0 37 -26.5 63.5t-65.5 26.5 q-37 0 -63.5 -26.5t-26.5 -63.5v-1638z" />
<glyph unicode="}" horiz-adv-x="933" d="M41 90v272q0 74 50 124.5t124 50.5h102q6 49 31 98l-2 2q0 2 -2 4h-27q-76 0 -122 47l-72 72q-37 20 -59.5 58t-22.5 91v273q0 74 50 124t124 50h137q84 0 152.5 -41t109.5 -107l54 -51q41 -41 65.5 -96t24.5 -117v-201q4 -4 8 -10l8 -12l70 -70q49 -49 49 -116 q0 -63 -39 -109.5t-96 -56.5v-244q0 -66 -23.5 -121t-63.5 -95t-96.5 -63.5t-119.5 -23.5h-138q-76 0 -122 47l-72 72q-37 23 -59.5 59.5t-22.5 89.5zM123 90q0 -41 26.5 -65.5t65.5 -24.5h137q98 0 163 64.5t65 162.5v273q0 45 45 45q37 0 63.5 26.5t26.5 65.5 q0 37 -26.5 63.5t-63.5 26.5q-45 0 -45 45v275q0 47 -18.5 88t-49.5 71.5t-72 49t-88 18.5h-137q-39 0 -65.5 -26.5t-26.5 -65.5v-273q0 -41 26.5 -65.5t65.5 -24.5h137q45 0 45 -47q0 -78 45 -135q-45 -59 -45 -137q0 -45 -45 -45h-137q-39 0 -65.5 -27t-26.5 -66v-272z " />
<glyph unicode="~" d="M41 637q0 63 24.5 119.5t66.5 98.5t98.5 66.5t119.5 24.5q84 0 153.5 -41t110.5 -108l29 -31q49 43 117 43q47 0 88 -24.5t63 -65.5l58 -60l2 -2l8 -6q49 -49 49 -116q0 -66 -23.5 -121.5t-63.5 -95t-96.5 -63.5t-119.5 -24t-117.5 25t-95.5 66l-55 53q-10 6 -18.5 13 t-18.5 15q-43 -37 -105 -36q-68 0 -116 49l-70 67q-41 23 -64.5 63t-23.5 91zM123 637q0 -39 26.5 -65.5t63.5 -26.5q39 0 65.5 26.5t26.5 65.5q0 45 45 45t45 -45q0 -47 18.5 -88t49.5 -72t71.5 -49t88.5 -18q98 0 162.5 64.5t64.5 162.5q0 37 -26.5 63.5t-63.5 26.5 q-39 0 -65.5 -26.5t-26.5 -63.5q0 -20 -13.5 -33.5t-31.5 -13.5q-45 0 -45 47t-18.5 88t-49.5 71.5t-72 49t-88 18.5t-88 -18.5t-71.5 -49t-49 -71.5t-18.5 -88z" />
<glyph unicode="&#xa0;" />
<glyph unicode="&#xad;" d="M41 637q0 72 50 122t122 50h547q47 0 87 -24.5t62 -65.5l70 -68q49 -49 49 -116q0 -72 -49 -120t-117 -48h-547q-68 0 -116 49l-70 67q-41 23 -64.5 63t-23.5 91zM123 637q0 -39 26.5 -65.5t63.5 -26.5h547q37 0 63.5 26.5t26.5 65.5q0 37 -26.5 63.5t-63.5 26.5h-547 q-37 0 -63.5 -26.5t-26.5 -63.5z" />
<glyph unicode="&#xc0;" d="M41 90v957q0 63 24.5 119.5t65.5 98.5t97.5 66.5t119.5 24.5q-14 8 -18 18l-72 72q-82 49 -82 147q0 23 4 39.5t13 32.5l2 4q51 96 157 96q20 0 38 -5t36 -13l274 -137q53 -29 74 -70l74 -72q45 -45 45 -116q0 -23 -4 -39.5t-12 -32.5q-6 -10 -11.5 -18.5t-9.5 -14.5 q8 -10 14.5 -18t12.5 -19l55 -53q41 -41 65.5 -96t24.5 -117v-956q0 -68 -49 -117t-117 -49q-76 0 -123 47l-71 72q-37 23 -59.5 59.5t-22.5 89.5v277h-103v-379q0 -68 -48 -117t-120 -49q-76 0 -118 47l-72 72q-39 23 -61.5 61.5t-22.5 87.5zM123 90q0 -39 25.5 -64.5 t64.5 -25.5t65.5 26.5t26.5 63.5v410q0 45 45 45h273q45 0 45 -45v-410q0 -41 26.5 -65.5t65.5 -24.5q37 0 63.5 26.5t26.5 63.5v957q0 47 -18.5 88t-49 71.5t-71.5 49t-88 18.5h-273q-47 0 -88 -18.5t-71.5 -49t-49 -71.5t-18.5 -88v-957zM258 1593q0 -55 51 -82l273 -137 q25 -10 39 -10q57 0 84 51q10 25 10 39q0 55 -51 82l-273 137q-25 10 -39 10q-57 0 -84 -51q-10 -25 -10 -39zM305 772q0 20 13.5 33.5t31.5 13.5h273q45 0 45 -47q0 -45 -45 -45h-273q-45 0 -45 45z" />
<glyph unicode="&#xc1;" d="M41 90v957q0 96 52 171.5t134 110.5q-16 18 -32 49l-2 4q-8 16 -12.5 34t-4.5 40q0 102 96 154l275 137q18 8 35.5 13t40.5 5q96 0 149 -84l70 -69q20 -20 35 -49q8 -16 12 -34t4 -40q0 -100 -92 -148l-39 -20q80 -39 123 -113l53 -51q41 -41 65.5 -96t24.5 -117v-956 q0 -68 -49 -117t-117 -49q-76 0 -123 47l-71 72q-37 23 -59.5 59.5t-22.5 89.5v277h-103v-379q0 -68 -48 -117t-120 -49q-76 0 -118 47l-72 72q-39 23 -61.5 61.5t-22.5 87.5zM123 90q0 -39 25.5 -64.5t64.5 -25.5t65.5 26.5t26.5 63.5v410q0 45 45 45h273q45 0 45 -45v-410 q0 -41 26.5 -65.5t65.5 -24.5q37 0 63.5 26.5t26.5 63.5v957q0 47 -18.5 88t-49 71.5t-71.5 49t-88 18.5h-273q-47 0 -88 -18.5t-71.5 -49t-49 -71.5t-18.5 -88v-957zM258 1456q0 -16 10 -41q27 -51 82 -51q16 0 41 10l273 137q51 27 51 80q0 16 -10 41q-27 51 -82 51 q-16 0 -41 -10l-273 -137q-51 -27 -51 -80zM305 772q0 20 13.5 33.5t31.5 13.5h273q45 0 45 -47q0 -45 -45 -45h-273q-45 0 -45 45z" />
<glyph unicode="&#xc2;" d="M41 90v957q0 96 52 172.5t136 111.5l-4 2q-49 55 -49 123q0 63 49 119l140 141q55 49 122 49q35 0 64 -11t57 -40l137 -137q10 -10 17.5 -19.5t13.5 -19.5l68 -68q49 -49 49 -116q0 -59 -37 -107q8 -10 14.5 -18t12.5 -19l55 -53q41 -41 65.5 -96t24.5 -117v-956 q0 -68 -49 -117t-117 -49q-76 0 -123 47l-71 72q-37 23 -59.5 59.5t-22.5 89.5v277h-103v-379q0 -68 -48 -117t-120 -49q-76 0 -118 47l-72 72q-39 23 -61.5 61.5t-22.5 87.5zM123 90q0 -39 25.5 -64.5t64.5 -25.5t65.5 26.5t26.5 63.5v410q0 45 45 45h273q45 0 45 -45v-410 q0 -41 26.5 -65.5t65.5 -24.5q37 0 63.5 26.5t26.5 63.5v957q0 47 -18.5 88t-49 71.5t-71.5 49t-88 18.5h-273q-47 0 -88 -18.5t-71.5 -49t-49 -71.5t-18.5 -88v-957zM258 1456q0 -36 27 -65q27 -27 65 -27q39 0 64 27l73 71l72 -71q27 -27 64 -27q39 0 65.5 26.5t26.5 65.5 q0 37 -27 64l-137 137q-27 27 -64 26q-37 0 -65 -26l-137 -137q-27 -29 -27 -64zM305 772q0 20 13.5 33.5t31.5 13.5h273q45 0 45 -47q0 -45 -45 -45h-273q-45 0 -45 45z" />
<glyph unicode="&#xc3;" d="M41 90v957q0 72 28.5 132t80.5 103l-19 18q-41 23 -65.5 63t-24.5 93q0 63 24.5 119.5t66.5 98.5t98.5 66.5t119.5 24.5q47 0 91 -10t79 -33q25 -16 76 -67q18 49 62 79.5t102 30.5q47 0 87 -24.5t62 -65.5l70 -67q49 -49 49 -119q0 -84 -42 -153.5t-112 -110.5 q4 -4 5.5 -9.5t5.5 -9.5l41 -37l12 -12q41 -41 65.5 -96t24.5 -117v-956q0 -68 -49 -117t-117 -49q-76 0 -123 47l-71 72q-37 23 -59.5 59.5t-22.5 89.5v277h-103v-379q0 -68 -48 -117t-120 -49q-76 0 -118 47l-72 72q-39 23 -61.5 61.5t-22.5 87.5zM123 90 q0 -39 25.5 -64.5t64.5 -25.5t65.5 26.5t26.5 63.5v410q0 45 45 45h273q45 0 45 -45v-410q0 -41 26.5 -65.5t65.5 -24.5q37 0 63.5 26.5t26.5 63.5v957q0 47 -18.5 88t-49 71.5t-71.5 49t-88 18.5h-273q-47 0 -88 -18.5t-71.5 -49t-49 -71.5t-18.5 -88v-957zM123 1456 q0 -39 26.5 -65.5t63.5 -26.5q39 0 65.5 26.5t26.5 65.5q0 45 45 45q18 0 34.5 -10t37.5 -31q45 -45 76 -63q53 -33 125 -33q47 0 88 18.5t71.5 49t49 71.5t18.5 88q0 39 -26.5 65.5t-63.5 26.5q-39 0 -65.5 -26.5t-26.5 -65.5q0 -45 -45 -45q-18 0 -35 10.5t-37 30.5 q-41 43 -74 64q-53 33 -127 32q-47 0 -88 -18t-71.5 -49t-49 -72t-18.5 -88zM305 772q0 20 13.5 33.5t31.5 13.5h273q45 0 45 -47q0 -45 -45 -45h-273q-45 0 -45 45z" />
<glyph unicode="&#xc4;" d="M41 90v957q0 96 52 171.5t134 110.5q-51 51 -51 127q0 72 50 122t124 50q41 0 77 -19.5t58 -49.5q25 31 61 50t77 19q51 0 90 -24.5t61 -65.5l70 -68q49 -49 49 -116q0 -59 -37 -107q8 -10 14.5 -18t12.5 -19l55 -53q41 -41 65.5 -96t24.5 -117v-956q0 -68 -49 -117 t-117 -49q-76 0 -123 47l-71 72q-37 23 -59.5 59.5t-22.5 89.5v277h-103v-379q0 -68 -48 -117t-120 -49q-76 0 -118 47l-72 72q-39 23 -61.5 61.5t-22.5 87.5zM123 90q0 -39 25.5 -64.5t64.5 -25.5t65.5 26.5t26.5 63.5v410q0 45 45 45h273q45 0 45 -45v-410 q0 -41 26.5 -65.5t65.5 -24.5q37 0 63.5 26.5t26.5 63.5v957q0 47 -18.5 88t-49 71.5t-71.5 49t-88 18.5h-273q-47 0 -88 -18.5t-71.5 -49t-49 -71.5t-18.5 -88v-957zM258 1456q0 -39 26.5 -65.5t65.5 -26.5q37 0 63.5 26.5t26.5 65.5q0 37 -26.5 63.5t-63.5 26.5 q-39 0 -65.5 -26.5t-26.5 -63.5zM305 772q0 20 13.5 33.5t31.5 13.5h273q45 0 45 -47q0 -45 -45 -45h-273q-45 0 -45 45zM532 1456q0 -39 27 -65.5t64 -26.5q39 0 65.5 26.5t26.5 65.5q0 37 -26.5 63.5t-65.5 26.5q-37 0 -64 -26.5t-27 -63.5z" />
<glyph unicode="&#xc5;" d="M41 90v957q0 90 46 161.5t120 110.5q-31 63 -31 137q0 127 90 217q92 92 221 92q84 0 153 -41t110 -106l53 -51q41 -41 65.5 -96.5t24.5 -116.5q0 -33 -7 -62.5t-18 -58.5l13 -19l57 -55q41 -41 65.5 -96t24.5 -119v-956q0 -68 -49 -117t-117 -49q-76 0 -123 47l-71 72 q-37 23 -59.5 59.5t-22.5 89.5v277h-103v-379q0 -68 -48 -117t-120 -49q-76 0 -118 47l-72 72q-39 23 -61.5 61.5t-22.5 87.5zM123 90q0 -39 25.5 -64.5t64.5 -25.5t65.5 26.5t26.5 63.5v410q0 45 45 45h273q45 0 45 -45v-410q0 -41 26.5 -65.5t65.5 -24.5q37 0 63.5 26.5 t26.5 63.5v957q0 45 -17.5 87t-48 72.5t-71.5 49t-86 18.5q41 31 64.5 78t23.5 104q0 47 -18.5 88t-49.5 72t-71.5 49t-88.5 18q-96 0 -163 -67q-66 -66 -66 -160q0 -98 68 -162q14 -14 22 -20q-47 0 -88 -18.5t-71.5 -49t-48 -71.5t-17.5 -88v-957zM305 772q0 20 13.5 33.5 t31.5 13.5h273q45 0 45 -47q0 -45 -45 -45h-273q-45 0 -45 45zM440 1456q0 45 47 45q45 0 45 -45q0 -20 -13.5 -33.5t-31.5 -13.5q-20 0 -33.5 13.5t-13.5 33.5z" />
<glyph unicode="&#xc6;" horiz-adv-x="1343" d="M41 90v957q0 127 90 217q92 92 221 92h135q66 0 136 -35q70 35 139 35h272q47 0 88 -24.5t64 -65.5l57 -60l2 -2l8 -6q49 -49 50 -119v-272q0 -41 -19.5 -77t-50.5 -58l10 -13l2 -2l8 -6q49 -49 50 -116q0 -43 -19.5 -79t-50.5 -59l20 -18q49 -49 50 -119v-272 q0 -68 -49.5 -117t-116.5 -49h-273q-66 0 -118 22.5t-97 63.5l-63 63q-10 8 -21.5 16.5t-21.5 18.5q-37 35 -60 78v-96q0 -68 -49 -117t-117 -49q-76 0 -122 47l-72 72q-37 23 -59.5 59.5t-22.5 89.5zM123 90q0 -41 26.5 -65.5t65.5 -24.5q37 0 63.5 26.5t26.5 63.5v410 q0 45 47 45h135q45 0 45 -45v-273q0 -98 68 -161q70 -66 162 -66h272q37 0 63.5 26.5t26.5 63.5v272q0 39 -26.5 66t-63.5 27h-272q-20 0 -33.5 13t-13.5 32q0 45 47 45h272q37 0 63.5 26.5t26.5 65.5q0 37 -26.5 63.5t-63.5 26.5h-272q-20 0 -33.5 13.5t-13.5 31.5 q0 20 13 33.5t34 13.5h272q37 0 63.5 26.5t26.5 63.5v273q0 39 -26.5 65.5t-63.5 26.5h-272q-74 0 -137 -47q-66 47 -138 47h-135q-96 0 -164 -68q-66 -66 -65 -159v-957zM305 772q0 20 13.5 33.5t33.5 13.5h135q45 0 45 -47q0 -45 -45 -45h-135q-20 0 -33.5 13.5 t-13.5 31.5z" />
<glyph unicode="&#xc7;" d="M41 227v820q0 63 24.5 119.5t66.5 98.5t98.5 66.5t119.5 24.5h410q47 0 88 -24.5t63 -65.5l58 -60l2 -2l8 -6q49 -49 49 -119v-272q0 -68 -49 -117t-117 -49h-379v-104h277q47 0 88 -25t63 -66l58 -59l2 -2l8 -6q49 -49 49 -119v-272q0 -68 -49 -117t-117 -49h-108 q-6 -57 -32 -107.5t-66 -87.5t-93 -58.5t-110 -21.5q-70 0 -119 50l-70 69q-41 23 -64.5 62t-23.5 90q0 68 43 114l-33 33q-66 41 -105.5 108.5t-39.5 153.5zM123 227q0 -47 18.5 -88t49 -71.5t71.5 -49t88 -18.5q45 0 45 -47q0 -45 -45 -45q-39 0 -65.5 -26.5t-26.5 -63.5 q0 -39 26.5 -65.5t65.5 -26.5q47 0 88 18t72 49t49.5 72t18.5 88q0 20 13 33.5t32 13.5h137q37 0 63.5 26.5t26.5 63.5v272q0 39 -26.5 66t-63.5 27h-410q-45 0 -45 45v272q0 20 13.5 33.5t31.5 13.5h410q37 0 63.5 26.5t26.5 63.5v273q0 39 -26.5 65.5t-63.5 26.5h-410 q-47 0 -88 -18.5t-71.5 -49t-49 -71.5t-18.5 -88v-820z" />
<glyph unicode="&#xc8;" d="M41 90v1092q0 74 50 124t122 50h135q-14 8 -18 18l-72 72q-82 49 -82 147q0 23 4 39.5t13 32.5l2 4q51 96 157 96q20 0 38 -5t36 -13l274 -137q53 -29 74 -70l74 -72q45 -45 45 -116q0 -16 -2 -28.5t-6 -23.5q6 -8 13 -16t11 -18l70 -68q49 -49 49 -119v-272 q0 -41 -19.5 -77t-50.5 -58l11 -13l2 -2l8 -6q49 -49 49 -116q0 -43 -19.5 -79t-50.5 -59l21 -18q49 -49 49 -119v-272q0 -68 -49 -117t-117 -49h-547q-76 0 -118 47l-72 72q-39 23 -61.5 61.5t-22.5 87.5zM123 90q0 -39 25.5 -64.5t64.5 -25.5h547q37 0 63.5 26.5 t26.5 63.5v272q0 39 -26.5 66t-63.5 27h-410q-45 0 -45 45t45 45h410q37 0 63.5 26.5t26.5 65.5q0 37 -26.5 63.5t-63.5 26.5h-410q-45 0 -45 45q0 20 13.5 33.5t31.5 13.5h410q37 0 63.5 26.5t26.5 63.5v273q0 39 -26.5 65.5t-63.5 26.5h-547q-37 0 -63.5 -26.5 t-26.5 -65.5v-1092zM258 1593q0 -55 51 -82l273 -137q25 -10 39 -10q57 0 84 51q10 25 10 39q0 55 -51 82l-273 137q-25 10 -39 10q-57 0 -84 -51q-10 -25 -10 -39z" />
<glyph unicode="&#xc9;" d="M41 90v1092q0 72 48 121t118 53q-4 6 -12 22l-2 4q-8 16 -12.5 34t-4.5 40q0 102 96 154l275 137q18 8 35.5 13t40.5 5q96 0 149 -84l70 -69q20 -20 35 -49q8 -16 12 -34t4 -40q0 -94 -80 -141q66 -23 96 -82l70 -68q49 -49 49 -119v-272q0 -41 -19.5 -77t-50.5 -58 l21 -21q49 -49 49 -116q0 -43 -19.5 -79t-50.5 -59l21 -18q49 -49 49 -119v-272q0 -68 -49 -117t-117 -49h-547q-76 0 -118 47l-72 72q-39 23 -61.5 61.5t-22.5 87.5zM123 90q0 -39 25.5 -64.5t64.5 -25.5h547q37 0 63.5 26.5t26.5 63.5v272q0 39 -26.5 66t-63.5 27h-410 q-45 0 -45 45t45 45h410q37 0 63.5 26.5t26.5 65.5q0 37 -26.5 63.5t-63.5 26.5h-410q-45 0 -45 45q0 20 13.5 33.5t31.5 13.5h410q37 0 63.5 26.5t26.5 63.5v273q0 39 -26.5 65.5t-63.5 26.5h-547q-37 0 -63.5 -26.5t-26.5 -65.5v-1092zM258 1456q0 -16 10 -41 q27 -51 82 -51q16 0 41 10l273 137q51 27 51 80q0 16 -10 41q-27 51 -82 51q-16 0 -41 -10l-273 -137q-51 -27 -51 -80z" />
<glyph unicode="&#xca;" d="M41 90v1092q0 72 48 121t118 53q-31 45 -31 100q0 63 49 119l140 141q55 49 122 49q35 0 64 -11t57 -40l137 -137q10 -10 17.5 -19.5t13.5 -19.5l68 -68q49 -49 49 -116q0 -16 -2 -28.5t-6 -25.5q6 -8 13 -16t11 -18l70 -68q49 -49 49 -119v-272q0 -41 -19.5 -77 t-50.5 -58l19 -19l2 -2q49 -49 49 -116q0 -43 -19.5 -79t-50.5 -59l21 -18q49 -49 49 -119v-272q0 -68 -49 -117t-117 -49h-547q-76 0 -118 47l-72 72q-39 23 -61.5 61.5t-22.5 87.5zM123 90q0 -39 25.5 -64.5t64.5 -25.5h547q37 0 63.5 26.5t26.5 63.5v272q0 39 -26.5 66 t-63.5 27h-410q-45 0 -45 45t45 45h410q37 0 63.5 26.5t26.5 65.5q0 37 -26.5 63.5t-63.5 26.5h-410q-45 0 -45 45q0 20 13.5 33.5t31.5 13.5h410q37 0 63.5 26.5t26.5 63.5v273q0 39 -26.5 65.5t-63.5 26.5h-547q-37 0 -63.5 -26.5t-26.5 -65.5v-1092zM258 1456 q0 -36 27 -65q27 -27 65 -27q39 0 64 27l73 71l72 -71q27 -27 64 -27q39 0 65.5 26.5t26.5 65.5q0 37 -27 64l-137 137q-27 27 -64 26q-37 0 -65 -26l-137 -137q-27 -29 -27 -64z" />
<glyph unicode="&#xcb;" d="M41 90v1092q0 72 48 121t118 53q-31 43 -31 100q0 72 50 122t124 50q41 0 77 -19.5t58 -49.5q25 31 61 50t77 19q51 0 90 -24.5t61 -65.5l70 -68q49 -49 49 -116q0 -16 -2 -28.5t-6 -25.5q6 -8 13 -16t11 -18l70 -68q49 -49 49 -119v-272q0 -41 -19.5 -77t-50.5 -58 l11 -13l2 -2l8 -6q49 -49 49 -116q0 -43 -19.5 -79t-50.5 -59l13 -12l8 -6q49 -49 49 -119v-272q0 -68 -49 -117t-117 -49h-547q-76 0 -118 47l-72 72q-39 23 -61.5 61.5t-22.5 87.5zM123 90q0 -39 25.5 -64.5t64.5 -25.5h547q37 0 63.5 26.5t26.5 63.5v272q0 39 -26.5 66 t-63.5 27h-410q-45 0 -45 45t45 45h410q37 0 63.5 26.5t26.5 65.5q0 37 -26.5 63.5t-63.5 26.5h-410q-45 0 -45 45q0 20 13.5 33.5t31.5 13.5h410q37 0 63.5 26.5t26.5 63.5v273q0 39 -26.5 65.5t-63.5 26.5h-547q-37 0 -63.5 -26.5t-26.5 -65.5v-1092zM258 1456 q0 -39 26.5 -65.5t65.5 -26.5q37 0 63.5 26.5t26.5 65.5q0 37 -26.5 63.5t-63.5 26.5q-39 0 -65.5 -26.5t-26.5 -63.5zM532 1456q0 -39 27 -65.5t64 -26.5q39 0 65.5 26.5t26.5 65.5q0 37 -26.5 63.5t-65.5 26.5q-37 0 -64 -26.5t-27 -63.5z" />
<glyph unicode="&#xcc;" d="M41 90v272q0 74 50 124.5t122 50.5h100v104q-74 0 -116 47l-72 72q-39 23 -61.5 61.5t-22.5 87.5v273q0 74 50 124t122 50h135q-14 8 -18 18l-72 72q-82 49 -82 147q0 23 4 39.5t13 32.5l2 4q51 96 157 96q20 0 38 -5t36 -13l274 -137q53 -29 74 -70l74 -72 q45 -45 45 -116q0 -16 -2 -28.5t-6 -23.5q8 -8 14 -16t12 -18l58 -60l2 -2l8 -6q49 -49 49 -119v-272q0 -68 -49 -117t-117 -49h-106v-104h4q47 0 87 -25t62 -66l70 -67q49 -49 49 -119v-272q0 -68 -49 -117t-117 -49h-547q-76 0 -118 47l-72 72q-39 23 -61.5 61.5 t-22.5 87.5zM123 90q0 -39 25.5 -64.5t64.5 -25.5h547q37 0 63.5 26.5t26.5 63.5v272q0 39 -26.5 66t-63.5 27h-137q-45 0 -45 45v272q0 20 13 33.5t32 13.5h137q37 0 63.5 26.5t26.5 63.5v273q0 39 -26.5 65.5t-63.5 26.5h-547q-37 0 -63.5 -26.5t-26.5 -65.5v-273 q0 -39 25.5 -64.5t64.5 -25.5h137q45 0 45 -47v-272q0 -45 -45 -45h-137q-37 0 -63.5 -27t-26.5 -66v-272zM258 1593q0 -55 51 -82l273 -137q25 -10 39 -10q57 0 84 51q10 25 10 39q0 55 -51 82l-273 137q-25 10 -39 10q-57 0 -84 -51q-10 -25 -10 -39z" />
<glyph unicode="&#xcd;" d="M41 90v272q0 74 50 124.5t122 50.5h100v104q-74 0 -116 47l-72 72q-39 23 -61.5 61.5t-22.5 87.5v273q0 72 48 121t118 53q-4 6 -12 22l-2 4q-8 16 -12.5 34t-4.5 40q0 102 96 154l275 137q18 8 35.5 13t40.5 5q96 0 149 -84l70 -69q20 -20 35 -49q8 -16 12 -34t4 -40 q0 -94 -80 -141q66 -23 96 -82l68 -66h-2l4 -2q49 -49 49 -119v-272q0 -68 -49 -117t-117 -49h-106v-104h4q47 0 87 -25t62 -66l70 -67q49 -49 49 -119v-272q0 -68 -49 -117t-117 -49h-547q-76 0 -118 47l-72 72q-39 23 -61.5 61.5t-22.5 87.5zM123 90q0 -39 25.5 -64.5 t64.5 -25.5h547q37 0 63.5 26.5t26.5 63.5v272q0 39 -26.5 66t-63.5 27h-137q-45 0 -45 45v272q0 20 13 33.5t32 13.5h137q37 0 63.5 26.5t26.5 63.5v273q0 39 -26.5 65.5t-63.5 26.5h-547q-37 0 -63.5 -26.5t-26.5 -65.5v-273q0 -39 25.5 -64.5t64.5 -25.5h137q45 0 45 -47 v-272q0 -45 -45 -45h-137q-37 0 -63.5 -27t-26.5 -66v-272zM258 1456q0 -16 10 -41q27 -51 82 -51q16 0 41 10l273 137q51 27 51 80q0 16 -10 41q-27 51 -82 51q-16 0 -41 -10l-273 -137q-51 -27 -51 -80z" />
<glyph unicode="&#xce;" d="M41 90v272q0 74 50 124.5t122 50.5h100v104q-74 0 -116 47l-72 72q-39 23 -61.5 61.5t-22.5 87.5v273q0 72 48 121t118 53q-31 45 -31 100q0 63 49 119l140 141q55 49 122 49q35 0 64 -11t57 -40l137 -137q10 -10 17.5 -19.5t13.5 -19.5l68 -68q49 -49 49 -116 q0 -16 -2 -28.5t-6 -25.5q6 -8 13 -16t11 -18l70 -68q49 -49 49 -119v-272q0 -68 -49 -117t-117 -49h-106v-104h4q47 0 87 -25t62 -66l68 -65h-2l4 -2q49 -49 49 -119v-272q0 -68 -49 -117t-117 -49h-547q-76 0 -118 47l-72 72q-39 23 -61.5 61.5t-22.5 87.5zM123 90 q0 -39 25.5 -64.5t64.5 -25.5h547q37 0 63.5 26.5t26.5 63.5v272q0 39 -26.5 66t-63.5 27h-137q-45 0 -45 45v272q0 20 13 33.5t32 13.5h137q37 0 63.5 26.5t26.5 63.5v273q0 39 -26.5 65.5t-63.5 26.5h-547q-37 0 -63.5 -26.5t-26.5 -65.5v-273q0 -39 25.5 -64.5 t64.5 -25.5h137q45 0 45 -47v-272q0 -45 -45 -45h-137q-37 0 -63.5 -27t-26.5 -66v-272zM258 1456q0 -36 27 -65q27 -27 65 -27q39 0 64 27l73 71l72 -71q27 -27 64 -27q39 0 65.5 26.5t26.5 65.5q0 37 -27 64l-137 137q-27 27 -64 26q-37 0 -65 -26l-137 -137 q-27 -29 -27 -64z" />
<glyph unicode="&#xcf;" d="M41 90v272q0 74 50 124.5t122 50.5h100v104q-74 0 -116 47l-72 72q-39 23 -61.5 61.5t-22.5 87.5v273q0 72 48 121t118 53q-31 43 -31 100q0 72 50 122t124 50q41 0 77 -19.5t58 -49.5q25 31 61 50t77 19q51 0 90 -24.5t61 -65.5l68 -65l2 -3q49 -49 49 -116 q0 -16 -2 -28.5t-6 -25.5q6 -8 13 -16t11 -18l70 -68q49 -49 49 -119v-272q0 -68 -49 -117t-117 -49h-106v-104h4q47 0 87 -25t62 -66l70 -67q49 -49 49 -119v-272q0 -68 -49 -117t-117 -49h-547q-76 0 -118 47l-72 72q-39 23 -61.5 61.5t-22.5 87.5zM123 90 q0 -39 25.5 -64.5t64.5 -25.5h547q37 0 63.5 26.5t26.5 63.5v272q0 39 -26.5 66t-63.5 27h-137q-45 0 -45 45v272q0 20 13 33.5t32 13.5h137q37 0 63.5 26.5t26.5 63.5v273q0 39 -26.5 65.5t-63.5 26.5h-547q-37 0 -63.5 -26.5t-26.5 -65.5v-273q0 -39 25.5 -64.5 t64.5 -25.5h137q45 0 45 -47v-272q0 -45 -45 -45h-137q-37 0 -63.5 -27t-26.5 -66v-272zM258 1456q0 -39 26.5 -65.5t65.5 -26.5q37 0 63.5 26.5t26.5 65.5q0 37 -26.5 63.5t-63.5 26.5q-39 0 -65.5 -26.5t-26.5 -63.5zM532 1456q0 -39 27 -65.5t64 -26.5q39 0 65.5 26.5 t26.5 65.5q0 37 -26.5 63.5t-65.5 26.5q-37 0 -64 -26.5t-27 -63.5z" />
<glyph unicode="&#xd0;" horiz-adv-x="1206" d="M41 637q0 61 39 108.5t98 59.5v377q0 74 50.5 124t121.5 50h410q84 0 152.5 -41t109.5 -107l53 -51q41 -41 65.5 -96t24.5 -117v-819q0 -66 -23.5 -121t-63.5 -95t-96 -63.5t-120 -23.5h-409q-76 0 -119 47l-72 72q-39 23 -61.5 61.5t-22.5 87.5v346l-45 43 q-41 23 -66.5 64t-25.5 94zM123 637q0 -39 26.5 -65.5t65.5 -26.5q45 0 45 -45v-410q0 -39 25.5 -64.5t64.5 -25.5h410q98 0 162.5 64.5t64.5 162.5v820q0 47 -18.5 88t-49 71.5t-71.5 49t-88 18.5h-410q-37 0 -63.5 -26.5t-26.5 -65.5v-410q0 -45 -45 -45 q-39 0 -65.5 -26.5t-26.5 -63.5zM442 500q0 45 45 45q37 0 64 26.5t27 65.5q0 37 -27 63.5t-64 26.5q-45 0 -45 45q0 20 13.5 33.5t31.5 13.5h273q45 0 45 -47v-272q0 -45 -45 -45h-273q-45 0 -45 45z" />
<glyph unicode="&#xd1;" d="M41 90v957q0 72 28.5 132t80.5 103l-19 18q-41 23 -65.5 63t-24.5 93q0 63 24.5 119.5t66.5 98.5t98.5 66.5t119.5 24.5q47 0 91 -10t79 -33q25 -16 76 -67q18 49 62 79.5t102 30.5q47 0 87 -24.5t62 -65.5l70 -67q49 -49 49 -119q0 -84 -42 -153.5t-112 -110.5 q4 -4 5.5 -9.5t5.5 -9.5l53 -49q41 -41 65.5 -96t24.5 -117v-956q0 -68 -49 -117t-117 -49q-76 0 -123 47l-71 72q-37 23 -59.5 59.5t-22.5 89.5v551h-103v-653q0 -68 -48 -117t-120 -49q-76 0 -118 47l-72 72q-39 23 -61.5 61.5t-22.5 87.5zM123 90q0 -39 25.5 -64.5 t64.5 -25.5t65.5 26.5t26.5 63.5v682q0 20 13.5 33.5t31.5 13.5h273q45 0 45 -47v-682q0 -41 26.5 -65.5t65.5 -24.5q37 0 63.5 26.5t26.5 63.5v957q0 47 -18.5 88t-49 71.5t-71.5 49t-88 18.5h-273q-47 0 -88 -18.5t-71.5 -49t-49 -71.5t-18.5 -88v-957zM123 1456 q0 -39 26.5 -65.5t63.5 -26.5q39 0 65.5 26.5t26.5 65.5q0 45 45 45q18 0 34.5 -10t37.5 -31q45 -45 76 -63q53 -33 125 -33q47 0 88 18.5t71.5 49t49 71.5t18.5 88q0 39 -26.5 65.5t-63.5 26.5q-39 0 -65.5 -26.5t-26.5 -65.5q0 -45 -45 -45q-18 0 -35 10.5t-37 30.5 q-41 43 -74 64q-53 33 -127 32q-47 0 -88 -18t-71.5 -49t-49 -72t-18.5 -88z" />
<glyph unicode="&#xd2;" d="M41 227v820q0 63 24.5 119.5t65.5 98.5t97.5 66.5t119.5 24.5q-14 8 -18 18l-72 72q-82 49 -82 147q0 23 4 39.5t13 32.5l2 4q51 96 157 96q20 0 38 -5t36 -13l274 -137q53 -29 74 -70l74 -72q45 -45 45 -116q0 -23 -4 -39.5t-12 -32.5q-6 -10 -11.5 -18.5t-9.5 -14.5 q8 -10 14.5 -18t12.5 -19l55 -53q41 -41 65.5 -96t24.5 -117v-819q0 -66 -23.5 -121t-63.5 -95t-96.5 -63.5t-119.5 -23.5h-272q-63 0 -117.5 24.5t-95.5 65.5l-54 53q-66 41 -105.5 109.5t-39.5 152.5zM123 227q0 -47 18.5 -88t49 -71.5t71.5 -49t88 -18.5h273 q98 0 162.5 64.5t64.5 162.5v820q0 47 -18.5 88t-49 71.5t-71.5 49t-88 18.5h-273q-47 0 -88 -18.5t-71.5 -49t-49 -71.5t-18.5 -88v-820zM258 1593q0 -55 51 -82l273 -137q25 -10 39 -10q57 0 84 51q10 25 10 39q0 55 -51 82l-273 137q-25 10 -39 10q-57 0 -84 -51 q-10 -25 -10 -39zM305 500v272q0 20 13.5 33.5t31.5 13.5h273q45 0 45 -47v-272q0 -45 -45 -45h-273q-45 0 -45 45zM483 537h103v104h-103v-104z" />
<glyph unicode="&#xd3;" d="M41 227v820q0 96 52 171.5t134 110.5q-16 18 -32 49l-2 4q-8 16 -12.5 34t-4.5 40q0 102 96 154l275 137q18 8 35.5 13t40.5 5q96 0 149 -84l70 -69q20 -20 35 -49q8 -16 12 -34t4 -40q0 -100 -92 -148l-39 -20q80 -39 123 -113l53 -51q41 -41 65.5 -96t24.5 -117v-819 q0 -66 -23.5 -121t-63.5 -95t-96.5 -63.5t-119.5 -23.5h-272q-63 0 -117.5 24.5t-95.5 65.5l-54 53q-66 41 -105.5 109.5t-39.5 152.5zM123 227q0 -47 18.5 -88t49 -71.5t71.5 -49t88 -18.5h273q98 0 162.5 64.5t64.5 162.5v820q0 47 -18.5 88t-49 71.5t-71.5 49t-88 18.5 h-273q-47 0 -88 -18.5t-71.5 -49t-49 -71.5t-18.5 -88v-820zM258 1456q0 -16 10 -41q27 -51 82 -51q16 0 41 10l273 137q51 27 51 80q0 16 -10 41q-27 51 -82 51q-16 0 -41 -10l-273 -137q-51 -27 -51 -80zM305 500v272q0 20 13.5 33.5t31.5 13.5h273q45 0 45 -47v-272 q0 -45 -45 -45h-273q-45 0 -45 45zM483 537h103v104h-103v-104z" />
<glyph unicode="&#xd4;" d="M41 227v820q0 96 52 172.5t136 111.5l-4 2q-49 55 -49 123q0 63 49 119l140 141q55 49 122 49q35 0 64 -11t57 -40l137 -137q10 -10 17.5 -19.5t13.5 -19.5l68 -68q49 -49 49 -116q0 -59 -37 -107q8 -10 14.5 -18t12.5 -19l55 -53q41 -41 65.5 -96t24.5 -117v-819 q0 -66 -23.5 -121t-63.5 -95t-96.5 -63.5t-119.5 -23.5h-272q-63 0 -117.5 24.5t-95.5 65.5l-54 53q-66 41 -105.5 109.5t-39.5 152.5zM123 227q0 -47 18.5 -88t49 -71.5t71.5 -49t88 -18.5h273q98 0 162.5 64.5t64.5 162.5v820q0 47 -18.5 88t-49 71.5t-71.5 49t-88 18.5 h-273q-47 0 -88 -18.5t-71.5 -49t-49 -71.5t-18.5 -88v-820zM258 1456q0 -36 27 -65q27 -27 65 -27q39 0 64 27l73 71l72 -71q27 -27 64 -27q39 0 65.5 26.5t26.5 65.5q0 37 -27 64l-137 137q-27 27 -64 26q-37 0 -65 -26l-137 -137q-27 -29 -27 -64zM305 500v272 q0 20 13.5 33.5t31.5 13.5h273q45 0 45 -47v-272q0 -45 -45 -45h-273q-45 0 -45 45zM483 537h103v104h-103v-104z" />
<glyph unicode="&#xd5;" d="M41 227v820q0 72 28.5 132t80.5 103l-19 18q-41 23 -65.5 63t-24.5 93q0 63 24.5 119.5t66.5 98.5t98.5 66.5t119.5 24.5q47 0 91 -10t79 -33q25 -16 76 -67q18 49 62 79.5t102 30.5q47 0 87 -24.5t62 -65.5l70 -67q49 -49 49 -119q0 -84 -42 -153.5t-112 -110.5 q4 -4 5.5 -9.5t5.5 -9.5l41 -37l12 -12q41 -41 65.5 -96t24.5 -117v-819q0 -66 -23.5 -121t-63.5 -95t-96.5 -63.5t-119.5 -23.5h-272q-63 0 -117.5 24.5t-95.5 65.5l-54 53q-66 41 -105.5 109.5t-39.5 152.5zM123 227q0 -47 18.5 -88t49 -71.5t71.5 -49t88 -18.5h273 q98 0 162.5 64.5t64.5 162.5v820q0 47 -18.5 88t-49 71.5t-71.5 49t-88 18.5h-273q-47 0 -88 -18.5t-71.5 -49t-49 -71.5t-18.5 -88v-820zM123 1456q0 -39 26.5 -65.5t63.5 -26.5q39 0 65.5 26.5t26.5 65.5q0 45 45 45q18 0 34.5 -10t37.5 -31q45 -45 76 -63q53 -33 125 -33 q47 0 88 18.5t71.5 49t49 71.5t18.5 88q0 39 -26.5 65.5t-63.5 26.5q-39 0 -65.5 -26.5t-26.5 -65.5q0 -45 -45 -45q-18 0 -35 10.5t-37 30.5q-41 43 -74 64q-53 33 -127 32q-47 0 -88 -18t-71.5 -49t-49 -72t-18.5 -88zM305 500v272q0 20 13.5 33.5t31.5 13.5h273 q45 0 45 -47v-272q0 -45 -45 -45h-273q-45 0 -45 45zM483 537h103v104h-103v-104z" />
<glyph unicode="&#xd6;" d="M41 227v820q0 96 52 171.5t134 110.5q-51 51 -51 127q0 72 50 122t124 50q41 0 77 -19.5t58 -49.5q25 31 61 50t77 19q51 0 91 -24.5t62 -65.5l58 -59l2 -2l8 -7q49 -49 49 -116q0 -59 -37 -107q8 -10 14.5 -18t12.5 -19l55 -53q41 -41 65.5 -96t24.5 -117v-819 q0 -66 -23.5 -121t-63.5 -95t-96.5 -63.5t-119.5 -23.5h-272q-63 0 -117.5 24.5t-95.5 65.5l-54 53q-66 41 -105.5 109.5t-39.5 152.5zM123 227q0 -47 18.5 -88t49 -71.5t71.5 -49t88 -18.5h273q98 0 162.5 64.5t64.5 162.5v820q0 47 -18.5 88t-49 71.5t-71.5 49t-88 18.5 h-273q-47 0 -88 -18.5t-71.5 -49t-49 -71.5t-18.5 -88v-820zM258 1456q0 -39 26.5 -65.5t65.5 -26.5q37 0 63.5 26.5t26.5 65.5q0 37 -26.5 63.5t-63.5 26.5q-39 0 -65.5 -26.5t-26.5 -63.5zM305 500v272q0 20 13.5 33.5t31.5 13.5h273q45 0 45 -47v-272q0 -45 -45 -45h-273 q-45 0 -45 45zM483 537h103v104h-103v-104zM532 1456q0 -39 27 -65.5t64 -26.5q39 0 65.5 26.5t26.5 65.5q0 37 -26.5 63.5t-65.5 26.5q-37 0 -64 -26.5t-27 -63.5z" />
<glyph unicode="&#xd8;" d="M41 -47v1094q0 63 24.5 119.5t66.5 98.5t98.5 66.5t119.5 24.5h240q12 57 58 96t112 39q49 0 88 -22.5t61 -61.5l72 -72q23 -23 35 -53.5t12 -64.5v-1092q0 -66 -23.5 -121t-63.5 -95t-96.5 -63.5t-119.5 -23.5h-244q-10 -57 -56 -97t-110 -40q-68 0 -116 49l-70 69 q-41 23 -64.5 63t-23.5 87zM123 -47q0 -37 26.5 -63.5t63.5 -26.5q39 0 65.5 26.5t26.5 63.5q0 20 13.5 33.5t31.5 13.5h273q98 0 162.5 64.5t64.5 162.5v1092q0 39 -25.5 64.5t-64.5 25.5t-65.5 -26.5t-26.5 -63.5q0 -45 -45 -45h-273q-47 0 -88 -18.5t-71.5 -49t-49 -71.5 t-18.5 -88v-1094zM305 500v272q0 20 13.5 33.5t31.5 13.5h273q45 0 45 -47v-272q0 -45 -45 -45h-273q-45 0 -45 45zM483 537h103v104h-103v-104z" />
<glyph unicode="&#xd9;" d="M41 227v955q0 74 50 124t122 50q51 0 90 -24.5t62 -65.5l69 -68q49 -49 49 -119v-542h103v645q0 25 6 49l-215 110q-14 8 -25.5 15.5t-21.5 17.5l-72 72q-82 49 -82 147q0 23 4 39.5t13 32.5l2 4q51 96 157 96q20 0 38 -5t36 -13l274 -137q53 -29 74 -70l74 -72 q45 -45 45 -116q0 -16 -2 -28.5t-6 -23.5q8 -8 14 -16t12 -18l58 -60l2 -2l8 -6q49 -49 49 -119v-954q0 -66 -23.5 -121t-63.5 -95t-96.5 -63.5t-119.5 -23.5h-272q-63 0 -117.5 24.5t-95.5 65.5l-54 53q-66 41 -105.5 109.5t-39.5 152.5zM123 227q0 -47 18.5 -88t49 -71.5 t71.5 -49t88 -18.5h273q98 0 162.5 64.5t64.5 162.5v955q0 39 -26.5 65.5t-63.5 26.5q-39 0 -65.5 -26.5t-26.5 -65.5v-682q0 -45 -45 -45h-273q-45 0 -45 45v682q0 39 -26.5 65.5t-65.5 26.5q-37 0 -63.5 -26.5t-26.5 -65.5v-955zM258 1593q0 -55 51 -82l273 -137 q25 -10 39 -10q57 0 84 51q10 25 10 39q0 55 -51 82l-273 137q-25 10 -39 10q-57 0 -84 -51q-10 -25 -10 -39z" />
<glyph unicode="&#xda;" d="M41 227v955q0 72 48 121t118 53q-4 6 -12 22l-2 4q-8 16 -12.5 34t-4.5 40q0 102 96 154l275 137q18 8 35.5 13t40.5 5q96 0 149 -84l70 -69q20 -20 35 -49q8 -16 12 -34t4 -40q0 -94 -80 -141q66 -23 96 -82l68 -66h-2l4 -2q49 -49 49 -119v-954q0 -66 -23.5 -121 t-63.5 -95t-96.5 -63.5t-119.5 -23.5h-272q-63 0 -117.5 24.5t-95.5 65.5l-54 53q-66 41 -105.5 109.5t-39.5 152.5zM123 227q0 -47 18.5 -88t49 -71.5t71.5 -49t88 -18.5h273q98 0 162.5 64.5t64.5 162.5v955q0 39 -26.5 65.5t-63.5 26.5q-39 0 -65.5 -26.5t-26.5 -65.5 v-682q0 -45 -45 -45h-273q-45 0 -45 45v682q0 39 -26.5 65.5t-65.5 26.5q-37 0 -63.5 -26.5t-26.5 -65.5v-955zM258 1456q0 -16 10 -41q27 -51 82 -51q16 0 41 10l273 137q51 27 51 80q0 16 -10 41q-27 51 -82 51q-16 0 -41 -10l-273 -137q-51 -27 -51 -80zM444 1186 q39 -45 39 -107v-542h103v645q0 29 6 53l-66 -33q-16 -8 -33.5 -12t-39.5 -4h-9z" />
<glyph unicode="&#xdb;" d="M41 227v955q0 72 48 121t118 53q-31 45 -31 100q0 63 49 119l140 141q55 49 122 49q35 0 64 -11t57 -40l137 -137q10 -10 17.5 -19.5t13.5 -19.5l68 -68q49 -49 49 -116q0 -16 -2 -28.5t-6 -25.5q6 -8 13 -16t11 -18l70 -68q49 -49 49 -119v-954q0 -66 -23.5 -121 t-63.5 -95t-96.5 -63.5t-119.5 -23.5h-272q-63 0 -117.5 24.5t-95.5 65.5l-54 53q-66 41 -105.5 109.5t-39.5 152.5zM123 227q0 -47 18.5 -88t49 -71.5t71.5 -49t88 -18.5h273q98 0 162.5 64.5t64.5 162.5v955q0 39 -26.5 65.5t-63.5 26.5q-39 0 -65.5 -26.5t-26.5 -65.5 v-682q0 -45 -45 -45h-273q-45 0 -45 45v682q0 39 -26.5 65.5t-65.5 26.5q-37 0 -63.5 -26.5t-26.5 -65.5v-955zM258 1456q0 -36 27 -65q27 -27 65 -27q39 0 64 27l73 71l72 -71q27 -27 64 -27q39 0 65.5 26.5t26.5 65.5q0 37 -27 64l-137 137q-27 27 -64 26q-37 0 -65 -26 l-137 -137q-27 -29 -27 -64zM444 1186q39 -45 39 -107v-542h103v645q0 29 10 63l-6 8l-17 -16q-45 -51 -120 -51h-9z" />
<glyph unicode="&#xdc;" d="M41 227v955q0 72 48 121t118 53q-31 43 -31 100q0 72 50 122t124 50q41 0 77 -19.5t58 -49.5q25 31 61 50t77 19q51 0 91 -24.5t62 -65.5l58 -59l2 -2l8 -7q49 -49 49 -116q0 -16 -2 -28.5t-6 -25.5q8 -8 14 -16t12 -18l58 -60l2 -2l8 -6q49 -49 49 -119v-954 q0 -66 -23.5 -121t-63.5 -95t-96.5 -63.5t-119.5 -23.5h-272q-63 0 -117.5 24.5t-95.5 65.5l-54 53q-66 41 -105.5 109.5t-39.5 152.5zM123 227q0 -47 18.5 -88t49 -71.5t71.5 -49t88 -18.5h273q98 0 162.5 64.5t64.5 162.5v955q0 39 -26.5 65.5t-63.5 26.5 q-39 0 -65.5 -26.5t-26.5 -65.5v-682q0 -45 -45 -45h-273q-45 0 -45 45v682q0 39 -26.5 65.5t-65.5 26.5q-37 0 -63.5 -26.5t-26.5 -65.5v-955zM258 1456q0 -39 26.5 -65.5t65.5 -26.5q37 0 63.5 26.5t26.5 65.5q0 37 -26.5 63.5t-63.5 26.5q-39 0 -65.5 -26.5t-26.5 -63.5z M444 1186q39 -45 39 -107v-542h103v645q0 29 10 63l-8 10q-23 -33 -58.5 -51t-76.5 -18h-9zM532 1456q0 -39 27 -65.5t64 -26.5q39 0 65.5 26.5t26.5 65.5q0 37 -26.5 63.5t-65.5 26.5q-37 0 -64 -26.5t-27 -63.5z" />
<glyph unicode="&#xdd;" d="M41 637v545q0 72 48 121t118 53q-4 6 -12 22l-2 4q-8 16 -12.5 34t-4.5 40q0 102 96 154l275 137q18 8 35.5 13t40.5 5q96 0 149 -84l70 -69q20 -20 35 -49q8 -16 12 -34t4 -40q0 -94 -80 -141q31 -10 56.5 -32t41.5 -50l58 -60l2 -2l8 -6q49 -49 49 -119v-544 q0 -61 -20.5 -113.5t-57.5 -93.5t-87 -65.5t-107 -31.5v-243q0 -68 -49.5 -117t-116.5 -49q-76 0 -123 47l-72 72q-37 23 -59.5 59.5t-22.5 89.5v174q-45 27 -73 58l-54 53q-66 41 -105.5 109.5t-39.5 152.5zM123 637q0 -47 18.5 -88t49 -72t71.5 -49t88 -18q45 0 45 -48 v-272q0 -41 27 -65.5t65 -24.5q37 0 64 26.5t27 63.5v272q0 20 13 34t32 14q98 0 162.5 64.5t64.5 162.5v545q0 39 -26.5 65.5t-63.5 26.5q-39 0 -65.5 -26.5t-26.5 -65.5v-273q0 -45 -45 -45h-273q-45 0 -45 45v273q0 39 -26.5 65.5t-65.5 26.5q-37 0 -63.5 -26.5 t-26.5 -65.5v-545zM258 1456q0 -16 10 -41q27 -51 82 -51q16 0 41 10l273 137q51 27 51 80q0 16 -10 41q-27 51 -82 51q-16 0 -41 -10l-273 -137q-51 -27 -51 -80zM444 1186q39 -45 39 -107v-133h103v236q0 29 6 53l-66 -33q-16 -8 -33.5 -12t-39.5 -4h-9z" />
<glyph unicode="&#xde;" d="M41 90v1092q0 74 50 124t122 50q51 0 90 -24.5t62 -65.5l69 -68q45 -45 49 -117h140q84 0 152.5 -41t109.5 -106l53 -51q41 -41 65.5 -96.5t24.5 -116.5v-273q0 -61 -23.5 -116.5t-65.5 -97.5t-97.5 -65.5t-116.5 -23.5h-242v-106q0 -68 -48 -117t-120 -49q-76 0 -118 47 l-72 72q-39 23 -61.5 61.5t-22.5 87.5zM123 90q0 -39 25.5 -64.5t64.5 -25.5t65.5 26.5t26.5 63.5v137q0 45 45 45h273q47 0 88 18.5t71.5 49.5t49 72t18.5 88v272q0 47 -18.5 88t-49 72t-71.5 49t-88 18h-273q-45 0 -45 48v135q0 39 -26.5 65.5t-65.5 26.5 q-37 0 -63.5 -26.5t-26.5 -65.5v-1092zM305 500v272q0 20 13.5 33.5t31.5 13.5h273q45 0 45 -47v-272q0 -45 -45 -45h-273q-45 0 -45 45zM483 537h103v104h-103v-104z" />
<glyph unicode="&#xdf;" d="M41 90v957q0 63 24.5 119.5t66.5 98.5t98.5 66.5t119.5 24.5h273q84 0 152.5 -41t109.5 -107l53 -51q41 -41 65.5 -96t24.5 -117v-274q0 -76 -33 -135q33 -63 33 -138v-272q0 -66 -23.5 -121t-63.5 -95t-96.5 -63.5t-119.5 -23.5h-135q-76 0 -123 47l-18 18 q-23 -29 -58 -47t-76 -18q-76 0 -118 47l-72 72q-39 23 -61.5 61.5t-22.5 87.5zM123 90q0 -39 25.5 -64.5t64.5 -25.5t65.5 26.5t26.5 63.5v682q0 20 13.5 33.5t31.5 13.5h273q45 0 45 -47q0 -45 -45 -45h-136q-39 0 -65.5 -26.5t-26.5 -63.5q0 -39 27 -65.5t65 -26.5h136 q45 0 45 -45t-45 -45h-136q-39 0 -65.5 -27t-26.5 -66v-272q0 -41 27 -65.5t65 -24.5h136q98 0 162.5 64.5t64.5 162.5v273q0 78 -45 137q45 57 45 135v275q0 47 -18.5 88t-49 71.5t-71.5 49t-88 18.5h-273q-47 0 -88 -18.5t-71.5 -49t-49 -71.5t-18.5 -88v-957z" />
<glyph unicode="&#xe0;" d="M41 227v273q0 70 28.5 131t80.5 102l-25 25q-39 23 -61.5 62.5t-22.5 88.5v273q0 74 50 124t122 50h135q-14 8 -18 18l-72 72q-82 49 -82 147q0 23 4 39.5t13 32.5l2 4q51 96 157 96q20 0 38 -5t36 -13l274 -137q53 -29 74 -70l74 -72q45 -45 45 -116q0 -23 -4 -39.5 t-12 -32.5q-6 -10 -11.5 -18.5t-9.5 -14.5q8 -10 14.5 -18t12.5 -19l55 -53q41 -41 65.5 -96t24.5 -117v-819q0 -66 -23.5 -121t-63.5 -95t-96.5 -63.5t-119.5 -23.5h-272q-63 0 -117.5 24.5t-95.5 65.5l-54 53q-66 41 -105.5 109.5t-39.5 152.5zM123 227q0 -47 18.5 -88 t49 -71.5t71.5 -49t88 -18.5h273q98 0 162.5 64.5t64.5 162.5v820q0 47 -18.5 88t-49 71.5t-71.5 49t-88 18.5h-410q-37 0 -63.5 -26.5t-26.5 -65.5v-273q0 -39 25.5 -64.5t64.5 -25.5h410q45 0 45 -47q0 -45 -45 -45h-273q-47 0 -88 -18.5t-71.5 -49t-49 -71.5t-18.5 -88 v-273zM258 1593q0 -55 51 -82l273 -137q25 -10 39 -10q57 0 84 51q10 25 10 39q0 55 -51 82l-273 137q-25 10 -39 10q-57 0 -84 -51q-10 -25 -10 -39zM305 500q0 45 45 45h273q45 0 45 -45t-45 -45h-273q-45 0 -45 45z" />
<glyph unicode="&#xe1;" d="M41 227v273q0 70 28.5 131t80.5 102l-25 25q-39 23 -61.5 62.5t-22.5 88.5v273q0 72 48 121t118 53q-4 6 -12 22l-2 4q-8 16 -12.5 34t-4.5 40q0 102 96 154l275 137q18 8 35.5 13t40.5 5q96 0 149 -84l70 -69q20 -20 35 -49q8 -16 12 -34t4 -40q0 -100 -92 -148l-39 -20 q80 -39 123 -113l53 -51q41 -41 65.5 -96t24.5 -117v-819q0 -66 -23.5 -121t-63.5 -95t-96.5 -63.5t-119.5 -23.5h-272q-63 0 -117.5 24.5t-95.5 65.5l-54 53q-66 41 -105.5 109.5t-39.5 152.5zM123 227q0 -47 18.5 -88t49 -71.5t71.5 -49t88 -18.5h273q98 0 162.5 64.5 t64.5 162.5v820q0 47 -18.5 88t-49 71.5t-71.5 49t-88 18.5h-410q-37 0 -63.5 -26.5t-26.5 -65.5v-273q0 -39 25.5 -64.5t64.5 -25.5h410q45 0 45 -47q0 -45 -45 -45h-273q-47 0 -88 -18.5t-71.5 -49t-49 -71.5t-18.5 -88v-273zM258 1456q0 -16 10 -41q27 -51 82 -51 q16 0 41 10l273 137q51 27 51 80q0 16 -10 41q-27 51 -82 51q-16 0 -41 -10l-273 -137q-51 -27 -51 -80zM305 500q0 45 45 45h273q45 0 45 -45t-45 -45h-273q-45 0 -45 45z" />
<glyph unicode="&#xe2;" d="M41 227v273q0 70 28.5 131t80.5 102l-25 25q-39 23 -61.5 62.5t-22.5 88.5v273q0 72 48 121t118 53q-31 45 -31 100q0 63 49 119l140 141q55 49 122 49q35 0 64 -11t57 -40l137 -137q10 -10 17.5 -19.5t13.5 -19.5l68 -68q49 -49 49 -116q0 -59 -37 -107q8 -10 14.5 -18 t12.5 -19l55 -53q41 -41 65.5 -96t24.5 -117v-819q0 -66 -23.5 -121t-63.5 -95t-96.5 -63.5t-119.5 -23.5h-272q-63 0 -117.5 24.5t-95.5 65.5l-54 53q-66 41 -105.5 109.5t-39.5 152.5zM123 227q0 -47 18.5 -88t49 -71.5t71.5 -49t88 -18.5h273q98 0 162.5 64.5t64.5 162.5 v820q0 47 -18.5 88t-49 71.5t-71.5 49t-88 18.5h-410q-37 0 -63.5 -26.5t-26.5 -65.5v-273q0 -39 25.5 -64.5t64.5 -25.5h410q45 0 45 -47q0 -45 -45 -45h-273q-47 0 -88 -18.5t-71.5 -49t-49 -71.5t-18.5 -88v-273zM258 1456q0 -36 27 -65q27 -27 65 -27q39 0 64 27l73 71 l72 -71q27 -27 64 -27q39 0 65.5 26.5t26.5 65.5q0 37 -27 64l-137 137q-27 27 -64 26q-37 0 -65 -26l-137 -137q-27 -29 -27 -64zM305 500q0 45 45 45h273q45 0 45 -45t-45 -45h-273q-45 0 -45 45z" />
<glyph unicode="&#xe3;" d="M41 227v273q0 70 28.5 131t80.5 102l-25 25q-39 23 -61.5 62.5t-22.5 88.5v273q0 41 18.5 76.5t46.5 60.5q-29 23 -47 58.5t-18 78.5q0 63 24.5 119.5t66.5 98.5t98.5 66.5t119.5 24.5q47 0 91 -10t79 -33q25 -16 76 -67q18 49 62 79.5t102 30.5q47 0 87 -24.5t62 -65.5 l70 -67q49 -49 49 -119q0 -84 -42 -153.5t-112 -110.5q4 -4 5.5 -9.5t5.5 -9.5l53 -49q41 -41 65.5 -96t24.5 -117v-819q0 -66 -23.5 -121t-63.5 -95t-96.5 -63.5t-119.5 -23.5h-272q-63 0 -117.5 24.5t-95.5 65.5l-54 53q-66 41 -105.5 109.5t-39.5 152.5zM123 227 q0 -47 18.5 -88t49 -71.5t71.5 -49t88 -18.5h273q98 0 162.5 64.5t64.5 162.5v820q0 47 -18.5 88t-49 71.5t-71.5 49t-88 18.5h-410q-37 0 -63.5 -26.5t-26.5 -65.5v-273q0 -39 25.5 -64.5t64.5 -25.5h410q45 0 45 -47q0 -45 -45 -45h-273q-47 0 -88 -18.5t-71.5 -49 t-49 -71.5t-18.5 -88v-273zM123 1456q0 -39 26.5 -65.5t63.5 -26.5q39 0 65.5 26.5t26.5 65.5q0 45 45 45q18 0 34.5 -10t37.5 -31q45 -45 76 -63q53 -33 125 -33q47 0 88 18.5t71.5 49t49 71.5t18.5 88q0 39 -26.5 65.5t-63.5 26.5q-39 0 -65.5 -26.5t-26.5 -65.5 q0 -45 -45 -45q-18 0 -35 10.5t-37 30.5q-41 43 -74 64q-53 33 -127 32q-47 0 -88 -18t-71.5 -49t-49 -72t-18.5 -88zM305 500q0 45 45 45h273q45 0 45 -45t-45 -45h-273q-45 0 -45 45z" />
<glyph unicode="&#xe4;" d="M41 227v273q0 70 28.5 131t80.5 102l-25 25q-39 23 -61.5 62.5t-22.5 88.5v273q0 72 48 121t118 53q-31 43 -31 100q0 72 50 122t124 50q41 0 77 -19.5t58 -49.5q25 31 61 50t77 19q51 0 90 -24.5t61 -65.5l70 -68q49 -49 49 -116q0 -59 -37 -107q8 -10 14.5 -18 t12.5 -19l55 -53q41 -41 65.5 -96t24.5 -117v-819q0 -66 -23.5 -121t-63.5 -95t-96.5 -63.5t-119.5 -23.5h-272q-63 0 -117.5 24.5t-95.5 65.5l-54 53q-66 41 -105.5 109.5t-39.5 152.5zM123 227q0 -47 18.5 -88t49 -71.5t71.5 -49t88 -18.5h273q98 0 162.5 64.5t64.5 162.5 v820q0 47 -18.5 88t-49 71.5t-71.5 49t-88 18.5h-410q-37 0 -63.5 -26.5t-26.5 -65.5v-273q0 -39 25.5 -64.5t64.5 -25.5h410q45 0 45 -47q0 -45 -45 -45h-273q-47 0 -88 -18.5t-71.5 -49t-49 -71.5t-18.5 -88v-273zM258 1456q0 -39 26.5 -65.5t65.5 -26.5q37 0 63.5 26.5 t26.5 65.5q0 37 -26.5 63.5t-63.5 26.5q-39 0 -65.5 -26.5t-26.5 -63.5zM305 500q0 45 45 45h273q45 0 45 -45t-45 -45h-273q-45 0 -45 45zM532 1456q0 -39 27 -65.5t64 -26.5q39 0 65.5 26.5t26.5 65.5q0 37 -26.5 63.5t-65.5 26.5q-37 0 -64 -26.5t-27 -63.5z" />
<glyph unicode="&#xe5;" d="M41 227v273q0 70 28.5 131t80.5 102l-25 25q-39 23 -61.5 62.5t-22.5 88.5v273q0 68 43 116t109 56q-10 25 -13.5 50.5t-3.5 51.5q0 127 90 217q92 92 221 92q84 0 153 -41t110 -106l53 -51q41 -41 65.5 -96.5t24.5 -116.5q0 -33 -7 -62.5t-18 -58.5l13 -19l49 -47l8 -8 q41 -41 65.5 -96t24.5 -119v-819q0 -66 -23.5 -121t-63.5 -95t-96.5 -63.5t-119.5 -23.5h-272q-63 0 -117.5 24.5t-95.5 65.5l-54 53q-66 41 -105.5 109.5t-39.5 152.5zM123 227q0 -47 18.5 -88t49 -71.5t71.5 -49t88 -18.5h273q98 0 162.5 64.5t64.5 162.5v820 q0 45 -17.5 87t-48 72.5t-71.5 49t-86 18.5q41 31 64.5 78t23.5 104q0 47 -18.5 88t-49.5 72t-71.5 49t-88.5 18q-96 0 -163 -67q-66 -66 -66 -160q0 -98 68 -162q14 -14 22 -20h-135q-37 0 -63.5 -26.5t-26.5 -65.5v-273q0 -39 25.5 -64.5t64.5 -25.5h410q45 0 45 -47 q0 -45 -45 -45h-273q-47 0 -88 -18.5t-71.5 -49t-49 -71.5t-18.5 -88v-273zM305 500q0 45 45 45h273q45 0 45 -45t-45 -45h-273q-45 0 -45 45zM440 1456q0 45 47 45q45 0 45 -45q0 -20 -13.5 -33.5t-31.5 -13.5q-20 0 -33.5 13.5t-13.5 33.5z" />
<glyph unicode="&#xe6;" horiz-adv-x="1343" d="M41 227v273q0 127 90 217q10 10 16 14l-24 27q-39 20 -60.5 59t-21.5 92v273q0 74 50 124t124 50h272q66 0 136 -35q70 35 139 35h135q84 0 152.5 -41t109.5 -107l53 -51q41 -41 66 -96t25 -117v-274q0 -70 -30 -130.5t-79 -101.5l59 -59q49 -49 50 -119v-272 q0 -68 -49.5 -117t-116.5 -49h-273q-78 0 -137 33q-63 -33 -137 -33h-135q-66 0 -118 22.5t-97 63.5l-64 63q-10 8 -21.5 16.5t-21.5 18.5q-47 45 -69.5 100.5t-22.5 120.5zM123 227q0 -98 67 -161q70 -66 162 -66h135q78 0 138 45q57 -45 137 -45h272q37 0 63.5 26.5 t26.5 63.5v272q0 39 -26.5 66t-63.5 27h-272q-20 0 -33.5 13t-13.5 32q0 45 47 45h135q47 0 88 18.5t71.5 49t49 71.5t18.5 88v275q0 47 -18.5 88t-49 71.5t-71.5 49t-88 18.5h-135q-74 0 -137 -47q-66 47 -138 47h-272q-39 0 -65.5 -26.5t-26.5 -65.5v-273 q0 -41 26.5 -65.5t65.5 -24.5h272q45 0 45 -47q0 -45 -45 -45h-135q-96 0 -164 -68q-66 -66 -65 -159v-273zM305 500q0 45 47 45h135q45 0 45 -45t-45 -45h-135q-20 0 -33.5 13.5t-13.5 31.5zM715 772q0 20 13 33.5t34 13.5h135q45 0 45 -47q0 -45 -45 -45h-135 q-20 0 -33.5 13.5t-13.5 31.5z" />
<glyph unicode="&#xe7;" d="M41 227v820q0 63 24.5 119.5t66.5 98.5t98.5 66.5t119.5 24.5h273q84 0 152.5 -41t109.5 -107l53 -51q41 -41 65.5 -96t24.5 -117v-274q0 -41 -18.5 -76t-48.5 -57l20 -21q23 -23 35 -53.5t12 -65.5v-272q0 -61 -20.5 -113.5t-57.5 -92.5t-87 -64.5t-109 -30.5 q-6 -57 -32 -107.5t-66 -88.5t-93 -59.5t-110 -21.5q-70 0 -119 50l-70 69q-41 23 -64.5 62t-23.5 90q0 68 43 114l-33 33q-66 41 -105.5 108.5t-39.5 153.5zM123 227q0 -47 18.5 -88t49 -71.5t71.5 -49t88 -18.5q45 0 45 -47q0 -45 -45 -45q-39 0 -65.5 -26.5t-26.5 -63.5 q0 -39 26.5 -65.5t65.5 -26.5q47 0 88 18t72 49t49.5 72t18.5 88q0 20 13 33.5t32 13.5q98 0 162.5 64.5t64.5 162.5v273q0 39 -25.5 64.5t-64.5 25.5t-65.5 -26.5t-26.5 -63.5q0 -45 -45 -45h-273q-45 0 -45 45v272q0 20 13.5 33.5t31.5 13.5h273q45 0 45 -47 q0 -37 26.5 -63.5t65.5 -26.5q37 0 63.5 26.5t26.5 63.5v275q0 47 -18.5 88t-49 71.5t-71.5 49t-88 18.5h-273q-47 0 -88 -18.5t-71.5 -49t-49 -71.5t-18.5 -88v-820zM483 537h107q12 59 63 98q-2 2 -4 3t-4 3h-162v-104z" />
<glyph unicode="&#xe8;" d="M41 227v820q0 63 24.5 119.5t65.5 98.5t97.5 66.5t119.5 24.5q-14 8 -18 18l-72 72q-82 49 -82 147q0 23 4 39.5t13 32.5l2 4q51 96 157 96q20 0 38 -5t36 -13l274 -137q53 -29 74 -70l74 -72q45 -45 45 -116q0 -23 -4 -39.5t-12 -32.5q-6 -10 -11.5 -18.5t-9.5 -14.5 q8 -10 14.5 -18t12.5 -19l55 -53q41 -41 65.5 -96t24.5 -117v-274q0 -70 -29.5 -130.5t-78.5 -101.5l49 -51l2 -2l8 -6q49 -49 49 -119v-272q0 -68 -49 -117t-117 -49h-409q-63 0 -117.5 24.5t-95.5 65.5l-54 53q-66 41 -105.5 109.5t-39.5 152.5zM123 227q0 -47 18.5 -88 t49 -71.5t71.5 -49t88 -18.5h410q37 0 63.5 26.5t26.5 63.5v272q0 39 -26.5 66t-63.5 27h-410q-45 0 -45 45t45 45h273q47 0 88 18.5t71.5 49t49 71.5t18.5 88v275q0 47 -18.5 88t-49 71.5t-71.5 49t-88 18.5h-273q-47 0 -88 -18.5t-71.5 -49t-49 -71.5t-18.5 -88v-820z M258 1593q0 -55 51 -82l273 -137q25 -10 39 -10q57 0 84 51q10 25 10 39q0 55 -51 82l-273 137q-25 10 -39 10q-57 0 -84 -51q-10 -25 -10 -39zM305 772q0 20 13.5 33.5t31.5 13.5h273q45 0 45 -47q0 -45 -45 -45h-273q-45 0 -45 45zM969 387q2 0 2 -2z" />
<glyph unicode="&#xe9;" d="M41 227v820q0 96 52 171.5t134 110.5q-16 18 -32 49l-2 4q-8 16 -12.5 34t-4.5 40q0 102 96 154l275 137q18 8 35.5 13t40.5 5q96 0 149 -84l70 -69q20 -20 35 -49q8 -16 12 -34t4 -40q0 -100 -92 -148l-39 -20q80 -39 123 -113l53 -51q41 -41 65.5 -96t24.5 -117v-274 q0 -70 -29.5 -130.5t-78.5 -101.5l49 -51l2 -2l8 -6q49 -49 49 -119v-272q0 -68 -49 -117t-117 -49h-409q-63 0 -117.5 24.5t-95.5 65.5l-54 53q-66 41 -105.5 109.5t-39.5 152.5zM123 227q0 -47 18.5 -88t49 -71.5t71.5 -49t88 -18.5h410q37 0 63.5 26.5t26.5 63.5v272 q0 39 -26.5 66t-63.5 27h-410q-45 0 -45 45t45 45h273q47 0 88 18.5t71.5 49t49 71.5t18.5 88v275q0 47 -18.5 88t-49 71.5t-71.5 49t-88 18.5h-273q-47 0 -88 -18.5t-71.5 -49t-49 -71.5t-18.5 -88v-820zM258 1456q0 -16 10 -41q27 -51 82 -51q16 0 41 10l273 137 q51 27 51 80q0 16 -10 41q-27 51 -82 51q-16 0 -41 -10l-273 -137q-51 -27 -51 -80zM305 772q0 20 13.5 33.5t31.5 13.5h273q45 0 45 -47q0 -45 -45 -45h-273q-45 0 -45 45zM969 387q2 0 2 -2z" />
<glyph unicode="&#xea;" d="M41 227v820q0 96 52 172.5t136 111.5l-4 2q-49 55 -49 123q0 63 49 119l140 141q55 49 122 49q35 0 64 -11t57 -40l137 -137q10 -10 17.5 -19.5t13.5 -19.5l68 -68q49 -49 49 -116q0 -59 -37 -107q8 -10 14.5 -18t12.5 -19l55 -53q41 -41 65.5 -96t24.5 -117v-274 q0 -70 -29.5 -130.5t-78.5 -101.5l59 -59q49 -49 49 -119v-272q0 -68 -49 -117t-117 -49h-409q-63 0 -117.5 24.5t-95.5 65.5l-54 53q-66 41 -105.5 109.5t-39.5 152.5zM123 227q0 -47 18.5 -88t49 -71.5t71.5 -49t88 -18.5h410q37 0 63.5 26.5t26.5 63.5v272q0 39 -26.5 66 t-63.5 27h-410q-45 0 -45 45t45 45h273q47 0 88 18.5t71.5 49t49 71.5t18.5 88v275q0 47 -18.5 88t-49 71.5t-71.5 49t-88 18.5h-273q-47 0 -88 -18.5t-71.5 -49t-49 -71.5t-18.5 -88v-820zM258 1456q0 -36 27 -65q27 -27 65 -27q39 0 64 27l73 71l72 -71q27 -27 64 -27 q39 0 65.5 26.5t26.5 65.5q0 37 -27 64l-137 137q-27 27 -64 26q-37 0 -65 -26l-137 -137q-27 -29 -27 -64zM305 772q0 20 13.5 33.5t31.5 13.5h273q45 0 45 -47q0 -45 -45 -45h-273q-45 0 -45 45z" />
<glyph unicode="&#xeb;" d="M41 227v820q0 96 52 171.5t134 110.5q-51 51 -51 127q0 72 50 122t124 50q41 0 77 -19.5t58 -49.5q25 31 61 50t77 19q51 0 90 -24.5t61 -65.5l70 -68q49 -49 49 -116q0 -59 -37 -107q8 -10 14.5 -18t12.5 -19l55 -53q41 -41 65.5 -96t24.5 -117v-274q0 -70 -29.5 -130.5 t-78.5 -101.5l49 -51l2 -2l8 -6q49 -49 49 -119v-272q0 -68 -49 -117t-117 -49h-409q-63 0 -117.5 24.5t-95.5 65.5l-54 53q-66 41 -105.5 109.5t-39.5 152.5zM123 227q0 -47 18.5 -88t49 -71.5t71.5 -49t88 -18.5h410q37 0 63.5 26.5t26.5 63.5v272q0 39 -26.5 66t-63.5 27 h-410q-45 0 -45 45t45 45h273q47 0 88 18.5t71.5 49t49 71.5t18.5 88v275q0 47 -18.5 88t-49 71.5t-71.5 49t-88 18.5h-273q-47 0 -88 -18.5t-71.5 -49t-49 -71.5t-18.5 -88v-820zM258 1456q0 -39 26.5 -65.5t65.5 -26.5q37 0 63.5 26.5t26.5 65.5q0 37 -26.5 63.5 t-63.5 26.5q-39 0 -65.5 -26.5t-26.5 -63.5zM305 772q0 20 13.5 33.5t31.5 13.5h273q45 0 45 -47q0 -45 -45 -45h-273q-45 0 -45 45zM532 1456q0 -39 27 -65.5t64 -26.5q39 0 65.5 26.5t26.5 65.5q0 37 -26.5 63.5t-65.5 26.5q-37 0 -64 -26.5t-27 -63.5zM969 387q2 0 2 -2z " />
<glyph unicode="&#xec;" horiz-adv-x="798" d="M41 1593q0 23 4 40.5t12 33.5q51 98 158 98q20 0 37.5 -5t36.5 -13l276 -137q53 -29 74 -70l74 -72q45 -45 45 -116q0 -20 -4 -37t-13 -33l-2 -4q-47 -92 -151 -92h-6q39 -45 39 -107v-1091q0 -68 -48.5 -117t-119.5 -49q-76 0 -119 47l-72 72q-39 23 -61.5 61.5 t-22.5 87.5v1092q0 47 22.5 87t59.5 62l-18 10q-14 8 -25.5 15.5t-21.5 17.5l-72 72q-82 51 -82 147zM123 1593q0 -55 51 -82l272 -137q25 -10 39 -10q57 0 84 51q10 25 11 39q0 55 -52 82l-274 137q-25 10 -39 10q-55 0 -82 -51q-10 -25 -10 -39zM260 90q0 -39 25.5 -64.5 t64.5 -25.5t65.5 26.5t26.5 63.5v1092q0 39 -26.5 65.5t-65.5 26.5q-37 0 -63.5 -26.5t-26.5 -65.5v-1092z" />
<glyph unicode="&#xed;" horiz-adv-x="798" d="M41 1456q0 102 96 154l275 137q18 8 35.5 13t39.5 5q96 0 148 -82l70 -69q20 -20 34 -49l2 -4q8 -16 12.5 -33t4.5 -39q0 -100 -92 -148l-158 -79l63 -64q49 -49 50 -119v-1091q0 -68 -48.5 -117t-119.5 -49q-76 0 -119 47l-72 72q-39 23 -61.5 61.5t-22.5 87.5v1092 q0 29 10 59l-59 59q-45 25 -72 80q-8 16 -12 34t-4 42zM123 1456q0 -16 10 -41q27 -51 80 -51q16 0 41 10l274 137q51 27 52 80q-1 16 -11 41q-27 51 -82 51q-16 0 -41 -10l-272 -137q-51 -27 -51 -80zM260 90q0 -39 25.5 -64.5t64.5 -25.5t65.5 26.5t26.5 63.5v1092 q0 39 -26.5 65.5t-65.5 26.5q-37 0 -63.5 -26.5t-26.5 -65.5v-1092z" />
<glyph unicode="&#xee;" horiz-adv-x="798" d="M41 1456q0 63 49 119l139 141q55 49 121 49t121 -49l137 -139q4 -4 8.5 -10t14.5 -17.5t27.5 -30t48.5 -49.5q51 -51 51 -116q0 -68 -48 -118t-120 -50h-8q39 -45 39 -107v-1091q0 -68 -48.5 -117t-119.5 -49q-76 0 -119 47l-72 72q-39 23 -61.5 61.5t-22.5 87.5v1092 q0 33 12 63l-57 58q-41 23 -66.5 64.5t-25.5 88.5zM123 1456q0 -35 26.5 -63.5t65.5 -28.5t64 27l71 71l72 -71q27 -27 65 -27q39 0 66 27.5t27 64.5q0 35 -29 64l-135 137q-29 27 -66 26q-35 0 -63 -26l-137 -137q-27 -29 -27 -64zM260 90q0 -39 25.5 -64.5t64.5 -25.5 t65.5 26.5t26.5 63.5v1092q0 39 -26.5 65.5t-65.5 26.5q-37 0 -63.5 -26.5t-26.5 -65.5v-1092z" />
<glyph unicode="&#xef;" horiz-adv-x="796" d="M41 1456q0 72 50 122t124 50q41 0 76 -18.5t57 -48.5q25 31 60.5 49t78.5 18q47 0 87 -24.5t63 -65.5l70 -68q49 -49 49 -116q0 -72 -49.5 -120t-116.5 -48h-8q39 -45 39 -107v-1091q0 -68 -48.5 -117t-119.5 -49q-76 0 -119 47l-72 72q-39 23 -61.5 61.5t-22.5 87.5 v1092q0 31 10 61l-57 60q-41 23 -65.5 62.5t-24.5 90.5zM123 1456q0 -39 26.5 -65.5t65.5 -26.5q37 0 63.5 26.5t26.5 65.5q0 37 -26.5 63.5t-63.5 26.5q-39 0 -65.5 -26.5t-26.5 -63.5zM260 90q0 -39 25.5 -64.5t64.5 -25.5t65.5 26.5t26.5 63.5v1092q0 39 -26.5 65.5 t-65.5 26.5q-37 0 -63.5 -26.5t-26.5 -65.5v-1092zM395 1456q0 -39 27 -65.5t65 -26.5q37 0 64 26.5t27 65.5q0 37 -27 63.5t-64 26.5q-39 0 -65.5 -26.5t-26.5 -63.5z" />
<glyph unicode="&#xf0;" horiz-adv-x="1206" d="M41 637q0 61 39 108.5t98 59.5v377q0 74 50.5 124t121.5 50h410q84 0 152.5 -41t109.5 -107l53 -51q41 -41 65.5 -96t24.5 -117v-819q0 -66 -23.5 -121t-63.5 -95t-96 -63.5t-120 -23.5h-409q-76 0 -119 47l-72 72q-39 23 -61.5 61.5t-22.5 87.5v346l-45 43 q-41 23 -66.5 64t-25.5 94zM123 637q0 -39 26.5 -65.5t65.5 -26.5q45 0 45 -45v-410q0 -39 25.5 -64.5t64.5 -25.5h410q98 0 162.5 64.5t64.5 162.5v820q0 47 -18.5 88t-49 71.5t-71.5 49t-88 18.5h-410q-37 0 -63.5 -26.5t-26.5 -65.5v-410q0 -45 -45 -45 q-39 0 -65.5 -26.5t-26.5 -63.5zM442 500q0 45 45 45q37 0 64 26.5t27 65.5q0 37 -27 63.5t-64 26.5q-45 0 -45 45q0 20 13.5 33.5t31.5 13.5h273q45 0 45 -47v-272q0 -45 -45 -45h-273q-45 0 -45 45z" />
<glyph unicode="&#xf1;" d="M41 90v957q0 72 28.5 132t80.5 103l-19 18q-41 23 -65.5 63t-24.5 93q0 63 24.5 119.5t66.5 98.5t98.5 66.5t119.5 24.5q47 0 91 -10t79 -33q25 -16 76 -67q18 49 62 79.5t102 30.5q47 0 87 -24.5t62 -65.5l70 -67q49 -49 49 -119q0 -84 -42 -153.5t-112 -110.5 q4 -4 5.5 -9.5t5.5 -9.5l53 -49q41 -41 65.5 -96t24.5 -117v-956q0 -68 -49 -117t-117 -49q-76 0 -123 47l-71 72q-37 23 -59.5 59.5t-22.5 89.5v551h-103v-653q0 -68 -48 -117t-120 -49q-76 0 -118 47l-72 72q-39 23 -61.5 61.5t-22.5 87.5zM123 90q0 -39 25.5 -64.5 t64.5 -25.5t65.5 26.5t26.5 63.5v682q0 20 13.5 33.5t31.5 13.5h273q45 0 45 -47v-682q0 -41 26.5 -65.5t65.5 -24.5q37 0 63.5 26.5t26.5 63.5v957q0 47 -18.5 88t-49 71.5t-71.5 49t-88 18.5h-273q-47 0 -88 -18.5t-71.5 -49t-49 -71.5t-18.5 -88v-957zM123 1456 q0 -39 26.5 -65.5t63.5 -26.5q39 0 65.5 26.5t26.5 65.5q0 45 45 45q18 0 34.5 -10t37.5 -31q45 -45 76 -63q53 -33 125 -33q47 0 88 18.5t71.5 49t49 71.5t18.5 88q0 39 -26.5 65.5t-63.5 26.5q-39 0 -65.5 -26.5t-26.5 -65.5q0 -45 -45 -45q-18 0 -35 10.5t-37 30.5 q-41 43 -74 64q-53 33 -127 32q-47 0 -88 -18t-71.5 -49t-49 -72t-18.5 -88z" />
<glyph unicode="&#xf2;" d="M41 227v820q0 63 24.5 119.5t65.5 98.5t97.5 66.5t119.5 24.5q-14 8 -18 18l-72 72q-82 49 -82 147q0 23 4 39.5t13 32.5l2 4q51 96 157 96q20 0 38 -5t36 -13l274 -137q53 -29 74 -70l74 -72q45 -45 45 -116q0 -23 -4 -39.5t-12 -32.5q-6 -10 -11.5 -18.5t-9.5 -14.5 q8 -10 14.5 -18t12.5 -19l55 -53q41 -41 65.5 -96t24.5 -117v-819q0 -66 -23.5 -121t-63.5 -95t-96.5 -63.5t-119.5 -23.5h-272q-63 0 -117.5 24.5t-95.5 65.5l-54 53q-66 41 -105.5 109.5t-39.5 152.5zM123 227q0 -47 18.5 -88t49 -71.5t71.5 -49t88 -18.5h273 q98 0 162.5 64.5t64.5 162.5v820q0 47 -18.5 88t-49 71.5t-71.5 49t-88 18.5h-273q-47 0 -88 -18.5t-71.5 -49t-49 -71.5t-18.5 -88v-820zM258 1593q0 -55 51 -82l273 -137q25 -10 39 -10q57 0 84 51q10 25 10 39q0 55 -51 82l-273 137q-25 10 -39 10q-57 0 -84 -51 q-10 -25 -10 -39zM305 500v272q0 20 13.5 33.5t31.5 13.5h273q45 0 45 -47v-272q0 -45 -45 -45h-273q-45 0 -45 45zM483 537h103v104h-103v-104z" />
<glyph unicode="&#xf3;" d="M41 227v820q0 96 52 171.5t134 110.5q-16 18 -32 49l-2 4q-8 16 -12.5 34t-4.5 40q0 102 96 154l275 137q18 8 35.5 13t40.5 5q96 0 149 -84l70 -69q20 -20 35 -49q8 -16 12 -34t4 -40q0 -100 -92 -148l-39 -20q80 -39 123 -113l53 -51q41 -41 65.5 -96t24.5 -117v-819 q0 -66 -23.5 -121t-63.5 -95t-96.5 -63.5t-119.5 -23.5h-272q-63 0 -117.5 24.5t-95.5 65.5l-54 53q-66 41 -105.5 109.5t-39.5 152.5zM123 227q0 -47 18.5 -88t49 -71.5t71.5 -49t88 -18.5h273q98 0 162.5 64.5t64.5 162.5v820q0 47 -18.5 88t-49 71.5t-71.5 49t-88 18.5 h-273q-47 0 -88 -18.5t-71.5 -49t-49 -71.5t-18.5 -88v-820zM258 1456q0 -16 10 -41q27 -51 82 -51q16 0 41 10l273 137q51 27 51 80q0 16 -10 41q-27 51 -82 51q-16 0 -41 -10l-273 -137q-51 -27 -51 -80zM305 500v272q0 20 13.5 33.5t31.5 13.5h273q45 0 45 -47v-272 q0 -45 -45 -45h-273q-45 0 -45 45zM483 537h103v104h-103v-104z" />
<glyph unicode="&#xf4;" d="M41 227v820q0 96 52 172.5t136 111.5l-4 2q-49 55 -49 123q0 63 49 119l140 141q55 49 122 49q35 0 64 -11t57 -40l137 -137q10 -10 17.5 -19.5t13.5 -19.5l68 -68q49 -49 49 -116q0 -59 -37 -107q8 -10 14.5 -18t12.5 -19l55 -53q41 -41 65.5 -96t24.5 -117v-819 q0 -66 -23.5 -121t-63.5 -95t-96.5 -63.5t-119.5 -23.5h-272q-63 0 -117.5 24.5t-95.5 65.5l-54 53q-66 41 -105.5 109.5t-39.5 152.5zM123 227q0 -47 18.5 -88t49 -71.5t71.5 -49t88 -18.5h273q98 0 162.5 64.5t64.5 162.5v820q0 47 -18.5 88t-49 71.5t-71.5 49t-88 18.5 h-273q-47 0 -88 -18.5t-71.5 -49t-49 -71.5t-18.5 -88v-820zM258 1456q0 -36 27 -65q27 -27 65 -27q39 0 64 27l73 71l72 -71q27 -27 64 -27q39 0 65.5 26.5t26.5 65.5q0 37 -27 64l-137 137q-27 27 -64 26q-37 0 -65 -26l-137 -137q-27 -29 -27 -64zM305 500v272 q0 20 13.5 33.5t31.5 13.5h273q45 0 45 -47v-272q0 -45 -45 -45h-273q-45 0 -45 45zM483 537h103v104h-103v-104z" />
<glyph unicode="&#xf5;" d="M41 227v820q0 72 28.5 132t80.5 103l-19 18q-41 23 -65.5 63t-24.5 93q0 63 24.5 119.5t66.5 98.5t98.5 66.5t119.5 24.5q47 0 91 -10t79 -33q25 -16 76 -67q18 49 62 79.5t102 30.5q47 0 87 -24.5t62 -65.5l70 -67q49 -49 49 -119q0 -84 -42 -153.5t-112 -110.5 q4 -4 5.5 -9.5t5.5 -9.5l41 -37l12 -12q41 -41 65.5 -96t24.5 -117v-819q0 -66 -23.5 -121t-63.5 -95t-96.5 -63.5t-119.5 -23.5h-272q-63 0 -117.5 24.5t-95.5 65.5l-54 53q-66 41 -105.5 109.5t-39.5 152.5zM123 227q0 -47 18.5 -88t49 -71.5t71.5 -49t88 -18.5h273 q98 0 162.5 64.5t64.5 162.5v820q0 47 -18.5 88t-49 71.5t-71.5 49t-88 18.5h-273q-47 0 -88 -18.5t-71.5 -49t-49 -71.5t-18.5 -88v-820zM123 1456q0 -39 26.5 -65.5t63.5 -26.5q39 0 65.5 26.5t26.5 65.5q0 45 45 45q18 0 34.5 -10t37.5 -31q45 -45 76 -63q53 -33 125 -33 q47 0 88 18.5t71.5 49t49 71.5t18.5 88q0 39 -26.5 65.5t-63.5 26.5q-39 0 -65.5 -26.5t-26.5 -65.5q0 -45 -45 -45q-18 0 -35 10.5t-37 30.5q-41 43 -74 64q-53 33 -127 32q-47 0 -88 -18t-71.5 -49t-49 -72t-18.5 -88zM305 500v272q0 20 13.5 33.5t31.5 13.5h273 q45 0 45 -47v-272q0 -45 -45 -45h-273q-45 0 -45 45zM483 537h103v104h-103v-104z" />
<glyph unicode="&#xf6;" d="M41 227v820q0 96 52 171.5t134 110.5q-51 51 -51 127q0 72 50 122t124 50q41 0 77 -19.5t58 -49.5q25 31 61 50t77 19q51 0 91 -24.5t62 -65.5l58 -59l2 -2l8 -7q49 -49 49 -116q0 -59 -37 -107q8 -10 14.5 -18t12.5 -19l55 -53q41 -41 65.5 -96t24.5 -117v-819 q0 -66 -23.5 -121t-63.5 -95t-96.5 -63.5t-119.5 -23.5h-272q-63 0 -117.5 24.5t-95.5 65.5l-54 53q-66 41 -105.5 109.5t-39.5 152.5zM123 227q0 -47 18.5 -88t49 -71.5t71.5 -49t88 -18.5h273q98 0 162.5 64.5t64.5 162.5v820q0 47 -18.5 88t-49 71.5t-71.5 49t-88 18.5 h-273q-47 0 -88 -18.5t-71.5 -49t-49 -71.5t-18.5 -88v-820zM258 1456q0 -39 26.5 -65.5t65.5 -26.5q37 0 63.5 26.5t26.5 65.5q0 37 -26.5 63.5t-63.5 26.5q-39 0 -65.5 -26.5t-26.5 -63.5zM305 500v272q0 20 13.5 33.5t31.5 13.5h273q45 0 45 -47v-272q0 -45 -45 -45h-273 q-45 0 -45 45zM483 537h103v104h-103v-104zM532 1456q0 -39 27 -65.5t64 -26.5q39 0 65.5 26.5t26.5 65.5q0 37 -26.5 63.5t-65.5 26.5q-37 0 -64 -26.5t-27 -63.5z" />
<glyph unicode="&#xf8;" d="M41 -47v1094q0 63 24.5 119.5t66.5 98.5t98.5 66.5t119.5 24.5h240q12 57 58 96t112 39q49 0 88 -22.5t61 -61.5l72 -72q23 -23 35 -53.5t12 -64.5v-1092q0 -66 -23.5 -121t-63.5 -95t-96.5 -63.5t-119.5 -23.5h-244q-10 -57 -56 -97t-110 -40q-68 0 -116 49l-70 69 q-41 23 -64.5 63t-23.5 87zM123 -47q0 -37 26.5 -63.5t63.5 -26.5q39 0 65.5 26.5t26.5 63.5q0 20 13.5 33.5t31.5 13.5h273q98 0 162.5 64.5t64.5 162.5v1092q0 39 -25.5 64.5t-64.5 25.5t-65.5 -26.5t-26.5 -63.5q0 -45 -45 -45h-273q-47 0 -88 -18.5t-71.5 -49t-49 -71.5 t-18.5 -88v-1094zM305 500v272q0 20 13.5 33.5t31.5 13.5h273q45 0 45 -47v-272q0 -45 -45 -45h-273q-45 0 -45 45zM483 537h103v104h-103v-104z" />
<glyph unicode="&#xf9;" d="M41 227v955q0 74 50 124t122 50q51 0 90 -24.5t62 -65.5l69 -68q49 -49 49 -119v-542h103v645q0 25 6 49l-215 110q-14 8 -25.5 15.5t-21.5 17.5l-72 72q-82 49 -82 147q0 23 4 39.5t13 32.5l2 4q51 96 157 96q20 0 38 -5t36 -13l274 -137q53 -29 74 -70l74 -72 q45 -45 45 -116q0 -16 -2 -28.5t-6 -23.5q8 -8 14 -16t12 -18l58 -60l2 -2l8 -6q49 -49 49 -119v-954q0 -66 -23.5 -121t-63.5 -95t-96.5 -63.5t-119.5 -23.5h-272q-63 0 -117.5 24.5t-95.5 65.5l-54 53q-66 41 -105.5 109.5t-39.5 152.5zM123 227q0 -47 18.5 -88t49 -71.5 t71.5 -49t88 -18.5h273q98 0 162.5 64.5t64.5 162.5v955q0 39 -26.5 65.5t-63.5 26.5q-39 0 -65.5 -26.5t-26.5 -65.5v-682q0 -45 -45 -45h-273q-45 0 -45 45v682q0 39 -26.5 65.5t-65.5 26.5q-37 0 -63.5 -26.5t-26.5 -65.5v-955zM258 1593q0 -55 51 -82l273 -137 q25 -10 39 -10q57 0 84 51q10 25 10 39q0 55 -51 82l-273 137q-25 10 -39 10q-57 0 -84 -51q-10 -25 -10 -39z" />
<glyph unicode="&#xfa;" d="M41 227v955q0 72 48 121t118 53q-4 6 -12 22l-2 4q-8 16 -12.5 34t-4.5 40q0 102 96 154l275 137q18 8 35.5 13t40.5 5q96 0 149 -84l70 -69q20 -20 35 -49q8 -16 12 -34t4 -40q0 -94 -80 -141q66 -23 96 -82l68 -66h-2l4 -2q49 -49 49 -119v-954q0 -66 -23.5 -121 t-63.5 -95t-96.5 -63.5t-119.5 -23.5h-272q-63 0 -117.5 24.5t-95.5 65.5l-54 53q-66 41 -105.5 109.5t-39.5 152.5zM123 227q0 -47 18.5 -88t49 -71.5t71.5 -49t88 -18.5h273q98 0 162.5 64.5t64.5 162.5v955q0 39 -26.5 65.5t-63.5 26.5q-39 0 -65.5 -26.5t-26.5 -65.5 v-682q0 -45 -45 -45h-273q-45 0 -45 45v682q0 39 -26.5 65.5t-65.5 26.5q-37 0 -63.5 -26.5t-26.5 -65.5v-955zM258 1456q0 -16 10 -41q27 -51 82 -51q16 0 41 10l273 137q51 27 51 80q0 16 -10 41q-27 51 -82 51q-16 0 -41 -10l-273 -137q-51 -27 -51 -80zM444 1186 q39 -45 39 -107v-542h103v645q0 29 6 53l-66 -33q-16 -8 -33.5 -12t-39.5 -4h-9z" />
<glyph unicode="&#xfb;" d="M41 227v955q0 72 48 121t118 53q-31 45 -31 100q0 63 49 119l140 141q55 49 122 49q35 0 64 -11t57 -40l137 -137q10 -10 17.5 -19.5t13.5 -19.5l68 -68q49 -49 49 -116q0 -16 -2 -28.5t-6 -25.5q6 -8 13 -16t11 -18l70 -68q49 -49 49 -119v-954q0 -66 -23.5 -121 t-63.5 -95t-96.5 -63.5t-119.5 -23.5h-272q-63 0 -117.5 24.5t-95.5 65.5l-54 53q-66 41 -105.5 109.5t-39.5 152.5zM123 227q0 -47 18.5 -88t49 -71.5t71.5 -49t88 -18.5h273q98 0 162.5 64.5t64.5 162.5v955q0 39 -26.5 65.5t-63.5 26.5q-39 0 -65.5 -26.5t-26.5 -65.5 v-682q0 -45 -45 -45h-273q-45 0 -45 45v682q0 39 -26.5 65.5t-65.5 26.5q-37 0 -63.5 -26.5t-26.5 -65.5v-955zM258 1456q0 -36 27 -65q27 -27 65 -27q39 0 64 27l73 71l72 -71q27 -27 64 -27q39 0 65.5 26.5t26.5 65.5q0 37 -27 64l-137 137q-27 27 -64 26q-37 0 -65 -26 l-137 -137q-27 -29 -27 -64zM444 1186q39 -45 39 -107v-542h103v645q0 29 10 63l-6 8l-17 -16q-45 -51 -120 -51h-9z" />
<glyph unicode="&#xfc;" d="M41 227v955q0 72 48 121t118 53q-31 43 -31 100q0 72 50 122t124 50q41 0 77 -19.5t58 -49.5q25 31 61 50t77 19q51 0 91 -24.5t62 -65.5l58 -59l2 -2l8 -7q49 -49 49 -116q0 -16 -2 -28.5t-6 -25.5q8 -8 14 -16t12 -18l58 -60l2 -2l8 -6q49 -49 49 -119v-954 q0 -66 -23.5 -121t-63.5 -95t-96.5 -63.5t-119.5 -23.5h-272q-63 0 -117.5 24.5t-95.5 65.5l-54 53q-66 41 -105.5 109.5t-39.5 152.5zM123 227q0 -47 18.5 -88t49 -71.5t71.5 -49t88 -18.5h273q98 0 162.5 64.5t64.5 162.5v955q0 39 -26.5 65.5t-63.5 26.5 q-39 0 -65.5 -26.5t-26.5 -65.5v-682q0 -45 -45 -45h-273q-45 0 -45 45v682q0 39 -26.5 65.5t-65.5 26.5q-37 0 -63.5 -26.5t-26.5 -65.5v-955zM258 1456q0 -39 26.5 -65.5t65.5 -26.5q37 0 63.5 26.5t26.5 65.5q0 37 -26.5 63.5t-63.5 26.5q-39 0 -65.5 -26.5t-26.5 -63.5z M444 1186q39 -45 39 -107v-542h103v645q0 29 10 63l-8 10q-23 -33 -58.5 -51t-76.5 -18h-9zM532 1456q0 -39 27 -65.5t64 -26.5q39 0 65.5 26.5t26.5 65.5q0 37 -26.5 63.5t-65.5 26.5q-37 0 -64 -26.5t-27 -63.5zM969 1206q2 0 2 -2z" />
<glyph unicode="&#xfd;" d="M41 637v545q0 72 48 121t118 53q-4 6 -12 22l-2 4q-8 16 -12.5 34t-4.5 40q0 102 96 154l275 137q18 8 35.5 13t40.5 5q96 0 149 -84l70 -69q20 -20 35 -49q8 -16 12 -34t4 -40q0 -94 -80 -141q31 -10 56.5 -32t41.5 -50l58 -60l2 -2l8 -6q49 -49 49 -119v-544 q0 -61 -20.5 -113.5t-57.5 -93.5t-87 -65.5t-107 -31.5v-243q0 -68 -49.5 -117t-116.5 -49q-76 0 -123 47l-72 72q-37 23 -59.5 59.5t-22.5 89.5v174q-45 27 -73 58l-54 53q-66 41 -105.5 109.5t-39.5 152.5zM123 637q0 -47 18.5 -88t49 -72t71.5 -49t88 -18q45 0 45 -48 v-272q0 -41 27 -65.5t65 -24.5q37 0 64 26.5t27 63.5v272q0 20 13 34t32 14q98 0 162.5 64.5t64.5 162.5v545q0 39 -26.5 65.5t-63.5 26.5q-39 0 -65.5 -26.5t-26.5 -65.5v-273q0 -45 -45 -45h-273q-45 0 -45 45v273q0 39 -26.5 65.5t-65.5 26.5q-37 0 -63.5 -26.5 t-26.5 -65.5v-545zM258 1456q0 -16 10 -41q27 -51 82 -51q16 0 41 10l273 137q51 27 51 80q0 16 -10 41q-27 51 -82 51q-16 0 -41 -10l-273 -137q-51 -27 -51 -80zM444 1186q39 -45 39 -107v-133h103v236q0 29 6 53l-66 -33q-16 -8 -33.5 -12t-39.5 -4h-9z" />
<glyph unicode="&#xfe;" d="M41 90v1092q0 74 50 124t122 50q51 0 90 -24.5t62 -65.5l69 -68q45 -45 49 -117h140q84 0 152.5 -41t109.5 -106l53 -51q41 -41 65.5 -96.5t24.5 -116.5v-273q0 -61 -23.5 -116.5t-65.5 -97.5t-97.5 -65.5t-116.5 -23.5h-242v-106q0 -68 -48 -117t-120 -49q-76 0 -118 47 l-72 72q-39 23 -61.5 61.5t-22.5 87.5zM123 90q0 -39 25.5 -64.5t64.5 -25.5t65.5 26.5t26.5 63.5v137q0 45 45 45h273q47 0 88 18.5t71.5 49.5t49 72t18.5 88v272q0 47 -18.5 88t-49 72t-71.5 49t-88 18h-273q-45 0 -45 48v135q0 39 -26.5 65.5t-65.5 26.5 q-37 0 -63.5 -26.5t-26.5 -65.5v-1092zM305 500v272q0 20 13.5 33.5t31.5 13.5h273q45 0 45 -47v-272q0 -45 -45 -45h-273q-45 0 -45 45zM483 537h103v104h-103v-104z" />
<glyph unicode="&#xff;" d="M41 637v545q0 72 48 121t118 53q-31 43 -31 100q0 72 50 122t124 50q41 0 77 -19.5t58 -49.5q25 31 61 50t77 19q51 0 91 -24.5t62 -65.5l58 -59l2 -2l8 -7q49 -49 49 -116q0 -16 -2 -28.5t-6 -25.5q8 -8 14 -16t12 -18l58 -60l2 -2l8 -6q49 -49 49 -119v-544 q0 -61 -20.5 -113.5t-57.5 -93.5t-87 -65.5t-107 -31.5v-243q0 -68 -49.5 -117t-116.5 -49q-76 0 -123 47l-72 72q-37 23 -59.5 59.5t-22.5 89.5v174q-45 27 -73 58l-54 53q-66 41 -105.5 109.5t-39.5 152.5zM123 637q0 -47 18.5 -88t49 -72t71.5 -49t88 -18q45 0 45 -48 v-272q0 -41 27 -65.5t65 -24.5q37 0 64 26.5t27 63.5v272q0 20 13 34t32 14q98 0 162.5 64.5t64.5 162.5v545q0 39 -26.5 65.5t-63.5 26.5q-39 0 -65.5 -26.5t-26.5 -65.5v-273q0 -45 -45 -45h-273q-45 0 -45 45v273q0 39 -26.5 65.5t-65.5 26.5q-37 0 -63.5 -26.5 t-26.5 -65.5v-545zM258 1456q0 -39 26.5 -65.5t65.5 -26.5q37 0 63.5 26.5t26.5 65.5q0 37 -26.5 63.5t-63.5 26.5q-39 0 -65.5 -26.5t-26.5 -63.5zM444 1186q39 -45 39 -107v-133h103v236q0 29 10 63l-8 10q-23 -33 -58.5 -51t-76.5 -18h-9zM532 1456q0 -39 27 -65.5 t64 -26.5q39 0 65.5 26.5t26.5 65.5q0 37 -26.5 63.5t-65.5 26.5q-37 0 -64 -26.5t-27 -63.5z" />
<glyph unicode="&#x152;" horiz-adv-x="1343" d="M41 227v820q0 127 90 217q92 92 221 92h135q66 0 136 -35q70 35 139 35h272q47 0 87 -24.5t63 -65.5l69 -68q49 -49 50 -119v-272q0 -41 -19.5 -77t-50.5 -58l10 -13l2 -2l8 -6q49 -49 50 -116q0 -43 -19.5 -79t-50.5 -59l20 -18q49 -49 50 -119v-272q0 -68 -49.5 -117 t-116.5 -49h-273q-78 0 -137 33q-63 -33 -137 -33h-135q-66 0 -118 22.5t-97 63.5l-64 63q-10 8 -21.5 16.5t-21.5 18.5q-47 45 -69.5 100.5t-22.5 120.5zM123 227q0 -98 67 -161q70 -66 162 -66h135q78 0 138 45q57 -45 137 -45h272q37 0 63.5 26.5t26.5 63.5v272 q0 39 -26.5 66t-63.5 27h-272q-20 0 -33.5 13t-13.5 32q0 45 47 45h272q37 0 63.5 26.5t26.5 65.5q0 37 -26.5 63.5t-63.5 26.5h-272q-20 0 -33.5 13.5t-13.5 31.5q0 20 13 33.5t34 13.5h272q37 0 63.5 26.5t26.5 63.5v273q0 39 -26.5 65.5t-63.5 26.5h-272q-74 0 -137 -47 q-66 47 -138 47h-135q-96 0 -164 -68q-66 -66 -65 -159v-820zM305 500v272q0 20 13.5 33.5t33.5 13.5h135q45 0 45 -47v-272q0 -45 -45 -45h-135q-20 0 -33.5 13t-13.5 32z" />
<glyph unicode="&#x153;" horiz-adv-x="1343" d="M41 227v820q0 127 90 217q92 92 221 92h135q66 0 136 -35q70 35 139 35h135q84 0 152.5 -41t109.5 -107l53 -51q41 -41 66 -96t25 -117v-274q0 -70 -30 -130.5t-79 -101.5l59 -59q49 -49 50 -119v-272q0 -68 -49.5 -117t-116.5 -49h-273q-78 0 -137 33q-63 -33 -137 -33 h-135q-66 0 -118 22.5t-97 63.5l-64 63q-10 8 -21.5 16.5t-21.5 18.5q-47 45 -69.5 100.5t-22.5 120.5zM123 227q0 -98 67 -161q70 -66 162 -66h135q78 0 138 45q57 -45 137 -45h272q37 0 63.5 26.5t26.5 63.5v272q0 39 -26.5 66t-63.5 27h-272q-20 0 -33.5 13t-13.5 32 q0 45 47 45h135q47 0 88 18.5t71.5 49t49 71.5t18.5 88v275q0 47 -18.5 88t-49 71.5t-71.5 49t-88 18.5h-135q-74 0 -137 -47q-66 47 -138 47h-135q-96 0 -164 -68q-66 -66 -65 -159v-820zM305 500v272q0 20 13.5 33.5t33.5 13.5h135q45 0 45 -47v-272q0 -45 -45 -45h-135 q-20 0 -33.5 13t-13.5 32zM715 772q0 20 13 33.5t34 13.5h135q45 0 45 -47q0 -45 -45 -45h-135q-20 0 -33.5 13.5t-13.5 31.5z" />
<glyph unicode="&#x178;" d="M41 637v545q0 72 48 121t118 53q-31 43 -31 100q0 72 50 122t124 50q41 0 77 -19.5t58 -49.5q25 31 61 50t77 19q51 0 91 -24.5t62 -65.5l58 -59l2 -2l8 -7q49 -49 49 -116q0 -16 -2 -28.5t-6 -25.5q8 -8 14 -16t12 -18l58 -60l2 -2l8 -6q49 -49 49 -119v-544 q0 -61 -20.5 -113.5t-57.5 -93.5t-87 -65.5t-107 -31.5v-243q0 -68 -49.5 -117t-116.5 -49q-76 0 -123 47l-72 72q-37 23 -59.5 59.5t-22.5 89.5v174q-45 27 -73 58l-54 53q-66 41 -105.5 109.5t-39.5 152.5zM123 637q0 -47 18.5 -88t49 -72t71.5 -49t88 -18q45 0 45 -48 v-272q0 -41 27 -65.5t65 -24.5q37 0 64 26.5t27 63.5v272q0 20 13 34t32 14q98 0 162.5 64.5t64.5 162.5v545q0 39 -26.5 65.5t-63.5 26.5q-39 0 -65.5 -26.5t-26.5 -65.5v-273q0 -45 -45 -45h-273q-45 0 -45 45v273q0 39 -26.5 65.5t-65.5 26.5q-37 0 -63.5 -26.5 t-26.5 -65.5v-545zM258 1456q0 -39 26.5 -65.5t65.5 -26.5q37 0 63.5 26.5t26.5 65.5q0 37 -26.5 63.5t-63.5 26.5q-39 0 -65.5 -26.5t-26.5 -63.5zM444 1186q39 -45 39 -107v-133h103v236q0 29 10 63l-8 10q-23 -33 -58.5 -51t-76.5 -18h-9zM532 1456q0 -39 27 -65.5 t64 -26.5q39 0 65.5 26.5t26.5 65.5q0 37 -26.5 63.5t-65.5 26.5q-37 0 -64 -26.5t-27 -63.5z" />
<glyph unicode="&#x2000;" horiz-adv-x="882" />
<glyph unicode="&#x2001;" horiz-adv-x="1765" />
<glyph unicode="&#x2002;" horiz-adv-x="882" />
<glyph unicode="&#x2003;" horiz-adv-x="1765" />
<glyph unicode="&#x2004;" horiz-adv-x="588" />
<glyph unicode="&#x2005;" horiz-adv-x="441" />
<glyph unicode="&#x2006;" horiz-adv-x="294" />
<glyph unicode="&#x2007;" horiz-adv-x="294" />
<glyph unicode="&#x2008;" horiz-adv-x="220" />
<glyph unicode="&#x2009;" horiz-adv-x="353" />
<glyph unicode="&#x200a;" horiz-adv-x="98" />
<glyph unicode="&#x2010;" d="M41 637q0 72 50 122t122 50h547q47 0 87 -24.5t62 -65.5l70 -68q49 -49 49 -116q0 -72 -49 -120t-117 -48h-547q-68 0 -116 49l-70 67q-41 23 -64.5 63t-23.5 91zM123 637q0 -39 26.5 -65.5t63.5 -26.5h547q37 0 63.5 26.5t26.5 65.5q0 37 -26.5 63.5t-63.5 26.5h-547 q-37 0 -63.5 -26.5t-26.5 -63.5z" />
<glyph unicode="&#x2011;" d="M41 637q0 72 50 122t122 50h547q47 0 87 -24.5t62 -65.5l70 -68q49 -49 49 -116q0 -72 -49 -120t-117 -48h-547q-68 0 -116 49l-70 67q-41 23 -64.5 63t-23.5 91zM123 637q0 -39 26.5 -65.5t63.5 -26.5h547q37 0 63.5 26.5t26.5 65.5q0 37 -26.5 63.5t-63.5 26.5h-547 q-37 0 -63.5 -26.5t-26.5 -63.5z" />
<glyph unicode="&#x2012;" d="M41 637q0 72 50 122t122 50h547q47 0 87 -24.5t62 -65.5l70 -68q49 -49 49 -116q0 -72 -49 -120t-117 -48h-547q-68 0 -116 49l-70 67q-41 23 -64.5 63t-23.5 91zM123 637q0 -39 26.5 -65.5t63.5 -26.5h547q37 0 63.5 26.5t26.5 65.5q0 37 -26.5 63.5t-63.5 26.5h-547 q-37 0 -63.5 -26.5t-26.5 -63.5z" />
<glyph unicode="&#x2013;" horiz-adv-x="1106" d="M41 637q0 72 52 122t126 50h568q49 0 90.5 -24.5t64.5 -65.5l72 -68q51 -49 51 -116q0 -72 -51 -120t-121 -48h-568q-70 0 -120 49l-73 67q-42 23 -66.5 63t-24.5 91zM126 637q0 -39 27.5 -65.5t65.5 -26.5h568q38 0 65.5 26.5t27.5 65.5q0 37 -27.5 63.5t-65.5 26.5 h-568q-38 0 -65.5 -26.5t-27.5 -63.5z" />
<glyph unicode="&#x2014;" horiz-adv-x="2130" d="M41 637q0 72 103.5 122t253.5 50h1135q97 0 180 -24.5t129 -65.5l145 -68q102 -49 102 -116q0 -72 -101.5 -120t-242.5 -48h-1135q-142 0 -241 49l-145 67q-85 23 -134 63t-49 91zM211 637q0 -39 55 -65.5t132 -26.5h1135q77 0 132 26.5t55 65.5q0 37 -55 63.5t-132 26.5 h-1135q-77 0 -132 -26.5t-55 -63.5z" />
<glyph unicode="&#x202f;" horiz-adv-x="353" />
<glyph unicode="&#x205f;" horiz-adv-x="441" />
<glyph unicode="&#x25fc;" horiz-adv-x="1351" d="M0 0v1352h1352v-1352h-1352z" />
</font>
</defs>
</svg>
