<?xml version="1.0" encoding="utf-8"?>
<!-- Generator: Adobe Illustrator 16.0.0, SVG Export Plug-In . SVG Version: 6.00 Build 0)  -->
<!DOCTYPE svg PUBLIC "-//W3C//DTD SVG 1.1//EN" "http://www.w3.org/Graphics/SVG/1.1/DTD/svg11.dtd">
<svg version="1.1" id="Layer_1" xmlns="http://www.w3.org/2000/svg" xmlns:xlink="http://www.w3.org/1999/xlink" x="0px" y="0px"
	 width="841.89px" height="595.28px" viewBox="0 0 841.89 595.28" enable-background="new 0 0 841.89 595.28" xml:space="preserve">
<g>
	<g>
		<path fill="#3B71B8" d="M259.374,320.786c-3.5,2.815-7.575,4.244-12.105,4.244c-5.818,0-9.963-1.399-12.319-4.155
			c-2.368-2.767-3.567-7.033-3.567-12.682c0-5.644,1.212-9.911,3.606-12.68c2.38-2.756,6.516-4.155,12.279-4.155
			c4.736,0,8.725,1.45,11.863,4.31l0.104,0.097l3.03-2.685l-0.103-0.098c-3.664-3.53-8.673-5.319-14.894-5.319
			c-7.366,0-12.628,1.732-15.643,5.151c-3.006,3.406-4.533,8.557-4.533,15.308s1.512,11.913,4.493,15.346
			c2.988,3.44,8.24,5.186,15.606,5.186c3.184,0,5.967-0.447,8.272-1.33c2.299-0.881,4.578-2.22,6.767-3.981l0.121-0.097
			l-2.874-2.544L259.374,320.786z"/>
		<path fill="#3B71B8" d="M299.715,310.206c-0.742-0.748-1.906-1.42-3.458-1.995c-1.528-0.568-2.995-1.025-4.358-1.36
			c-1.357-0.332-3.256-0.741-5.64-1.214c-4.5-0.895-7.616-1.837-9.261-2.8c-1.615-0.941-2.435-2.594-2.435-4.911
			c0-2.178,0.849-3.844,2.521-4.954c1.688-1.118,4.631-1.685,8.752-1.685c4.853,0,9.196,0.979,12.912,2.905l0.129,0.068l2.024-3.232
			l-0.127-0.066c-4.126-2.188-9.178-3.299-15.016-3.299c-10.223,0-15.404,3.43-15.404,10.19c0,1.913,0.322,3.527,0.951,4.799
			c0.636,1.28,1.735,2.345,3.267,3.165c1.516,0.807,3.065,1.447,4.608,1.9c1.521,0.446,3.75,0.965,6.623,1.537
			c4.91,0.988,8.236,1.965,9.886,2.905c1.617,0.922,2.435,2.586,2.435,4.947c0,3.073-0.964,5.195-2.864,6.303
			c-1.922,1.121-5.094,1.69-9.424,1.69c-5.633,0-10.658-1.263-14.939-3.757l-0.123-0.072l-2.281,3.005l0.129,0.077
			c4.747,2.854,10.483,4.3,17.057,4.3c5.743,0,9.997-0.86,12.641-2.557c2.665-1.705,4.015-4.755,4.015-9.062
			c0-1.529-0.254-2.879-0.755-4.008C301.081,311.901,300.454,310.952,299.715,310.206z"/>
		<path fill="#0E111D" d="M344.556,292.224c-1.006-1.589-2.61-2.761-4.771-3.482c-2.145-0.714-4.978-1.078-8.421-1.078
			c-8.222,0-13.552,2.034-15.854,6.046l-0.435-5.126l-3.418,0.157v39.128h4.29v-22.384c0-2.214,0.194-4.123,0.583-5.675
			c0.382-1.545,1.087-3.005,2.087-4.339c0.994-1.323,2.497-2.339,4.468-3.016c1.982-0.681,4.479-1.025,7.419-1.025
			c2.785,0,5.06,0.284,6.754,0.848c1.678,0.557,2.913,1.483,3.673,2.754c0.77,1.284,1.264,2.589,1.471,3.877
			c0.205,1.3,0.309,3.105,0.309,5.364v23.596h4.29v-24.024c0-2.754-0.16-5.005-0.473-6.689
			C346.214,295.46,345.551,293.801,344.556,292.224z"/>
		<path fill="#0E111D" d="M377.124,287.663c-7.049,0-12.235,1.695-15.406,5.038c-3.164,3.338-4.768,8.526-4.768,15.421
			c0,6.942,1.604,12.155,4.768,15.491c3.169,3.345,8.353,5.04,15.406,5.04c7.105,0,12.328-1.707,15.525-5.076
			c3.191-3.36,4.807-8.561,4.807-15.455c0-6.892-1.616-12.081-4.807-15.421C389.452,289.358,384.229,287.663,377.124,287.663z
			 M377.124,325.03c-5.61,0-9.703-1.388-12.165-4.123c-2.469-2.743-3.722-7.02-3.722-12.714c0-5.69,1.253-9.968,3.722-12.714
			c2.461-2.734,6.555-4.121,12.165-4.121c5.611,0,9.732,1.388,12.248,4.121c2.519,2.746,3.797,7.024,3.797,12.714
			c0,5.691-1.278,9.968-3.797,12.714C386.855,323.643,382.735,325.03,377.124,325.03z"/>
		<path fill="#0E111D" d="M416.075,275.591l-3.5,0.467l-0.624,12.533h-7.986v3.552h7.9v26.249c0,3.296,0.681,5.736,2.028,7.253
			c1.354,1.522,4.198,2.296,8.448,2.296c5.645,0,5.896-0.056,5.979-0.075l0.117-0.025v-3.522h-5.626
			c-2.808,0-4.651-0.487-5.475-1.445c-0.838-0.97-1.26-2.573-1.26-4.767v-25.963h12.361v-3.552h-12.361V275.591z"/>
		<path fill="#0E111D" d="M471.106,299.975c-0.233-1.614-0.581-2.969-1.026-4.023c-0.445-1.049-1.095-2.162-1.934-3.307
			c-0.841-1.153-1.883-2.068-3.097-2.717c-1.208-0.645-2.735-1.189-4.536-1.62c-1.805-0.427-3.909-0.645-6.257-0.645
			c-3.913,0-7.247,0.507-9.911,1.509c-2.68,1.003-4.74,2.51-6.132,4.473c-1.388,1.954-2.382,4.104-2.956,6.39
			c-0.572,2.28-0.864,5.001-0.864,8.088c0,3.134,0.265,5.865,0.788,8.124c0.521,2.262,1.488,4.412,2.874,6.391
			c1.392,1.986,3.495,3.506,6.249,4.51c2.744,0.999,6.197,1.507,10.265,1.507c6.158,0,11.634-1.594,16.284-4.733l0.12-0.082
			l-2.37-2.853l-0.118,0.078c-2.065,1.365-4.108,2.402-6.069,3.084c-1.955,0.681-4.594,1.025-7.847,1.025
			c-3.198,0-5.919-0.394-8.081-1.168c-2.152-0.771-3.814-1.94-4.938-3.479c-1.133-1.547-1.928-3.26-2.364-5.089
			c-0.43-1.801-0.653-3.976-0.659-6.466h33.01v-0.136c0-1.808-0.014-3.357-0.039-4.603
			C471.471,303.016,471.338,301.585,471.106,299.975z M438.611,305.348c0.277-4.538,1.551-8.06,3.79-10.473
			c2.257-2.428,6.22-3.659,11.778-3.659c2.01,0,3.775,0.154,5.246,0.46c1.457,0.305,2.661,0.822,3.574,1.538
			c0.924,0.727,1.68,1.451,2.244,2.154c0.559,0.695,0.997,1.697,1.307,2.978c0.307,1.3,0.506,2.42,0.58,3.334
			c0.076,0.886,0.164,2.087,0.267,3.668H438.611z"/>
		<path fill="#0E111D" d="M503.459,287.663c-5.005,0-8.922,0.593-11.641,1.761c-2.555,1.098-4.469,2.814-5.693,5.107l-0.429-5.814
			l-0.011-0.134l-3.418,0.157v50.894h4.288v-17.642c1.22,2.211,3.067,3.848,5.5,4.865c2.614,1.096,6.4,1.652,11.247,1.652
			c6.801,0,11.644-1.733,14.398-5.153c2.745-3.405,4.137-8.532,4.137-15.234c0-6.745-1.379-11.894-4.098-15.305
			C515.012,289.398,510.205,287.663,503.459,287.663z M517.548,308.193c0,5.602-1.109,9.832-3.296,12.579
			c-2.175,2.729-6.018,4.115-11.418,4.115c-5.873,0-10.102-1.21-12.563-3.594c-2.463-2.387-3.715-6.795-3.715-13.101
			s1.252-10.735,3.715-13.171c2.463-2.433,6.69-3.664,12.563-3.664c5.453,0,9.307,1.397,11.457,4.15
			C516.451,298.277,517.548,302.545,517.548,308.193z"/>
		<path fill="#0E111D" d="M565.959,323.545c-0.471-0.517-0.709-1.938-0.709-4.227V303.63c0-3.034-0.186-5.489-0.549-7.298
			c-0.369-1.817-1.142-3.444-2.296-4.835c-1.165-1.397-2.847-2.396-5.005-2.973c-2.144-0.571-5-0.861-8.49-0.861
			c-2.973,0-5.911,0.423-8.729,1.255c-2.818,0.833-5.07,1.764-6.688,2.764l-0.125,0.075l2.279,3.079l0.127-0.078
			c3.66-2.305,8-3.471,12.899-3.471c2.683,0,4.866,0.215,6.491,0.636c1.602,0.418,2.853,1.146,3.715,2.165
			c0.867,1.022,1.451,2.203,1.732,3.508c0.279,1.294,0.422,3.038,0.43,5.186h-2.67c-10.766,0-18.367,1.001-22.595,2.975
			c-4.259,1.988-6.419,5.785-6.419,11.279c0,3.636,1.121,6.51,3.33,8.546c2.206,2.038,6.084,3.072,11.528,3.072
			c4.899,0,8.724-0.593,11.368-1.761c2.482-1.1,4.451-2.82,5.855-5.119c0.072,2.039,0.568,3.567,1.473,4.55
			c0.988,1.072,2.777,1.617,5.316,1.617c0.867,0,1.398-0.052,1.633-0.157l0.082-0.037v-3.429h-0.15
			C567.715,324.317,566.424,324.057,565.959,323.545z M561.043,306.404v3.216c0,5.405-1.289,9.393-3.834,11.851
			c-2.54,2.456-6.754,3.702-12.525,3.702c-4.113,0-7.026-0.695-8.658-2.068c-1.629-1.368-2.457-3.482-2.457-6.282
			c0-4.105,1.695-6.896,5.039-8.29c3.377-1.413,10.082-2.128,19.924-2.128H561.043z"/>
		<path fill="#0E111D" d="M612.201,272.261v21.921c-1.221-2.21-3.066-3.845-5.5-4.865c-2.617-1.098-6.4-1.653-11.247-1.653
			c-6.745,0-11.577,1.735-14.357,5.154c-2.77,3.407-4.173,8.533-4.173,15.234c0,6.749,1.387,11.909,4.135,15.341
			c2.754,3.442,7.572,5.189,14.316,5.189c4.848,0,8.658-0.568,11.328-1.688c2.529-1.062,4.517-2.816,5.924-5.221l0.436,6.139
			l0.013,0.137l3.415-0.234v-55.454H612.201z M612.201,308.052c0,6.307-1.249,10.738-3.714,13.17
			c-2.461,2.432-6.69,3.666-12.563,3.666c-5.449,0-9.307-1.396-11.457-4.15c-2.16-2.768-3.257-7.035-3.257-12.686
			c0-5.603,1.097-9.834,3.257-12.578c2.15-2.73,6.008-4.115,11.457-4.115c5.926,0,10.167,1.209,12.604,3.592
			C610.967,297.341,612.201,301.748,612.201,308.052z"/>
	</g>
	<path fill="#3B71B8" d="M441.414,283.421h-1.836c0-14.28-10.879-25.898-24.25-25.898c-13.369,0-24.247,11.618-24.247,25.898h-1.837
		c0-15.226,11.702-27.614,26.083-27.614C429.714,255.807,441.414,268.195,441.414,283.421z"/>
	<path fill="#9C8B83" d="M436.135,283.421H434.3c0-11.188-8.509-20.287-18.971-20.287c-10.46,0-18.97,9.1-18.97,20.287h-1.835
		c0-12.133,9.331-22.003,20.805-22.003S436.135,271.288,436.135,283.421z"/>
	<path fill="#E46C2E" d="M430.23,283.421h-1.838c0-7.724-5.859-14.006-13.064-14.006c-7.201,0-13.062,6.282-13.062,14.006h-1.835
		c0-8.668,6.683-15.721,14.897-15.721C423.547,267.7,430.23,274.753,430.23,283.421z"/>
</g>
</svg>
