<?xml version="1.0" encoding="UTF-8"?>
<svg width="180px" height="39px" viewBox="0 0 180 39" version="1.1" xmlns="http://www.w3.org/2000/svg" xmlns:xlink="http://www.w3.org/1999/xlink">
    <title>csn-logo</title>
    <desc>Created with Sketch.</desc>
    <defs></defs>
    <g id="Page-1" stroke="none" stroke-width="1" fill="none" fill-rule="evenodd">
        <g id="csn-logo" fill-rule="nonzero">
            <g id="Group" transform="translate(0.000000, 7.384615)">
                <path d="M14.9423077,22.6596923 C13.3264615,23.9593846 11.4466154,24.6184615 9.35538462,24.6184615 C6.67015385,24.6184615 4.75661538,23.9723077 3.66969231,22.7012308 C2.57676923,21.4236923 2.02338462,19.4543077 2.02338462,16.8461538 C2.02338462,14.2416923 2.58276923,12.2732308 3.68769231,10.9947692 C4.78615385,9.72276923 6.69507692,9.07753846 9.35538462,9.07753846 C11.5407692,9.07753846 13.3823077,9.74630769 14.8301538,11.0663077 L14.8781538,11.1115385 L16.2761538,9.87184615 L16.2290769,9.82661538 C14.5375385,8.19784615 12.2261538,7.37123077 9.35492308,7.37123077 C5.95523077,7.37123077 3.52661538,8.17153846 2.13461538,9.74907692 C0.747230769,11.3210769 0.0424615385,13.6984615 0.0424615385,16.8147692 C0.0424615385,19.9310769 0.740769231,22.3126154 2.11661538,23.8975385 C3.49523077,25.4847692 5.91923077,26.2910769 9.31892308,26.2910769 C10.7884615,26.2910769 12.0729231,26.0847692 13.1367692,25.6772308 C14.1983077,25.2706154 15.2496923,24.6521538 16.2604615,23.8393846 L16.3158462,23.7950769 L14.9898462,22.6204615 L14.9423077,22.6596923 Z" id="Shape" fill="#3B71B8"></path>
                <path d="M33.5612308,17.7756923 C33.2183077,17.4304615 32.6815385,17.1212308 31.9652308,16.8553846 C31.26,16.5932308 30.582,16.3823077 29.9533846,16.2281538 C29.3275385,16.0749231 28.4510769,15.8856923 27.3507692,15.6664615 C25.2738462,15.2543077 23.8356923,14.82 23.0764615,14.3746154 C22.3315385,13.9412308 21.9530769,13.1773846 21.9530769,12.1084615 C21.9530769,11.1032308 22.3444615,10.3343077 23.1166154,9.82246154 C23.8956923,9.306 25.254,9.04430769 27.156,9.04430769 C29.3958462,9.04430769 31.4003077,9.49615385 33.1158462,10.3855385 L33.1753846,10.4169231 L34.1104615,8.92523077 L34.0513846,8.89476923 C32.1466154,7.88446154 29.8149231,7.37123077 27.1204615,7.37123077 C22.4021538,7.37123077 20.0104615,8.95523077 20.0104615,12.0756923 C20.0104615,12.9572308 20.1590769,13.7026154 20.4493846,14.2906154 C20.7429231,14.8809231 21.2501538,15.3724615 21.9572308,15.75 C22.6569231,16.1233846 23.3718462,16.4187692 24.084,16.6278462 C24.786,16.8332308 25.8147692,17.0732308 27.1412308,17.3372308 C29.4073846,17.7932308 30.942,18.2441538 31.7044615,18.6775385 C32.4503077,19.1030769 32.8278462,19.8710769 32.8278462,20.9607692 C32.8278462,22.3786154 32.3833846,23.3584615 31.506,23.8698462 C30.6184615,24.3872308 29.1553846,24.6503077 27.156,24.6503077 C24.5561538,24.6503077 22.2369231,24.0669231 20.2610769,22.9158462 L20.2047692,22.8835385 L19.1515385,24.27 L19.2110769,24.3050769 C21.402,25.6223077 24.0498462,26.2901538 27.0835385,26.2901538 C29.7336923,26.2901538 31.6970769,25.8927692 32.9178462,25.11 C34.1483077,24.3230769 34.7713846,22.9149231 34.7713846,20.928 C34.7713846,20.2213846 34.6541538,19.5992308 34.4229231,19.0772308 C34.1921538,18.558 33.9027692,18.1209231 33.5612308,17.7756923 Z" id="Shape" fill="#3B71B8"></path>
                <path d="M54.2575385,9.47676923 C53.7927692,8.74292308 53.0529231,8.202 52.0550769,7.86969231 C51.0650769,7.53969231 49.7575385,7.37123077 48.1684615,7.37123077 C44.3736923,7.37123077 41.9132308,8.31046154 40.8512308,10.1630769 L40.6504615,7.79676923 L39.0733846,7.86876923 L39.0733846,25.9283077 L41.0533846,25.9283077 L41.0533846,15.5976923 C41.0533846,14.5744615 41.1429231,13.6938462 41.3224615,12.9770769 C41.4992308,12.2649231 41.8246154,11.5906154 42.2856923,10.9749231 C42.7444615,10.3638462 43.4381538,9.89584615 44.3478462,9.58292308 C45.2630769,9.26907692 46.4155385,9.10984615 47.7724615,9.10984615 C49.0578462,9.10984615 50.1078462,9.24138462 50.8896923,9.50123077 C51.6641538,9.75830769 52.2341538,10.1861538 52.5849231,10.7732308 C52.9403077,11.3644615 53.1683077,11.9667692 53.2638462,12.5616923 C53.3584615,13.1621538 53.4064615,13.9947692 53.4064615,15.0369231 L53.4064615,25.9283077 L55.3864615,25.9283077 L55.3864615,14.8398462 C55.3864615,13.5696923 55.3126154,12.5303077 55.1681538,11.7516923 C55.0227692,10.9707692 54.7167692,10.2041538 54.2575385,9.47676923 Z" id="Shape" fill="#FFFFFF"></path>
                <path d="M69.2884615,7.37123077 C66.0350769,7.37123077 63.6415385,8.15446154 62.178,9.69784615 C60.7176923,11.2384615 59.9773846,13.6315385 59.9773846,16.8147692 C59.9773846,20.0183077 60.7176923,22.4243077 62.178,23.964 C63.6410769,25.5073846 66.0332308,26.2906154 69.2884615,26.2906154 C72.5676923,26.2906154 74.9787692,25.5027692 76.4538462,23.9478462 C77.9266154,22.3966154 78.6729231,19.9966154 78.6729231,16.8147692 C78.6729231,13.6333846 77.9270769,11.2384615 76.4538462,9.69784615 C74.9787692,8.15446154 72.5676923,7.37123077 69.2884615,7.37123077 Z M69.2884615,24.6184615 C66.6996923,24.6184615 64.8101538,23.9773846 63.6743077,22.7155385 C62.5347692,21.4490769 61.9564615,19.4750769 61.9564615,16.8461538 C61.9564615,14.2204615 62.5347692,12.246 63.6743077,10.9795385 C64.8101538,9.71769231 66.6996923,9.07753846 69.2884615,9.07753846 C71.8786154,9.07753846 73.7801538,9.71861538 74.9413846,10.9795385 C76.104,12.2469231 76.6938462,14.2209231 76.6938462,16.8461538 C76.6938462,19.4736923 76.104,21.4481538 74.9413846,22.7155385 C73.7801538,23.9773846 71.8786154,24.6184615 69.2884615,24.6184615 Z" id="Shape" fill="#FFFFFF"></path>
                <path d="M87.2658462,1.8 L85.6504615,2.01461538 L85.3624615,7.8 L81.6761538,7.8 L81.6761538,9.43984615 L85.3223077,9.43984615 L85.3223077,21.5543077 C85.3223077,23.0750769 85.6370769,24.2016923 86.2583077,24.9013846 C86.8832308,25.6043077 88.1958462,25.9615385 90.1573846,25.9615385 C92.7627692,25.9615385 92.8786154,25.9352308 92.9169231,25.9273846 L92.9709231,25.9149231 L92.9709231,24.2898462 L90.3738462,24.2898462 C89.0783077,24.2898462 88.2276923,24.0646154 87.8473846,23.6229231 C87.4606154,23.1756923 87.2653846,22.4349231 87.2653846,21.4223077 L87.2653846,9.44030769 L92.9704615,9.44030769 L92.9704615,7.8 L87.2653846,7.8 L87.2653846,1.8 L87.2658462,1.8 Z" id="Shape" fill="#FFFFFF"></path>
                <path d="M112.665231,13.0536923 C112.557692,12.3083077 112.397077,11.6833846 112.191692,11.1969231 C111.985846,10.7127692 111.685846,10.1990769 111.299077,9.67153846 C110.910923,9.13892308 110.43,8.71615385 109.869231,8.41661538 C109.311692,8.11984615 108.607385,7.86784615 107.776154,7.66938462 C106.942615,7.47184615 105.972,7.37123077 104.887846,7.37123077 C103.082308,7.37123077 101.543077,7.60569231 100.313538,8.06815385 C99.0770769,8.53153846 98.1263077,9.22661538 97.4838462,10.1326154 C96.8432308,11.0349231 96.3844615,12.0267692 96.1195385,13.0813846 C95.8550769,14.1341538 95.7207692,15.39 95.7207692,16.8152308 C95.7207692,18.2612308 95.8430769,19.5221538 96.0844615,20.5643077 C96.3249231,21.6083077 96.7712308,22.6006154 97.4109231,23.514 C98.0533846,24.4306154 99.024,25.1321538 100.295077,25.5955385 C101.561538,26.0570769 103.155231,26.2915385 105.032769,26.2915385 C107.874462,26.2915385 110.402308,25.5558462 112.548,24.1066154 L112.603846,24.0687692 L111.51,22.7524615 L111.455077,22.7875385 C110.502,23.4184615 109.559538,23.8970769 108.654462,24.2118462 C107.752154,24.5256923 106.534154,24.684 105.032769,24.684 C103.556769,24.684 102.300923,24.5035385 101.303077,24.1458462 C100.309846,23.79 99.5432308,23.2509231 99.024,22.5401538 C98.5010769,21.8252308 98.1341538,21.0346154 97.9329231,20.1909231 C97.7349231,19.3596923 97.6310769,18.3563077 97.6283077,17.2061538 L112.864615,17.2061538 L112.864615,17.1438462 C112.864615,16.3089231 112.857692,15.5935385 112.846154,15.0198462 C112.833692,14.4581538 112.772308,13.7976923 112.665231,13.0536923 Z M97.6675385,15.5335385 C97.7953846,13.4386154 98.3833846,11.814 99.4167692,10.6998462 C100.458462,9.57923077 102.287077,9.01153846 104.852769,9.01153846 C105.780462,9.01153846 106.595077,9.08261538 107.274,9.22338462 C107.946462,9.36415385 108.501692,9.60276923 108.923538,9.93369231 C109.35,10.2692308 109.698462,10.6024615 109.959231,10.9278462 C110.217231,11.2486154 110.419385,11.7101538 110.562462,12.3018462 C110.704615,12.9013846 110.795538,13.4187692 110.830154,13.8406154 C110.865231,14.2490769 110.905846,14.8033846 110.953385,15.5335385 L97.6675385,15.5335385 L97.6675385,15.5335385 Z" id="Shape" fill="#FFFFFF"></path>
                <path d="M127.597385,7.37123077 C125.287385,7.37123077 123.479077,7.64630769 122.224615,8.18446154 C121.045385,8.69123077 120.162,9.48323077 119.597077,10.5415385 L119.399077,7.85861538 L119.394,7.79630769 L117.816462,7.86830769 L117.816462,31.3573846 L119.795538,31.3573846 L119.795538,23.2153846 C120.358615,24.2358462 121.211077,24.9913846 122.333538,25.4607692 C123.540462,25.9675385 125.287385,26.2232308 127.524923,26.2232308 C130.663385,26.2232308 132.899077,25.4238462 134.169692,23.8453846 C135.436615,22.2733846 136.079538,19.908 136.079538,16.8143077 C136.079538,13.7007692 135.443077,11.3238462 134.188154,9.75046154 C132.929077,8.17246154 130.710923,7.37123077 127.597385,7.37123077 Z M134.1,16.8461538 C134.1,19.4326154 133.588154,21.3849231 132.578769,22.6532308 C131.574462,23.9127692 129.801231,24.5524615 127.308923,24.5524615 C124.597846,24.5524615 122.646,23.9944615 121.510154,22.8936923 C120.373385,21.7910769 119.796,19.7575385 119.796,16.8456923 C119.796,13.9356923 120.373385,11.8915385 121.510154,10.7681538 C122.647385,9.64476923 124.597846,9.07707692 127.308923,9.07707692 C129.825692,9.07707692 131.604,9.72138462 132.596308,10.9924615 C133.593692,12.2704615 134.1,14.2403077 134.1,16.8461538 Z" id="Shape" fill="#FFFFFF"></path>
                <path d="M156.444,23.9330769 C156.226154,23.6930769 156.116308,23.0381538 156.116308,21.9812308 L156.116308,14.7401538 C156.116308,13.3403077 156.030462,12.2072308 155.862923,11.3723077 C155.692615,10.5332308 155.335385,9.78323077 154.803231,9.14123077 C154.265538,8.496 153.489231,8.03538462 152.493231,7.76907692 C151.503231,7.506 150.185538,7.37076923 148.574769,7.37076923 C147.202154,7.37076923 145.846154,7.56738462 144.546,7.95046154 C143.244923,8.33538462 142.206,8.76461538 141.459231,9.22615385 L141.402,9.26030769 L142.453846,10.6818462 L142.512462,10.6458462 C144.201692,9.582 146.204769,9.04384615 148.465846,9.04384615 C149.704154,9.04384615 150.711692,9.14307692 151.461231,9.33784615 C152.201077,9.53076923 152.778462,9.86630769 153.176308,10.3366154 C153.576462,10.8078462 153.846,11.3533846 153.975692,11.9556923 C154.104923,12.5533846 154.170462,13.3583077 154.174154,14.3492308 L152.941846,14.3492308 C147.972923,14.3492308 144.464308,14.8107692 142.513385,15.7223077 C140.547692,16.6398462 139.551231,18.3923077 139.551231,20.9289231 C139.551231,22.6056923 140.068154,23.9335385 141.087692,24.8727692 C142.106308,25.8129231 143.895692,26.2906154 146.407846,26.2906154 C148.669385,26.2906154 150.434769,26.0164615 151.655077,25.4773846 C152.800615,24.9696923 153.709385,24.1758462 154.357385,23.1147692 C154.390615,24.0558462 154.619538,24.7615385 155.037231,25.2152308 C155.493692,25.71 156.318923,25.9615385 157.490769,25.9615385 C157.890462,25.9615385 158.136,25.9370769 158.244462,25.8886154 L158.282308,25.8715385 L158.282308,24.2893846 L158.213077,24.2893846 C157.254,24.2893846 156.658154,24.1684615 156.444,23.9330769 Z M154.174615,16.0204615 L154.174615,17.5061538 C154.174615,20.0012308 153.579692,21.8413846 152.405077,22.9753846 C151.232769,24.1084615 149.287846,24.6835385 146.624308,24.6835385 C144.726,24.6835385 143.381538,24.3636923 142.627846,23.73 C141.876462,23.0981538 141.494308,22.1229231 141.494308,20.8301538 C141.494308,18.9355385 142.276615,17.6478462 143.819538,17.0035385 C145.378615,16.3518462 148.473231,16.0209231 153.015692,16.0209231 L154.174615,16.0209231 L154.174615,16.0204615 Z" id="Shape" fill="#FFFFFF"></path>
                <path d="M177.786,0.262153846 L177.786,10.38 C177.222462,9.36046154 176.370923,8.60492308 175.247538,8.13461538 C174.039692,7.62876923 172.293692,7.37123077 170.056615,7.37123077 C166.943538,7.37123077 164.713385,8.17246154 163.429846,9.75092308 C162.152308,11.3229231 161.504308,13.6883077 161.504308,16.782 C161.504308,19.8964615 162.144923,22.278 163.412769,23.862 C164.683846,25.4510769 166.907538,26.2578462 170.020154,26.2578462 C172.257692,26.2578462 174.016154,25.9947692 175.248462,25.4787692 C176.415231,24.9881538 177.333692,24.1781538 177.982615,23.0681538 L178.183846,25.9015385 L178.189846,25.9647692 L179.765538,25.8576923 L179.765538,0.262153846 L177.786,0.262153846 L177.786,0.262153846 Z M177.786,16.782 C177.786,19.6929231 177.209538,21.7370769 176.071846,22.8604615 C174.935538,23.9829231 172.984154,24.5524615 170.273538,24.5524615 C167.758615,24.5524615 165.978,23.9081538 164.985692,22.6370769 C163.988308,21.3595385 163.482,19.3892308 163.482,16.782 C163.482,14.1964615 163.988308,12.2423077 164.985692,10.9767692 C165.978,9.71676923 167.758615,9.07753846 170.273538,9.07753846 C173.008615,9.07753846 174.966,9.63553846 176.090308,10.7353846 C177.216462,11.8375385 177.786,13.8724615 177.786,16.782 Z" id="Shape" fill="#FFFFFF"></path>
            </g>
            <path d="M98.9612308,12.7984615 L98.1138462,12.7984615 C98.1138462,6.20723077 93.0927692,0.845538462 86.9215385,0.845538462 C80.7512308,0.845538462 75.7310769,6.20723077 75.7310769,12.7984615 L74.8832308,12.7984615 C74.8832308,5.77061538 80.2846154,0.054 86.9215385,0.054 C93.5607692,0.054 98.9612308,5.77107692 98.9612308,12.7984615 Z" id="Shape" fill="#3B71B8"></path>
            <path d="M96.5252308,12.7984615 L95.6778462,12.7984615 C95.6778462,7.63476923 91.7506154,3.43430769 86.9215385,3.43430769 C82.0938462,3.43430769 78.1666154,7.63523077 78.1666154,12.7984615 L77.3196923,12.7984615 C77.3196923,7.19861538 81.6263077,2.64369231 86.922,2.64369231 C92.2176923,2.64415385 96.5252308,7.19907692 96.5252308,12.7984615 Z" id="Shape" fill="#9C8B83"></path>
            <path d="M93.7989231,12.7984615 L92.9510769,12.7984615 C92.9510769,9.23307692 90.2469231,6.33415385 86.9215385,6.33415385 C83.5984615,6.33415385 80.8929231,9.23307692 80.8929231,12.7984615 L80.046,12.7984615 C80.046,8.79784615 83.1304615,5.54169231 86.9215385,5.54169231 C90.7149231,5.54215385 93.7989231,8.79830769 93.7989231,12.7984615 Z" id="Shape" fill="#E46C2E"></path>
        </g>
    </g>
</svg>
