<?xml version="1.0" encoding="utf-8"?>
<!-- Generator: Adobe Illustrator 16.0.0, SVG Export Plug-In . SVG Version: 6.00 Build 0)  -->
<!DOCTYPE svg PUBLIC "-//W3C//DTD SVG 1.1//EN" "http://www.w3.org/Graphics/SVG/1.1/DTD/svg11.dtd">
<svg version="1.1" id="Layer_1" xmlns="http://www.w3.org/2000/svg" xmlns:xlink="http://www.w3.org/1999/xlink" x="0px" y="0px"
	 width="841.89px" height="595.28px" viewBox="0 0 841.89 595.28" enable-background="new 0 0 841.89 595.28" xml:space="preserve">
<g>
	<g>
		<path fill="#3B71B8" d="M259.375,321.096c-3.501,2.816-7.574,4.244-12.105,4.244c-5.818,0-9.964-1.4-12.319-4.154
			c-2.368-2.768-3.567-7.035-3.567-12.686c0-5.643,1.212-9.908,3.606-12.678c2.38-2.756,6.516-4.154,12.28-4.154
			c4.735,0,8.725,1.449,11.862,4.309l0.104,0.098l3.029-2.686l-0.102-0.098c-3.665-3.529-8.673-5.32-14.894-5.32
			c-7.366,0-12.628,1.734-15.644,5.152c-3.006,3.406-4.533,8.557-4.533,15.309s1.513,11.912,4.494,15.346
			c2.987,3.439,8.239,5.186,15.605,5.186c3.184,0,5.967-0.447,8.272-1.33c2.3-0.881,4.578-2.221,6.768-3.982l0.12-0.096
			l-2.873-2.545L259.375,321.096z"/>
		<path fill="#3B71B8" d="M299.716,310.514c-0.743-0.748-1.906-1.418-3.458-1.994c-1.528-0.568-2.997-1.025-4.359-1.359
			c-1.356-0.332-3.255-0.742-5.639-1.217c-4.5-0.893-7.616-1.834-9.261-2.799c-1.614-0.939-2.434-2.594-2.434-4.91
			c0-2.178,0.848-3.844,2.521-4.953c1.688-1.119,4.631-1.686,8.752-1.686c4.853,0,9.196,0.979,12.913,2.906l0.129,0.068l2.026-3.232
			l-0.128-0.066c-4.127-2.189-9.179-3.301-15.017-3.301c-10.223,0-15.405,3.432-15.405,10.193c0,1.91,0.322,3.525,0.951,4.799
			c0.636,1.279,1.735,2.344,3.267,3.162c1.516,0.809,3.065,1.449,4.608,1.902c1.521,0.445,3.75,0.965,6.624,1.537
			c4.91,0.988,8.235,1.965,9.887,2.904c1.616,0.922,2.434,2.586,2.434,4.947c0,3.072-0.963,5.195-2.864,6.303
			c-1.923,1.121-5.093,1.691-9.425,1.691c-5.633,0-10.658-1.264-14.939-3.758l-0.122-0.07l-2.282,3.004l0.129,0.076
			c4.747,2.854,10.484,4.301,17.057,4.301c5.742,0,9.996-0.861,12.641-2.557c2.666-1.705,4.016-4.756,4.016-9.061
			c0-1.531-0.254-2.879-0.755-4.01C301.083,312.209,300.456,311.262,299.716,310.514z"/>
		<path fill="#FFFFFF" d="M344.558,292.533c-1.007-1.59-2.61-2.762-4.772-3.482c-2.145-0.715-4.978-1.08-8.421-1.08
			c-8.222,0-13.553,2.035-15.854,6.049l-0.435-5.127l-3.417,0.156v39.129h4.29v-22.383c0-2.217,0.194-4.125,0.583-5.678
			c0.383-1.543,1.088-3.004,2.087-4.338c0.994-1.324,2.497-2.338,4.468-3.016c1.983-0.68,4.48-1.025,7.42-1.025
			c2.785,0,5.06,0.285,6.754,0.848c1.678,0.557,2.913,1.484,3.673,2.756c0.77,1.281,1.264,2.586,1.471,3.875
			c0.205,1.301,0.309,3.105,0.309,5.363v23.598h4.29v-24.025c0-2.752-0.16-5.004-0.473-6.691
			C346.216,295.77,345.553,294.109,344.558,292.533z"/>
		<path fill="#FFFFFF" d="M377.125,287.971c-7.049,0-12.235,1.697-15.406,5.041c-3.164,3.338-4.768,8.523-4.768,15.42
			c0,6.941,1.604,12.154,4.768,15.49c3.17,3.344,8.353,5.041,15.406,5.041c7.105,0,12.329-1.707,15.525-5.076
			c3.191-3.361,4.808-8.561,4.808-15.455c0-6.893-1.616-12.082-4.808-15.42C389.454,289.668,384.23,287.971,377.125,287.971z
			 M377.125,325.34c-5.609,0-9.703-1.389-12.164-4.123c-2.469-2.744-3.722-7.021-3.722-12.717c0-5.689,1.253-9.967,3.722-12.711
			c2.461-2.734,6.555-4.121,12.164-4.121c5.612,0,9.732,1.389,12.248,4.121c2.519,2.746,3.797,7.023,3.797,12.711
			c0,5.693-1.278,9.971-3.797,12.717C386.857,323.951,382.737,325.34,377.125,325.34z"/>
		<path fill="#FFFFFF" d="M416.076,275.9l-3.5,0.465l-0.624,12.535h-7.987v3.553h7.9v26.248c0,3.295,0.682,5.736,2.028,7.252
			c1.354,1.523,4.198,2.297,8.448,2.297c5.645,0,5.896-0.057,5.979-0.074l0.117-0.027v-3.521h-5.627
			c-2.807,0-4.65-0.488-5.474-1.445c-0.838-0.969-1.261-2.574-1.261-4.768v-25.961h12.361V288.9h-12.361V275.9z"/>
		<path fill="#FFFFFF" d="M471.108,300.283c-0.233-1.615-0.581-2.969-1.026-4.023c-0.446-1.049-1.096-2.162-1.934-3.305
			c-0.841-1.154-1.883-2.07-3.098-2.719c-1.208-0.643-2.734-1.189-4.535-1.619c-1.806-0.428-3.909-0.646-6.258-0.646
			c-3.912,0-7.247,0.508-9.911,1.51c-2.679,1.004-4.739,2.51-6.131,4.473c-1.388,1.955-2.382,4.104-2.956,6.389
			c-0.573,2.281-0.864,5.002-0.864,8.09c0,3.133,0.265,5.865,0.788,8.123c0.521,2.262,1.488,4.412,2.874,6.391
			c1.392,1.986,3.495,3.506,6.249,4.51c2.744,1,6.197,1.508,10.265,1.508c6.157,0,11.634-1.594,16.283-4.734l0.121-0.082
			l-2.37-2.852l-0.119,0.076c-2.065,1.367-4.107,2.404-6.068,3.086c-1.955,0.68-4.594,1.023-7.847,1.023
			c-3.198,0-5.919-0.391-8.081-1.166c-2.152-0.771-3.813-1.939-4.938-3.479c-1.133-1.549-1.928-3.262-2.364-5.09
			c-0.429-1.801-0.654-3.975-0.66-6.467h33.012v-0.135c0-1.809-0.015-3.359-0.04-4.602
			C471.473,303.326,471.34,301.895,471.108,300.283z M438.613,305.656c0.277-4.539,1.551-8.059,3.79-10.473
			c2.257-2.428,6.219-3.658,11.778-3.658c2.01,0,3.775,0.154,5.246,0.459c1.457,0.305,2.66,0.822,3.574,1.539
			c0.924,0.727,1.679,1.449,2.244,2.154c0.559,0.695,0.997,1.695,1.307,2.977c0.308,1.299,0.505,2.42,0.58,3.334
			c0.076,0.885,0.164,2.086,0.267,3.668H438.613z"/>
		<path fill="#FFFFFF" d="M503.461,287.971c-5.005,0-8.923,0.596-11.641,1.762c-2.555,1.098-4.469,2.814-5.693,5.107l-0.429-5.813
			l-0.011-0.135l-3.418,0.156v50.893h4.288v-17.641c1.22,2.211,3.067,3.848,5.499,4.865c2.615,1.098,6.4,1.652,11.248,1.652
			c6.8,0,11.644-1.732,14.397-5.152c2.745-3.406,4.138-8.531,4.138-15.234c0-6.746-1.379-11.896-4.098-15.305
			C515.013,289.707,510.207,287.971,503.461,287.971z M517.55,308.5c0,5.604-1.109,9.834-3.296,12.582
			c-2.176,2.729-6.018,4.115-11.418,4.115c-5.874,0-10.103-1.209-12.564-3.594c-2.463-2.389-3.714-6.795-3.714-13.104
			c0-6.305,1.251-10.734,3.714-13.168c2.464-2.434,6.69-3.664,12.564-3.664c5.453,0,9.306,1.396,11.456,4.15
			C516.453,298.586,517.55,302.854,517.55,308.5z"/>
		<path fill="#FFFFFF" d="M565.962,323.855c-0.472-0.52-0.71-1.939-0.71-4.229v-15.689c0-3.033-0.186-5.488-0.549-7.297
			c-0.369-1.818-1.143-3.443-2.296-4.834c-1.165-1.398-2.847-2.396-5.005-2.973c-2.145-0.57-5-0.863-8.49-0.863
			c-2.974,0-5.912,0.426-8.729,1.256c-2.819,0.834-5.07,1.764-6.688,2.764l-0.124,0.074l2.279,3.08l0.127-0.078
			c3.66-2.305,8-3.471,12.899-3.471c2.683,0,4.866,0.215,6.49,0.637c1.603,0.418,2.854,1.145,3.716,2.164
			c0.867,1.021,1.451,2.203,1.732,3.508c0.28,1.295,0.422,3.039,0.43,5.186h-2.67c-10.766,0-18.368,1-22.595,2.975
			c-4.259,1.988-6.418,5.785-6.418,11.281c0,3.633,1.12,6.51,3.329,8.545c2.207,2.037,6.084,3.072,11.527,3.072
			c4.9,0,8.725-0.594,11.369-1.762c2.482-1.1,4.451-2.82,5.855-5.119c0.072,2.039,0.568,3.568,1.473,4.551
			c0.989,1.072,2.777,1.617,5.316,1.617c0.866,0,1.398-0.053,1.633-0.158l0.082-0.037v-3.428h-0.15
			C567.717,324.627,566.426,324.365,565.962,323.855z M561.045,306.711v3.219c0,5.406-1.289,9.393-3.834,11.85
			c-2.54,2.455-6.754,3.701-12.525,3.701c-4.113,0-7.026-0.693-8.659-2.066c-1.628-1.369-2.456-3.482-2.456-6.283
			c0-4.105,1.695-6.895,5.038-8.291c3.378-1.412,10.083-2.129,19.925-2.129H561.045z"/>
		<path fill="#FFFFFF" d="M612.203,272.568v21.922c-1.221-2.209-3.066-3.846-5.5-4.865c-2.617-1.096-6.4-1.654-11.247-1.654
			c-6.745,0-11.577,1.736-14.358,5.156c-2.768,3.406-4.172,8.531-4.172,15.234c0,6.748,1.388,11.908,4.135,15.34
			c2.754,3.443,7.572,5.191,14.316,5.191c4.848,0,8.658-0.57,11.328-1.688c2.528-1.063,4.518-2.818,5.924-5.223l0.436,6.139
			l0.013,0.137l3.414-0.232v-55.457H612.203z M612.203,308.361c0,6.307-1.249,10.736-3.714,13.17
			c-2.462,2.432-6.69,3.666-12.563,3.666c-5.449,0-9.307-1.396-11.457-4.15c-2.161-2.768-3.258-7.037-3.258-12.686
			c0-5.602,1.097-9.836,3.258-12.578c2.15-2.73,6.008-4.115,11.457-4.115c5.926,0,10.167,1.209,12.603,3.592
			C610.969,297.648,612.203,302.057,612.203,308.361z"/>
	</g>
	<path fill="#3B71B8" d="M441.416,283.73h-1.836c0-14.281-10.879-25.898-24.25-25.898c-13.369,0-24.246,11.617-24.246,25.898h-1.837
		c0-15.227,11.703-27.613,26.083-27.613C429.715,256.117,441.416,268.504,441.416,283.73z"/>
	<path fill="#9C8B83" d="M436.138,283.73h-1.836c0-11.188-8.509-20.289-18.972-20.289c-10.46,0-18.969,9.102-18.969,20.289h-1.835
		c0-12.133,9.331-22.002,20.805-22.002C426.805,261.729,436.138,271.598,436.138,283.73z"/>
	<path fill="#E46C2E" d="M430.231,283.73h-1.837c0-7.725-5.859-14.006-13.064-14.006c-7.2,0-13.062,6.281-13.062,14.006h-1.835
		c0-8.668,6.683-15.723,14.897-15.723C423.549,268.008,430.231,275.063,430.231,283.73z"/>
</g>
</svg>
